<svg width="173" height="47" viewBox="0 0 173 47" fill="none" xmlns="http://www.w3.org/2000/svg">
<mask id="path-1-inside-1_22_2" fill="white">
<path d="M3.39525 30.384C4.20592 31.024 5.59258 31.8987 7.55525 33.008C9.56058 34.1173 11.4593 34.672 13.2513 34.672C15.0859 34.672 16.0033 33.968 16.0033 32.56C16.0033 31.92 15.7473 31.3653 15.2353 30.896C14.7233 30.384 13.7846 29.808 12.4193 29.168C11.0539 28.528 10.0299 28.0373 9.34725 27.696C8.66458 27.312 7.74725 26.7147 6.59525 25.904C5.48592 25.0507 4.63258 24.176 4.03525 23.28C2.32858 20.848 1.47525 17.7547 1.47525 14C1.47525 10.2453 2.86192 7.088 5.63525 4.528C8.45125 1.92533 12.1206 0.623997 16.6433 0.623997C19.7153 0.623997 22.5526 0.965331 25.1553 1.648C27.7579 2.288 29.1019 3.14133 29.1873 4.208C29.1873 4.336 29.1873 4.464 29.1873 4.592C29.1873 6.08533 28.7179 7.984 27.7793 10.288C26.8406 12.5493 26.1793 13.808 25.7953 14.064C23.0646 12.656 20.6113 11.952 18.4353 11.952C16.3019 11.952 15.2353 12.72 15.2353 14.256C15.2353 15.1947 16.0246 16.0267 17.6033 16.752C17.9446 16.9227 18.4353 17.1573 19.0753 17.456C19.7153 17.7547 20.4406 18.1173 21.2513 18.544C22.1046 18.928 23.0006 19.44 23.9393 20.08C24.9206 20.6773 25.9659 21.488 27.0753 22.512C29.3366 24.6453 30.4673 27.4613 30.4673 30.96C30.4673 35.5253 29.2086 39.2587 26.6913 42.16C24.1739 45.0613 20.2913 46.5547 15.0433 46.64C12.4833 46.64 10.1579 46.4267 8.06725 46C6.01925 45.5733 4.22725 44.7413 2.69125 43.504C1.15525 42.2667 0.38725 40.7733 0.38725 39.024C0.38725 37.2747 0.70725 35.5467 1.34725 33.84C1.98725 32.0907 2.66992 30.9387 3.39525 30.384ZM39.9553 34.992V12.208H35.4113C34.6859 12.208 34.1739 11.2907 33.8753 9.456C33.7473 8.56 33.6833 7.64267 33.6833 6.704C33.6833 5.76533 33.7473 4.848 33.8753 3.952C34.1739 2.11733 34.6859 1.2 35.4113 1.2H56.9153C57.6406 1.2 58.1313 2.11733 58.3873 3.952C58.5579 4.848 58.6433 5.76533 58.6433 6.704C58.6433 7.64267 58.5579 8.56 58.3873 9.456C58.1313 11.2907 57.6406 12.208 56.9153 12.208H52.6273V34.992H57.1073C57.8326 34.992 58.3446 35.9093 58.6433 37.744C58.8139 38.64 58.8993 39.5573 58.8993 40.496C58.8993 41.4347 58.8139 42.352 58.6433 43.248C58.3446 45.0827 57.8326 46 57.1073 46H35.5393C34.8139 46 34.3233 45.0827 34.0673 43.248C33.8966 42.352 33.8113 41.4347 33.8113 40.496C33.8113 39.5573 33.8966 38.64 34.0673 37.744C34.3233 35.9093 34.8139 34.992 35.5393 34.992H39.9553ZM86.8488 32.624L86.9768 23.92C86.9768 23.3227 87.5954 22.9387 88.8328 22.768C90.0701 22.5547 91.0941 22.448 91.9048 22.448L94.4008 22.64C96.0221 22.896 96.8328 23.344 96.8328 23.984L96.5768 44.016C95.7234 44.6133 93.9954 45.2107 91.3928 45.808C88.8328 46.3627 85.8888 46.64 82.5608 46.64C76.3741 46.64 71.3821 44.6347 67.5848 40.624C63.7874 36.6133 61.8888 30.7253 61.8888 22.96C61.8888 16.3467 63.7448 10.9707 67.4568 6.832C71.1688 2.69333 76.3101 0.623997 82.8808 0.623997C85.8674 0.623997 88.5554 0.922663 90.9448 1.52C93.3768 2.07466 95.0408 2.84266 95.9368 3.824C95.9794 4.16533 96.0008 4.80533 96.0008 5.744C96.0008 6.68266 95.6808 8.02666 95.0408 9.776C94.4008 11.4827 93.6754 12.7627 92.8647 13.616C92.0541 14.4693 91.4568 14.896 91.0728 14.896C90.7314 14.896 90.3474 14.7467 89.9208 14.448C89.5368 14.1067 88.7474 13.7653 87.5528 13.424C86.3581 13.04 85.2061 12.848 84.0968 12.848C81.4514 12.848 79.2968 13.7013 77.6328 15.408C76.0114 17.1147 75.2008 19.76 75.2008 23.344C75.2008 26.928 76.0328 29.6587 77.6968 31.536C79.4034 33.3707 81.3448 34.288 83.5208 34.288C85.7394 34.288 86.8488 33.7333 86.8488 32.624Z"/>
<path d="M126.855 1.2C127.58 1.2 127.943 3.09866 127.943 6.896C127.943 10.6507 127.58 12.528 126.855 12.528H115.143V19.824H122.951C123.676 19.824 124.039 21.488 124.039 24.816C124.039 28.1013 123.697 29.744 123.015 29.744H115.143V45.168C115.143 45.7653 114.332 46.1493 112.711 46.32C111.132 46.5333 109.809 46.64 108.743 46.64L105.735 46.512C103.644 46.256 102.599 45.8293 102.599 45.232V2.864C102.599 2.18133 102.727 1.73333 102.983 1.52C103.281 1.30666 103.708 1.2 104.263 1.2H126.855ZM152.114 46.64C146.141 46.64 141.256 44.6773 137.458 40.752C133.704 36.8267 131.826 31.1093 131.826 23.6C131.826 16.048 133.725 10.3307 137.522 6.448C141.362 2.56533 146.29 0.623997 152.306 0.623997C158.365 0.623997 163.25 2.544 166.962 6.384C170.674 10.1813 172.53 15.9627 172.53 23.728C172.53 31.4507 170.632 37.2107 166.834 41.008C163.037 44.7627 158.13 46.64 152.114 46.64ZM152.178 12.912C150.13 12.912 148.402 13.8507 146.994 15.728C145.629 17.6053 144.946 20.2507 144.946 23.664C144.946 27.0347 145.608 29.6373 146.93 31.472C148.253 33.264 149.981 34.16 152.114 34.16C154.29 34.16 156.04 33.2427 157.362 31.408C158.728 29.5733 159.41 26.9493 159.41 23.536C159.41 20.1227 158.706 17.4987 157.298 15.664C155.933 13.8293 154.226 12.912 152.178 12.912Z"/>
</mask>
<path d="M126.855 1.2C127.58 1.2 127.943 3.09866 127.943 6.896C127.943 10.6507 127.58 12.528 126.855 12.528H115.143V19.824H122.951C123.676 19.824 124.039 21.488 124.039 24.816C124.039 28.1013 123.697 29.744 123.015 29.744H115.143V45.168C115.143 45.7653 114.332 46.1493 112.711 46.32C111.132 46.5333 109.809 46.64 108.743 46.64L105.735 46.512C103.644 46.256 102.599 45.8293 102.599 45.232V2.864C102.599 2.18133 102.727 1.73333 102.983 1.52C103.281 1.30666 103.708 1.2 104.263 1.2H126.855ZM152.114 46.64C146.141 46.64 141.256 44.6773 137.458 40.752C133.704 36.8267 131.826 31.1093 131.826 23.6C131.826 16.048 133.725 10.3307 137.522 6.448C141.362 2.56533 146.29 0.623997 152.306 0.623997C158.365 0.623997 163.25 2.544 166.962 6.384C170.674 10.1813 172.53 15.9627 172.53 23.728C172.53 31.4507 170.632 37.2107 166.834 41.008C163.037 44.7627 158.13 46.64 152.114 46.64ZM152.178 12.912C150.13 12.912 148.402 13.8507 146.994 15.728C145.629 17.6053 144.946 20.2507 144.946 23.664C144.946 27.0347 145.608 29.6373 146.93 31.472C148.253 33.264 149.981 34.16 152.114 34.16C154.29 34.16 156.04 33.2427 157.362 31.408C158.728 29.5733 159.41 26.9493 159.41 23.536C159.41 20.1227 158.706 17.4987 157.298 15.664C155.933 13.8293 154.226 12.912 152.178 12.912Z" fill="#FF0000"/>
<path d="M3.39525 30.384L4.63454 28.8142L3.41481 27.8513L2.18035 28.7953L3.39525 30.384ZM7.55525 33.008L6.57114 34.7491L6.57911 34.7536L6.58713 34.7581L7.55525 33.008ZM15.2353 30.896L13.821 32.3102L13.8518 32.3409L13.8838 32.3703L15.2353 30.896ZM12.4193 29.168L11.5704 30.9789L11.5704 30.9789L12.4193 29.168ZM9.34725 27.696L8.36673 29.4392L8.40922 29.4631L8.45282 29.4849L9.34725 27.696ZM6.59525 25.904L5.37583 27.4892L5.40951 27.5152L5.44426 27.5396L6.59525 25.904ZM4.03525 23.28L5.69935 22.1706L5.68609 22.1507L5.67236 22.1311L4.03525 23.28ZM5.63525 4.528L6.99181 5.99761L6.99274 5.99675L5.63525 4.528ZM25.1553 1.648L24.6478 3.58256L24.6627 3.58646L24.6777 3.59014L25.1553 1.648ZM29.1873 4.208H31.1873V4.12812L31.1809 4.04851L29.1873 4.208ZM27.7793 10.288L29.6265 11.0548L29.6314 11.0426L27.7793 10.288ZM25.7953 14.064L24.8787 15.8416L25.9251 16.3812L26.9046 15.7281L25.7953 14.064ZM17.6033 16.752L18.4977 14.9631L18.4682 14.9484L18.4383 14.9346L17.6033 16.752ZM19.0753 17.456L18.2295 19.2684L18.2295 19.2684L19.0753 17.456ZM21.2513 18.544L20.3198 20.3138L20.3743 20.3425L20.4305 20.3678L21.2513 18.544ZM23.9393 20.08L22.8126 21.7325L22.8552 21.7615L22.8994 21.7884L23.9393 20.08ZM27.0753 22.512L28.4477 21.0572L28.4398 21.0498L28.4318 21.0424L27.0753 22.512ZM26.6913 42.16L28.2019 43.4707L28.2019 43.4707L26.6913 42.16ZM15.0433 46.64V48.64H15.0595L15.0758 48.6397L15.0433 46.64ZM8.06725 46L7.65934 47.958L7.66733 47.9596L8.06725 46ZM2.69125 43.504L3.94591 41.9465L3.94591 41.9465L2.69125 43.504ZM1.34725 33.84L3.21991 34.5422L3.22273 34.5347L3.2255 34.5272L1.34725 33.84ZM2.15596 31.9538C3.0961 32.696 4.59818 33.634 6.57114 34.7491L8.53936 31.2669C6.58698 30.1634 5.31573 29.352 4.63454 28.8142L2.15596 31.9538ZM6.58713 34.7581C8.80805 35.9867 11.0389 36.672 13.2513 36.672V32.672C11.8796 32.672 10.3131 32.248 8.52337 31.2579L6.58713 34.7581ZM13.2513 36.672C14.3682 36.672 15.5728 36.4674 16.5329 35.7306C17.5932 34.9169 18.0033 33.735 18.0033 32.56H14.0033C14.0033 32.6975 13.9808 32.7241 13.9968 32.6872C14.018 32.6384 14.0589 32.5871 14.0976 32.5574C14.1257 32.5358 14.0998 32.5665 13.9596 32.6024C13.8166 32.639 13.5885 32.672 13.2513 32.672V36.672ZM18.0033 32.56C18.0033 31.3081 17.4726 30.2337 16.5867 29.4217L13.8838 32.3703C13.971 32.4502 13.9927 32.4963 13.9953 32.5021C13.9974 32.5067 13.9986 32.5101 13.9996 32.5151C14.0008 32.5203 14.0033 32.5342 14.0033 32.56H18.0033ZM16.6495 29.4818C15.8765 28.7088 14.6664 28.0125 13.2681 27.3571L11.5704 30.9789C12.9027 31.6035 13.57 32.0592 13.821 32.3102L16.6495 29.4818ZM13.2681 27.3571C11.9064 26.7188 10.901 26.2368 10.2417 25.9071L8.45282 29.4849C9.15886 29.8379 10.2014 30.3372 11.5704 30.9789L13.2681 27.3571ZM10.3278 25.9528C9.73242 25.618 8.87917 25.0656 7.74624 24.2684L5.44426 27.5396C6.61533 28.3637 7.59675 29.006 8.36673 29.4392L10.3278 25.9528ZM7.81467 24.3188C6.82951 23.5609 6.14532 22.8396 5.69935 22.1706L2.37115 24.3894C3.11985 25.5124 4.14232 26.5404 5.37583 27.4892L7.81467 24.3188ZM5.67236 22.1311C4.25751 20.115 3.47525 17.4524 3.47525 14H-0.52475C-0.52475 18.057 0.399661 21.581 2.39814 24.4289L5.67236 22.1311ZM3.47525 14C3.47525 10.8068 4.6262 8.18125 6.99181 5.99761L4.27869 3.05839C1.09763 5.99475 -0.52475 9.68383 -0.52475 14H3.47525ZM6.99274 5.99675C9.37425 3.79566 12.5278 2.624 16.6433 2.624V-1.376C11.7134 -1.376 7.52826 0.0550041 4.27777 3.05925L6.99274 5.99675ZM16.6433 2.624C19.5677 2.624 22.2323 2.94897 24.6478 3.58256L25.6627 -0.28656C22.8729 -1.0183 19.8628 -1.376 16.6433 -1.376V2.624ZM24.6777 3.59014C25.8917 3.88867 26.6373 4.19867 27.0432 4.45642C27.4538 4.71708 27.2219 4.72105 27.1936 4.36749L31.1809 4.04851C31.0673 2.62828 30.1207 1.67225 29.1873 1.07957C28.2492 0.483995 27.0215 0.0473308 25.6328 -0.294145L24.6777 3.59014ZM27.1873 4.208C27.1873 4.20825 27.1873 4.2085 27.1873 4.20875C27.1873 4.209 27.1873 4.20925 27.1873 4.2095C27.1873 4.20975 27.1873 4.21 27.1873 4.21025C27.1873 4.2105 27.1873 4.21075 27.1873 4.211C27.1873 4.21125 27.1873 4.2115 27.1873 4.21175C27.1873 4.212 27.1873 4.21225 27.1873 4.2125C27.1873 4.21275 27.1873 4.213 27.1873 4.21325C27.1873 4.2135 27.1873 4.21375 27.1873 4.214C27.1873 4.21425 27.1873 4.2145 27.1873 4.21475C27.1873 4.215 27.1873 4.21525 27.1873 4.2155C27.1873 4.21575 27.1873 4.216 27.1873 4.21625C27.1873 4.2165 27.1873 4.21675 27.1873 4.217C27.1873 4.21725 27.1873 4.2175 27.1873 4.21775C27.1873 4.218 27.1873 4.21825 27.1873 4.2185C27.1873 4.21875 27.1873 4.219 27.1873 4.21925C27.1873 4.2195 27.1873 4.21975 27.1873 4.22C27.1873 4.22025 27.1873 4.2205 27.1873 4.22075C27.1873 4.221 27.1873 4.22125 27.1873 4.2215C27.1873 4.22175 27.1873 4.222 27.1873 4.22225C27.1873 4.2225 27.1873 4.22275 27.1873 4.223C27.1873 4.22325 27.1873 4.2235 27.1873 4.22375C27.1873 4.224 27.1873 4.22425 27.1873 4.2245C27.1873 4.22475 27.1873 4.225 27.1873 4.22525C27.1873 4.2255 27.1873 4.22575 27.1873 4.226C27.1873 4.22625 27.1873 4.2265 27.1873 4.22675C27.1873 4.227 27.1873 4.22725 27.1873 4.2275C27.1873 4.22775 27.1873 4.228 27.1873 4.22825C27.1873 4.2285 27.1873 4.22875 27.1873 4.229C27.1873 4.22925 27.1873 4.2295 27.1873 4.22975C27.1873 4.23 27.1873 4.23025 27.1873 4.2305C27.1873 4.23075 27.1873 4.231 27.1873 4.23125C27.1873 4.2315 27.1873 4.23175 27.1873 4.232C27.1873 4.23225 27.1873 4.2325 27.1873 4.23275C27.1873 4.233 27.1873 4.23325 27.1873 4.2335C27.1873 4.23375 27.1873 4.234 27.1873 4.23425C27.1873 4.2345 27.1873 4.23475 27.1873 4.235C27.1873 4.23525 27.1873 4.2355 27.1873 4.23575C27.1873 4.236 27.1873 4.23625 27.1873 4.2365C27.1873 4.23675 27.1873 4.237 27.1873 4.23725C27.1873 4.2375 27.1873 4.23775 27.1873 4.238C27.1873 4.23825 27.1873 4.2385 27.1873 4.23875C27.1873 4.239 27.1873 4.23925 27.1873 4.2395C27.1873 4.23975 27.1873 4.24 27.1873 4.24025C27.1873 4.2405 27.1873 4.24075 27.1873 4.241C27.1873 4.24125 27.1873 4.2415 27.1873 4.24175C27.1873 4.242 27.1873 4.24225 27.1873 4.2425C27.1873 4.24275 27.1873 4.243 27.1873 4.24325C27.1873 4.2435 27.1873 4.24375 27.1873 4.244C27.1873 4.24425 27.1873 4.2445 27.1873 4.24475C27.1873 4.245 27.1873 4.24525 27.1873 4.2455C27.1873 4.24575 27.1873 4.246 27.1873 4.24625C27.1873 4.2465 27.1873 4.24675 27.1873 4.247C27.1873 4.24725 27.1873 4.2475 27.1873 4.24775C27.1873 4.248 27.1873 4.24825 27.1873 4.2485C27.1873 4.24875 27.1873 4.249 27.1873 4.24925C27.1873 4.2495 27.1873 4.24975 27.1873 4.25C27.1873 4.25025 27.1873 4.2505 27.1873 4.25075C27.1873 4.251 27.1873 4.25125 27.1873 4.2515C27.1873 4.25175 27.1873 4.252 27.1873 4.25225C27.1873 4.2525 27.1873 4.25275 27.1873 4.253C27.1873 4.25325 27.1873 4.2535 27.1873 4.25375C27.1873 4.254 27.1873 4.25425 27.1873 4.2545C27.1873 4.25475 27.1873 4.255 27.1873 4.25525C27.1873 4.2555 27.1873 4.25575 27.1873 4.256C27.1873 4.25625 27.1873 4.2565 27.1873 4.25675C27.1873 4.257 27.1873 4.25725 27.1873 4.2575C27.1873 4.25775 27.1873 4.258 27.1873 4.25825C27.1873 4.2585 27.1873 4.25875 27.1873 4.259C27.1873 4.25925 27.1873 4.2595 27.1873 4.25975C27.1873 4.26 27.1873 4.26025 27.1873 4.2605C27.1873 4.26075 27.1873 4.261 27.1873 4.26125C27.1873 4.2615 27.1873 4.26175 27.1873 4.262C27.1873 4.26225 27.1873 4.2625 27.1873 4.26275C27.1873 4.263 27.1873 4.26325 27.1873 4.2635C27.1873 4.26375 27.1873 4.264 27.1873 4.26425C27.1873 4.2645 27.1873 4.26475 27.1873 4.265C27.1873 4.26525 27.1873 4.2655 27.1873 4.26575C27.1873 4.266 27.1873 4.26625 27.1873 4.2665C27.1873 4.26675 27.1873 4.267 27.1873 4.26725C27.1873 4.2675 27.1873 4.26775 27.1873 4.268C27.1873 4.26825 27.1873 4.2685 27.1873 4.26875C27.1873 4.269 27.1873 4.26925 27.1873 4.2695C27.1873 4.26975 27.1873 4.27 27.1873 4.27025C27.1873 4.2705 27.1873 4.27075 27.1873 4.271C27.1873 4.27125 27.1873 4.2715 27.1873 4.27175C27.1873 4.272 27.1873 4.27225 27.1873 4.2725C27.1873 4.27275 27.1873 4.273 27.1873 4.27325C27.1873 4.2735 27.1873 4.27375 27.1873 4.274C27.1873 4.27425 27.1873 4.2745 27.1873 4.27475C27.1873 4.275 27.1873 4.27525 27.1873 4.2755C27.1873 4.27575 27.1873 4.276 27.1873 4.27625C27.1873 4.2765 27.1873 4.27675 27.1873 4.277C27.1873 4.27725 27.1873 4.2775 27.1873 4.27775C27.1873 4.278 27.1873 4.27825 27.1873 4.2785C27.1873 4.27875 27.1873 4.279 27.1873 4.27925C27.1873 4.2795 27.1873 4.27975 27.1873 4.28C27.1873 4.28025 27.1873 4.2805 27.1873 4.28075C27.1873 4.281 27.1873 4.28125 27.1873 4.2815C27.1873 4.28175 27.1873 4.282 27.1873 4.28225C27.1873 4.2825 27.1873 4.28275 27.1873 4.283C27.1873 4.28325 27.1873 4.2835 27.1873 4.28375C27.1873 4.284 27.1873 4.28425 27.1873 4.2845C27.1873 4.28475 27.1873 4.285 27.1873 4.28525C27.1873 4.2855 27.1873 4.28575 27.1873 4.286C27.1873 4.28625 27.1873 4.2865 27.1873 4.28675C27.1873 4.287 27.1873 4.28725 27.1873 4.2875C27.1873 4.28775 27.1873 4.288 27.1873 4.28825C27.1873 4.2885 27.1873 4.28875 27.1873 4.289C27.1873 4.28925 27.1873 4.2895 27.1873 4.28975C27.1873 4.29 27.1873 4.29025 27.1873 4.2905C27.1873 4.29075 27.1873 4.291 27.1873 4.29125C27.1873 4.2915 27.1873 4.29175 27.1873 4.292C27.1873 4.29225 27.1873 4.2925 27.1873 4.29275C27.1873 4.293 27.1873 4.29325 27.1873 4.2935C27.1873 4.29375 27.1873 4.294 27.1873 4.29425C27.1873 4.2945 27.1873 4.29475 27.1873 4.295C27.1873 4.29525 27.1873 4.2955 27.1873 4.29575C27.1873 4.296 27.1873 4.29625 27.1873 4.2965C27.1873 4.29675 27.1873 4.297 27.1873 4.29725C27.1873 4.2975 27.1873 4.29775 27.1873 4.298C27.1873 4.29825 27.1873 4.2985 27.1873 4.29875C27.1873 4.299 27.1873 4.29925 27.1873 4.2995C27.1873 4.29975 27.1873 4.3 27.1873 4.30025C27.1873 4.3005 27.1873 4.30075 27.1873 4.301C27.1873 4.30125 27.1873 4.3015 27.1873 4.30175C27.1873 4.302 27.1873 4.30225 27.1873 4.3025C27.1873 4.30275 27.1873 4.303 27.1873 4.30325C27.1873 4.3035 27.1873 4.30375 27.1873 4.304C27.1873 4.30425 27.1873 4.3045 27.1873 4.30475C27.1873 4.305 27.1873 4.30525 27.1873 4.3055C27.1873 4.30575 27.1873 4.306 27.1873 4.30625C27.1873 4.3065 27.1873 4.30675 27.1873 4.307C27.1873 4.30725 27.1873 4.3075 27.1873 4.30775C27.1873 4.308 27.1873 4.30825 27.1873 4.3085C27.1873 4.30875 27.1873 4.309 27.1873 4.30925C27.1873 4.3095 27.1873 4.30975 27.1873 4.31C27.1873 4.31025 27.1873 4.3105 27.1873 4.31075C27.1873 4.311 27.1873 4.31125 27.1873 4.3115C27.1873 4.31175 27.1873 4.312 27.1873 4.31225C27.1873 4.3125 27.1873 4.31275 27.1873 4.313C27.1873 4.31325 27.1873 4.3135 27.1873 4.31375C27.1873 4.314 27.1873 4.31425 27.1873 4.3145C27.1873 4.31475 27.1873 4.315 27.1873 4.31525C27.1873 4.3155 27.1873 4.31575 27.1873 4.316C27.1873 4.31625 27.1873 4.3165 27.1873 4.31675C27.1873 4.317 27.1873 4.31725 27.1873 4.3175C27.1873 4.31775 27.1873 4.318 27.1873 4.31825C27.1873 4.3185 27.1873 4.31875 27.1873 4.319C27.1873 4.31925 27.1873 4.3195 27.1873 4.31975C27.1873 4.32 27.1873 4.32025 27.1873 4.3205C27.1873 4.32075 27.1873 4.321 27.1873 4.32125C27.1873 4.3215 27.1873 4.32175 27.1873 4.322C27.1873 4.32225 27.1873 4.3225 27.1873 4.32275C27.1873 4.323 27.1873 4.32325 27.1873 4.3235C27.1873 4.32375 27.1873 4.324 27.1873 4.32425C27.1873 4.3245 27.1873 4.32475 27.1873 4.325C27.1873 4.32525 27.1873 4.3255 27.1873 4.32575C27.1873 4.326 27.1873 4.32625 27.1873 4.3265C27.1873 4.32675 27.1873 4.327 27.1873 4.32725C27.1873 4.3275 27.1873 4.32775 27.1873 4.328C27.1873 4.32825 27.1873 4.3285 27.1873 4.32875C27.1873 4.329 27.1873 4.32925 27.1873 4.3295C27.1873 4.32975 27.1873 4.33 27.1873 4.33025C27.1873 4.3305 27.1873 4.33075 27.1873 4.331C27.1873 4.33125 27.1873 4.3315 27.1873 4.33175C27.1873 4.332 27.1873 4.33225 27.1873 4.3325C27.1873 4.33275 27.1873 4.333 27.1873 4.33325C27.1873 4.3335 27.1873 4.33375 27.1873 4.334C27.1873 4.33425 27.1873 4.3345 27.1873 4.33475C27.1873 4.335 27.1873 4.33525 27.1873 4.3355C27.1873 4.33575 27.1873 4.336 27.1873 4.33625C27.1873 4.3365 27.1873 4.33675 27.1873 4.337C27.1873 4.33725 27.1873 4.3375 27.1873 4.33775C27.1873 4.338 27.1873 4.33825 27.1873 4.3385C27.1873 4.33875 27.1873 4.339 27.1873 4.33925C27.1873 4.3395 27.1873 4.33975 27.1873 4.34C27.1873 4.34025 27.1873 4.3405 27.1873 4.34075C27.1873 4.341 27.1873 4.34125 27.1873 4.3415C27.1873 4.34175 27.1873 4.342 27.1873 4.34225C27.1873 4.3425 27.1873 4.34275 27.1873 4.343C27.1873 4.34325 27.1873 4.3435 27.1873 4.34375C27.1873 4.344 27.1873 4.34425 27.1873 4.3445C27.1873 4.34475 27.1873 4.345 27.1873 4.34525C27.1873 4.3455 27.1873 4.34575 27.1873 4.346C27.1873 4.34625 27.1873 4.3465 27.1873 4.34675C27.1873 4.347 27.1873 4.34725 27.1873 4.3475C27.1873 4.34775 27.1873 4.348 27.1873 4.34825C27.1873 4.3485 27.1873 4.34875 27.1873 4.349C27.1873 4.34925 27.1873 4.3495 27.1873 4.34975C27.1873 4.35 27.1873 4.35025 27.1873 4.3505C27.1873 4.35075 27.1873 4.351 27.1873 4.35125C27.1873 4.3515 27.1873 4.35175 27.1873 4.352C27.1873 4.35225 27.1873 4.3525 27.1873 4.35275C27.1873 4.353 27.1873 4.35325 27.1873 4.3535C27.1873 4.35375 27.1873 4.354 27.1873 4.35425C27.1873 4.3545 27.1873 4.35475 27.1873 4.355C27.1873 4.35525 27.1873 4.3555 27.1873 4.35575C27.1873 4.356 27.1873 4.35625 27.1873 4.3565C27.1873 4.35675 27.1873 4.357 27.1873 4.35725C27.1873 4.3575 27.1873 4.35775 27.1873 4.358C27.1873 4.35825 27.1873 4.3585 27.1873 4.35875C27.1873 4.359 27.1873 4.35925 27.1873 4.3595C27.1873 4.35975 27.1873 4.36 27.1873 4.36025C27.1873 4.3605 27.1873 4.36075 27.1873 4.361C27.1873 4.36125 27.1873 4.3615 27.1873 4.36175C27.1873 4.362 27.1873 4.36225 27.1873 4.3625C27.1873 4.36275 27.1873 4.363 27.1873 4.36325C27.1873 4.3635 27.1873 4.36375 27.1873 4.364C27.1873 4.36425 27.1873 4.3645 27.1873 4.36475C27.1873 4.365 27.1873 4.36525 27.1873 4.3655C27.1873 4.36575 27.1873 4.366 27.1873 4.36625C27.1873 4.3665 27.1873 4.36675 27.1873 4.367C27.1873 4.36725 27.1873 4.3675 27.1873 4.36775C27.1873 4.368 27.1873 4.36825 27.1873 4.3685C27.1873 4.36875 27.1873 4.369 27.1873 4.36925C27.1873 4.3695 27.1873 4.36975 27.1873 4.37C27.1873 4.37025 27.1873 4.3705 27.1873 4.37075C27.1873 4.371 27.1873 4.37125 27.1873 4.3715C27.1873 4.37175 27.1873 4.372 27.1873 4.37225C27.1873 4.3725 27.1873 4.37275 27.1873 4.373C27.1873 4.37325 27.1873 4.3735 27.1873 4.37375C27.1873 4.374 27.1873 4.37425 27.1873 4.3745C27.1873 4.37475 27.1873 4.375 27.1873 4.37525C27.1873 4.3755 27.1873 4.37575 27.1873 4.376C27.1873 4.37625 27.1873 4.3765 27.1873 4.37675C27.1873 4.377 27.1873 4.37725 27.1873 4.3775C27.1873 4.37775 27.1873 4.378 27.1873 4.37825C27.1873 4.3785 27.1873 4.37875 27.1873 4.379C27.1873 4.37925 27.1873 4.3795 27.1873 4.37975C27.1873 4.38 27.1873 4.38025 27.1873 4.3805C27.1873 4.38075 27.1873 4.381 27.1873 4.38125C27.1873 4.3815 27.1873 4.38175 27.1873 4.382C27.1873 4.38225 27.1873 4.3825 27.1873 4.38275C27.1873 4.383 27.1873 4.38325 27.1873 4.3835C27.1873 4.38375 27.1873 4.384 27.1873 4.38425C27.1873 4.3845 27.1873 4.38475 27.1873 4.385C27.1873 4.38525 27.1873 4.3855 27.1873 4.38575C27.1873 4.386 27.1873 4.38625 27.1873 4.3865C27.1873 4.38675 27.1873 4.387 27.1873 4.38725C27.1873 4.3875 27.1873 4.38775 27.1873 4.388C27.1873 4.38825 27.1873 4.3885 27.1873 4.38875C27.1873 4.389 27.1873 4.38925 27.1873 4.3895C27.1873 4.38975 27.1873 4.39 27.1873 4.39025C27.1873 4.3905 27.1873 4.39075 27.1873 4.391C27.1873 4.39125 27.1873 4.3915 27.1873 4.39175C27.1873 4.392 27.1873 4.39225 27.1873 4.3925C27.1873 4.39275 27.1873 4.393 27.1873 4.39325C27.1873 4.3935 27.1873 4.39375 27.1873 4.394C27.1873 4.39425 27.1873 4.3945 27.1873 4.39475C27.1873 4.395 27.1873 4.39525 27.1873 4.3955C27.1873 4.39575 27.1873 4.396 27.1873 4.39625C27.1873 4.3965 27.1873 4.39675 27.1873 4.397C27.1873 4.39725 27.1873 4.3975 27.1873 4.39775C27.1873 4.398 27.1873 4.39825 27.1873 4.3985C27.1873 4.39875 27.1873 4.399 27.1873 4.39925C27.1873 4.3995 27.1873 4.39975 27.1873 4.4C27.1873 4.40025 27.1873 4.4005 27.1873 4.40075C27.1873 4.401 27.1873 4.40125 27.1873 4.4015C27.1873 4.40175 27.1873 4.402 27.1873 4.40225C27.1873 4.4025 27.1873 4.40275 27.1873 4.403C27.1873 4.40325 27.1873 4.4035 27.1873 4.40375C27.1873 4.404 27.1873 4.40425 27.1873 4.4045C27.1873 4.40475 27.1873 4.405 27.1873 4.40525C27.1873 4.4055 27.1873 4.40575 27.1873 4.406C27.1873 4.40625 27.1873 4.4065 27.1873 4.40675C27.1873 4.407 27.1873 4.40725 27.1873 4.4075C27.1873 4.40775 27.1873 4.408 27.1873 4.40825C27.1873 4.4085 27.1873 4.40875 27.1873 4.409C27.1873 4.40925 27.1873 4.4095 27.1873 4.40975C27.1873 4.41 27.1873 4.41025 27.1873 4.4105C27.1873 4.41075 27.1873 4.411 27.1873 4.41125C27.1873 4.4115 27.1873 4.41175 27.1873 4.412C27.1873 4.41225 27.1873 4.4125 27.1873 4.41275C27.1873 4.413 27.1873 4.41325 27.1873 4.4135C27.1873 4.41375 27.1873 4.414 27.1873 4.41425C27.1873 4.4145 27.1873 4.41475 27.1873 4.415C27.1873 4.41525 27.1873 4.4155 27.1873 4.41575C27.1873 4.416 27.1873 4.41625 27.1873 4.4165C27.1873 4.41675 27.1873 4.417 27.1873 4.41725C27.1873 4.4175 27.1873 4.41775 27.1873 4.418C27.1873 4.41825 27.1873 4.4185 27.1873 4.41875C27.1873 4.419 27.1873 4.41925 27.1873 4.4195C27.1873 4.41975 27.1873 4.42 27.1873 4.42025C27.1873 4.4205 27.1873 4.42075 27.1873 4.421C27.1873 4.42125 27.1873 4.4215 27.1873 4.42175C27.1873 4.422 27.1873 4.42225 27.1873 4.4225C27.1873 4.42275 27.1873 4.423 27.1873 4.42325C27.1873 4.4235 27.1873 4.42375 27.1873 4.424C27.1873 4.42425 27.1873 4.4245 27.1873 4.42475C27.1873 4.425 27.1873 4.42525 27.1873 4.4255C27.1873 4.42575 27.1873 4.426 27.1873 4.42625C27.1873 4.4265 27.1873 4.42675 27.1873 4.427C27.1873 4.42725 27.1873 4.4275 27.1873 4.42775C27.1873 4.428 27.1873 4.42825 27.1873 4.4285C27.1873 4.42875 27.1873 4.429 27.1873 4.42925C27.1873 4.4295 27.1873 4.42975 27.1873 4.43C27.1873 4.43025 27.1873 4.4305 27.1873 4.43075C27.1873 4.431 27.1873 4.43125 27.1873 4.4315C27.1873 4.43175 27.1873 4.432 27.1873 4.43225C27.1873 4.4325 27.1873 4.43275 27.1873 4.433C27.1873 4.43325 27.1873 4.4335 27.1873 4.43375C27.1873 4.434 27.1873 4.43425 27.1873 4.4345C27.1873 4.43475 27.1873 4.435 27.1873 4.43525C27.1873 4.4355 27.1873 4.43575 27.1873 4.436C27.1873 4.43625 27.1873 4.4365 27.1873 4.43675C27.1873 4.437 27.1873 4.43725 27.1873 4.4375C27.1873 4.43775 27.1873 4.438 27.1873 4.43825C27.1873 4.4385 27.1873 4.43875 27.1873 4.439C27.1873 4.43925 27.1873 4.4395 27.1873 4.43975C27.1873 4.44 27.1873 4.44025 27.1873 4.4405C27.1873 4.44075 27.1873 4.441 27.1873 4.44125C27.1873 4.4415 27.1873 4.44175 27.1873 4.442C27.1873 4.44225 27.1873 4.4425 27.1873 4.44275C27.1873 4.443 27.1873 4.44325 27.1873 4.4435C27.1873 4.44375 27.1873 4.444 27.1873 4.44425C27.1873 4.4445 27.1873 4.44475 27.1873 4.445C27.1873 4.44525 27.1873 4.4455 27.1873 4.44575C27.1873 4.446 27.1873 4.44625 27.1873 4.4465C27.1873 4.44675 27.1873 4.447 27.1873 4.44725C27.1873 4.4475 27.1873 4.44775 27.1873 4.448C27.1873 4.44825 27.1873 4.4485 27.1873 4.44875C27.1873 4.449 27.1873 4.44925 27.1873 4.4495C27.1873 4.44975 27.1873 4.45 27.1873 4.45025C27.1873 4.4505 27.1873 4.45075 27.1873 4.451C27.1873 4.45125 27.1873 4.4515 27.1873 4.45175C27.1873 4.452 27.1873 4.45225 27.1873 4.4525C27.1873 4.45275 27.1873 4.453 27.1873 4.45325C27.1873 4.4535 27.1873 4.45375 27.1873 4.454C27.1873 4.45425 27.1873 4.4545 27.1873 4.45475C27.1873 4.455 27.1873 4.45525 27.1873 4.4555C27.1873 4.45575 27.1873 4.456 27.1873 4.45625C27.1873 4.4565 27.1873 4.45675 27.1873 4.457C27.1873 4.45725 27.1873 4.4575 27.1873 4.45775C27.1873 4.458 27.1873 4.45825 27.1873 4.4585C27.1873 4.45875 27.1873 4.459 27.1873 4.45925C27.1873 4.4595 27.1873 4.45975 27.1873 4.46C27.1873 4.46025 27.1873 4.4605 27.1873 4.46075C27.1873 4.461 27.1873 4.46125 27.1873 4.4615C27.1873 4.46175 27.1873 4.462 27.1873 4.46225C27.1873 4.4625 27.1873 4.46275 27.1873 4.463C27.1873 4.46325 27.1873 4.4635 27.1873 4.46375C27.1873 4.464 27.1873 4.46425 27.1873 4.4645C27.1873 4.46475 27.1873 4.465 27.1873 4.46525C27.1873 4.4655 27.1873 4.46575 27.1873 4.466C27.1873 4.46625 27.1873 4.4665 27.1873 4.46675C27.1873 4.467 27.1873 4.46725 27.1873 4.4675C27.1873 4.46775 27.1873 4.468 27.1873 4.46825C27.1873 4.4685 27.1873 4.46875 27.1873 4.469C27.1873 4.46925 27.1873 4.4695 27.1873 4.46975C27.1873 4.47 27.1873 4.47025 27.1873 4.4705C27.1873 4.47075 27.1873 4.471 27.1873 4.47125C27.1873 4.4715 27.1873 4.47175 27.1873 4.472C27.1873 4.47225 27.1873 4.4725 27.1873 4.47275C27.1873 4.473 27.1873 4.47325 27.1873 4.4735C27.1873 4.47375 27.1873 4.474 27.1873 4.47425C27.1873 4.4745 27.1873 4.47475 27.1873 4.475C27.1873 4.47525 27.1873 4.4755 27.1873 4.47575C27.1873 4.476 27.1873 4.47625 27.1873 4.4765C27.1873 4.47675 27.1873 4.477 27.1873 4.47725C27.1873 4.4775 27.1873 4.47775 27.1873 4.478C27.1873 4.47825 27.1873 4.4785 27.1873 4.47875C27.1873 4.479 27.1873 4.47925 27.1873 4.4795C27.1873 4.47975 27.1873 4.48 27.1873 4.48025C27.1873 4.4805 27.1873 4.48075 27.1873 4.481C27.1873 4.48125 27.1873 4.4815 27.1873 4.48175C27.1873 4.482 27.1873 4.48225 27.1873 4.4825C27.1873 4.48275 27.1873 4.483 27.1873 4.48325C27.1873 4.4835 27.1873 4.48375 27.1873 4.484C27.1873 4.48425 27.1873 4.4845 27.1873 4.48475C27.1873 4.485 27.1873 4.48525 27.1873 4.4855C27.1873 4.48575 27.1873 4.486 27.1873 4.48625C27.1873 4.4865 27.1873 4.48675 27.1873 4.487C27.1873 4.48725 27.1873 4.4875 27.1873 4.48775C27.1873 4.488 27.1873 4.48825 27.1873 4.4885C27.1873 4.48875 27.1873 4.489 27.1873 4.48925C27.1873 4.4895 27.1873 4.48975 27.1873 4.49C27.1873 4.49025 27.1873 4.4905 27.1873 4.49075C27.1873 4.491 27.1873 4.49125 27.1873 4.4915C27.1873 4.49175 27.1873 4.492 27.1873 4.49225C27.1873 4.4925 27.1873 4.49275 27.1873 4.493C27.1873 4.49325 27.1873 4.4935 27.1873 4.49375C27.1873 4.494 27.1873 4.49425 27.1873 4.4945C27.1873 4.49475 27.1873 4.495 27.1873 4.49525C27.1873 4.4955 27.1873 4.49575 27.1873 4.496C27.1873 4.49625 27.1873 4.4965 27.1873 4.49675C27.1873 4.497 27.1873 4.49725 27.1873 4.4975C27.1873 4.49775 27.1873 4.498 27.1873 4.49825C27.1873 4.4985 27.1873 4.49875 27.1873 4.499C27.1873 4.49925 27.1873 4.4995 27.1873 4.49975C27.1873 4.5 27.1873 4.50025 27.1873 4.5005C27.1873 4.50075 27.1873 4.501 27.1873 4.50125C27.1873 4.5015 27.1873 4.50175 27.1873 4.502C27.1873 4.50225 27.1873 4.5025 27.1873 4.50275C27.1873 4.503 27.1873 4.50325 27.1873 4.5035C27.1873 4.50375 27.1873 4.504 27.1873 4.50425C27.1873 4.5045 27.1873 4.50475 27.1873 4.505C27.1873 4.50525 27.1873 4.5055 27.1873 4.50575C27.1873 4.506 27.1873 4.50625 27.1873 4.5065C27.1873 4.50675 27.1873 4.507 27.1873 4.50725C27.1873 4.5075 27.1873 4.50775 27.1873 4.508C27.1873 4.50825 27.1873 4.5085 27.1873 4.50875C27.1873 4.509 27.1873 4.50925 27.1873 4.5095C27.1873 4.50975 27.1873 4.51 27.1873 4.51025C27.1873 4.5105 27.1873 4.51075 27.1873 4.511C27.1873 4.51125 27.1873 4.5115 27.1873 4.51175C27.1873 4.512 27.1873 4.51225 27.1873 4.5125C27.1873 4.51275 27.1873 4.513 27.1873 4.51325C27.1873 4.5135 27.1873 4.51375 27.1873 4.514C27.1873 4.51425 27.1873 4.5145 27.1873 4.51475C27.1873 4.515 27.1873 4.51525 27.1873 4.5155C27.1873 4.51575 27.1873 4.516 27.1873 4.51625C27.1873 4.5165 27.1873 4.51675 27.1873 4.517C27.1873 4.51725 27.1873 4.5175 27.1873 4.51775C27.1873 4.518 27.1873 4.51825 27.1873 4.5185C27.1873 4.51875 27.1873 4.519 27.1873 4.51925C27.1873 4.5195 27.1873 4.51975 27.1873 4.52C27.1873 4.52025 27.1873 4.5205 27.1873 4.52075C27.1873 4.521 27.1873 4.52125 27.1873 4.5215C27.1873 4.52175 27.1873 4.522 27.1873 4.52225C27.1873 4.5225 27.1873 4.52275 27.1873 4.523C27.1873 4.52325 27.1873 4.5235 27.1873 4.52375C27.1873 4.524 27.1873 4.52425 27.1873 4.5245C27.1873 4.52475 27.1873 4.525 27.1873 4.52525C27.1873 4.5255 27.1873 4.52575 27.1873 4.526C27.1873 4.52625 27.1873 4.5265 27.1873 4.52675C27.1873 4.527 27.1873 4.52725 27.1873 4.5275C27.1873 4.52775 27.1873 4.528 27.1873 4.52825C27.1873 4.5285 27.1873 4.52875 27.1873 4.529C27.1873 4.52925 27.1873 4.5295 27.1873 4.52975C27.1873 4.53 27.1873 4.53025 27.1873 4.5305C27.1873 4.53075 27.1873 4.531 27.1873 4.53125C27.1873 4.5315 27.1873 4.53175 27.1873 4.532C27.1873 4.53225 27.1873 4.5325 27.1873 4.53275C27.1873 4.533 27.1873 4.53325 27.1873 4.5335C27.1873 4.53375 27.1873 4.534 27.1873 4.53425C27.1873 4.5345 27.1873 4.53475 27.1873 4.535C27.1873 4.53525 27.1873 4.5355 27.1873 4.53575C27.1873 4.536 27.1873 4.53625 27.1873 4.5365C27.1873 4.53675 27.1873 4.537 27.1873 4.53725C27.1873 4.5375 27.1873 4.53775 27.1873 4.538C27.1873 4.53825 27.1873 4.5385 27.1873 4.53875C27.1873 4.539 27.1873 4.53925 27.1873 4.5395C27.1873 4.53975 27.1873 4.54 27.1873 4.54025C27.1873 4.5405 27.1873 4.54075 27.1873 4.541C27.1873 4.54125 27.1873 4.5415 27.1873 4.54175C27.1873 4.542 27.1873 4.54225 27.1873 4.5425C27.1873 4.54275 27.1873 4.543 27.1873 4.54325C27.1873 4.5435 27.1873 4.54375 27.1873 4.544C27.1873 4.54425 27.1873 4.5445 27.1873 4.54475C27.1873 4.545 27.1873 4.54525 27.1873 4.5455C27.1873 4.54575 27.1873 4.546 27.1873 4.54625C27.1873 4.5465 27.1873 4.54675 27.1873 4.547C27.1873 4.54725 27.1873 4.5475 27.1873 4.54775C27.1873 4.548 27.1873 4.54825 27.1873 4.5485C27.1873 4.54875 27.1873 4.549 27.1873 4.54925C27.1873 4.5495 27.1873 4.54975 27.1873 4.55C27.1873 4.55025 27.1873 4.5505 27.1873 4.55075C27.1873 4.551 27.1873 4.55125 27.1873 4.5515C27.1873 4.55175 27.1873 4.552 27.1873 4.55225C27.1873 4.5525 27.1873 4.55275 27.1873 4.553C27.1873 4.55325 27.1873 4.5535 27.1873 4.55375C27.1873 4.554 27.1873 4.55425 27.1873 4.5545C27.1873 4.55475 27.1873 4.555 27.1873 4.55525C27.1873 4.5555 27.1873 4.55575 27.1873 4.556C27.1873 4.55625 27.1873 4.5565 27.1873 4.55675C27.1873 4.557 27.1873 4.55725 27.1873 4.5575C27.1873 4.55775 27.1873 4.558 27.1873 4.55825C27.1873 4.5585 27.1873 4.55875 27.1873 4.559C27.1873 4.55925 27.1873 4.5595 27.1873 4.55975C27.1873 4.56 27.1873 4.56025 27.1873 4.5605C27.1873 4.56075 27.1873 4.561 27.1873 4.56125C27.1873 4.5615 27.1873 4.56175 27.1873 4.562C27.1873 4.56225 27.1873 4.5625 27.1873 4.56275C27.1873 4.563 27.1873 4.56325 27.1873 4.5635C27.1873 4.56375 27.1873 4.564 27.1873 4.56425C27.1873 4.5645 27.1873 4.56475 27.1873 4.565C27.1873 4.56525 27.1873 4.5655 27.1873 4.56575C27.1873 4.566 27.1873 4.56625 27.1873 4.5665C27.1873 4.56675 27.1873 4.567 27.1873 4.56725C27.1873 4.5675 27.1873 4.56775 27.1873 4.568C27.1873 4.56825 27.1873 4.5685 27.1873 4.56875C27.1873 4.569 27.1873 4.56925 27.1873 4.5695C27.1873 4.56975 27.1873 4.57 27.1873 4.57025C27.1873 4.5705 27.1873 4.57075 27.1873 4.571C27.1873 4.57125 27.1873 4.5715 27.1873 4.57175C27.1873 4.572 27.1873 4.57225 27.1873 4.5725C27.1873 4.57275 27.1873 4.573 27.1873 4.57325C27.1873 4.5735 27.1873 4.57375 27.1873 4.574C27.1873 4.57425 27.1873 4.5745 27.1873 4.57475C27.1873 4.575 27.1873 4.57525 27.1873 4.5755C27.1873 4.57575 27.1873 4.576 27.1873 4.57625C27.1873 4.5765 27.1873 4.57675 27.1873 4.577C27.1873 4.57725 27.1873 4.5775 27.1873 4.57775C27.1873 4.578 27.1873 4.57825 27.1873 4.5785C27.1873 4.57875 27.1873 4.579 27.1873 4.57925C27.1873 4.5795 27.1873 4.57975 27.1873 4.58C27.1873 4.58025 27.1873 4.5805 27.1873 4.58075C27.1873 4.581 27.1873 4.58125 27.1873 4.5815C27.1873 4.58175 27.1873 4.582 27.1873 4.58225C27.1873 4.5825 27.1873 4.58275 27.1873 4.583C27.1873 4.58325 27.1873 4.5835 27.1873 4.58375C27.1873 4.584 27.1873 4.58425 27.1873 4.5845C27.1873 4.58475 27.1873 4.585 27.1873 4.58525C27.1873 4.5855 27.1873 4.58575 27.1873 4.586C27.1873 4.58625 27.1873 4.5865 27.1873 4.58675C27.1873 4.587 27.1873 4.58725 27.1873 4.5875C27.1873 4.58775 27.1873 4.588 27.1873 4.58825C27.1873 4.5885 27.1873 4.58875 27.1873 4.589C27.1873 4.58925 27.1873 4.5895 27.1873 4.58975C27.1873 4.59 27.1873 4.59025 27.1873 4.5905C27.1873 4.59075 27.1873 4.591 27.1873 4.59125C27.1873 4.5915 27.1873 4.59175 27.1873 4.592H31.1873C31.1873 4.59175 31.1873 4.5915 31.1873 4.59125C31.1873 4.591 31.1873 4.59075 31.1873 4.5905C31.1873 4.59025 31.1873 4.59 31.1873 4.58975C31.1873 4.5895 31.1873 4.58925 31.1873 4.589C31.1873 4.58875 31.1873 4.5885 31.1873 4.58825C31.1873 4.588 31.1873 4.58775 31.1873 4.5875C31.1873 4.58725 31.1873 4.587 31.1873 4.58675C31.1873 4.5865 31.1873 4.58625 31.1873 4.586C31.1873 4.58575 31.1873 4.5855 31.1873 4.58525C31.1873 4.585 31.1873 4.58475 31.1873 4.5845C31.1873 4.58425 31.1873 4.584 31.1873 4.58375C31.1873 4.5835 31.1873 4.58325 31.1873 4.583C31.1873 4.58275 31.1873 4.5825 31.1873 4.58225C31.1873 4.582 31.1873 4.58175 31.1873 4.5815C31.1873 4.58125 31.1873 4.581 31.1873 4.58075C31.1873 4.5805 31.1873 4.58025 31.1873 4.58C31.1873 4.57975 31.1873 4.5795 31.1873 4.57925C31.1873 4.579 31.1873 4.57875 31.1873 4.5785C31.1873 4.57825 31.1873 4.578 31.1873 4.57775C31.1873 4.5775 31.1873 4.57725 31.1873 4.577C31.1873 4.57675 31.1873 4.5765 31.1873 4.57625C31.1873 4.576 31.1873 4.57575 31.1873 4.5755C31.1873 4.57525 31.1873 4.575 31.1873 4.57475C31.1873 4.5745 31.1873 4.57425 31.1873 4.574C31.1873 4.57375 31.1873 4.5735 31.1873 4.57325C31.1873 4.573 31.1873 4.57275 31.1873 4.5725C31.1873 4.57225 31.1873 4.572 31.1873 4.57175C31.1873 4.5715 31.1873 4.57125 31.1873 4.571C31.1873 4.57075 31.1873 4.5705 31.1873 4.57025C31.1873 4.57 31.1873 4.56975 31.1873 4.5695C31.1873 4.56925 31.1873 4.569 31.1873 4.56875C31.1873 4.5685 31.1873 4.56825 31.1873 4.568C31.1873 4.56775 31.1873 4.5675 31.1873 4.56725C31.1873 4.567 31.1873 4.56675 31.1873 4.5665C31.1873 4.56625 31.1873 4.566 31.1873 4.56575C31.1873 4.5655 31.1873 4.56525 31.1873 4.565C31.1873 4.56475 31.1873 4.5645 31.1873 4.56425C31.1873 4.564 31.1873 4.56375 31.1873 4.5635C31.1873 4.56325 31.1873 4.563 31.1873 4.56275C31.1873 4.5625 31.1873 4.56225 31.1873 4.562C31.1873 4.56175 31.1873 4.5615 31.1873 4.56125C31.1873 4.561 31.1873 4.56075 31.1873 4.5605C31.1873 4.56025 31.1873 4.56 31.1873 4.55975C31.1873 4.5595 31.1873 4.55925 31.1873 4.559C31.1873 4.55875 31.1873 4.5585 31.1873 4.55825C31.1873 4.558 31.1873 4.55775 31.1873 4.5575C31.1873 4.55725 31.1873 4.557 31.1873 4.55675C31.1873 4.5565 31.1873 4.55625 31.1873 4.556C31.1873 4.55575 31.1873 4.5555 31.1873 4.55525C31.1873 4.555 31.1873 4.55475 31.1873 4.5545C31.1873 4.55425 31.1873 4.554 31.1873 4.55375C31.1873 4.5535 31.1873 4.55325 31.1873 4.553C31.1873 4.55275 31.1873 4.5525 31.1873 4.55225C31.1873 4.552 31.1873 4.55175 31.1873 4.5515C31.1873 4.55125 31.1873 4.551 31.1873 4.55075C31.1873 4.5505 31.1873 4.55025 31.1873 4.55C31.1873 4.54975 31.1873 4.5495 31.1873 4.54925C31.1873 4.549 31.1873 4.54875 31.1873 4.5485C31.1873 4.54825 31.1873 4.548 31.1873 4.54775C31.1873 4.5475 31.1873 4.54725 31.1873 4.547C31.1873 4.54675 31.1873 4.5465 31.1873 4.54625C31.1873 4.546 31.1873 4.54575 31.1873 4.5455C31.1873 4.54525 31.1873 4.545 31.1873 4.54475C31.1873 4.5445 31.1873 4.54425 31.1873 4.544C31.1873 4.54375 31.1873 4.5435 31.1873 4.54325C31.1873 4.543 31.1873 4.54275 31.1873 4.5425C31.1873 4.54225 31.1873 4.542 31.1873 4.54175C31.1873 4.5415 31.1873 4.54125 31.1873 4.541C31.1873 4.54075 31.1873 4.5405 31.1873 4.54025C31.1873 4.54 31.1873 4.53975 31.1873 4.5395C31.1873 4.53925 31.1873 4.539 31.1873 4.53875C31.1873 4.5385 31.1873 4.53825 31.1873 4.538C31.1873 4.53775 31.1873 4.5375 31.1873 4.53725C31.1873 4.537 31.1873 4.53675 31.1873 4.5365C31.1873 4.53625 31.1873 4.536 31.1873 4.53575C31.1873 4.5355 31.1873 4.53525 31.1873 4.535C31.1873 4.53475 31.1873 4.5345 31.1873 4.53425C31.1873 4.534 31.1873 4.53375 31.1873 4.5335C31.1873 4.53325 31.1873 4.533 31.1873 4.53275C31.1873 4.5325 31.1873 4.53225 31.1873 4.532C31.1873 4.53175 31.1873 4.5315 31.1873 4.53125C31.1873 4.531 31.1873 4.53075 31.1873 4.5305C31.1873 4.53025 31.1873 4.53 31.1873 4.52975C31.1873 4.5295 31.1873 4.52925 31.1873 4.529C31.1873 4.52875 31.1873 4.5285 31.1873 4.52825C31.1873 4.528 31.1873 4.52775 31.1873 4.5275C31.1873 4.52725 31.1873 4.527 31.1873 4.52675C31.1873 4.5265 31.1873 4.52625 31.1873 4.526C31.1873 4.52575 31.1873 4.5255 31.1873 4.52525C31.1873 4.525 31.1873 4.52475 31.1873 4.5245C31.1873 4.52425 31.1873 4.524 31.1873 4.52375C31.1873 4.5235 31.1873 4.52325 31.1873 4.523C31.1873 4.52275 31.1873 4.5225 31.1873 4.52225C31.1873 4.522 31.1873 4.52175 31.1873 4.5215C31.1873 4.52125 31.1873 4.521 31.1873 4.52075C31.1873 4.5205 31.1873 4.52025 31.1873 4.52C31.1873 4.51975 31.1873 4.5195 31.1873 4.51925C31.1873 4.519 31.1873 4.51875 31.1873 4.5185C31.1873 4.51825 31.1873 4.518 31.1873 4.51775C31.1873 4.5175 31.1873 4.51725 31.1873 4.517C31.1873 4.51675 31.1873 4.5165 31.1873 4.51625C31.1873 4.516 31.1873 4.51575 31.1873 4.5155C31.1873 4.51525 31.1873 4.515 31.1873 4.51475C31.1873 4.5145 31.1873 4.51425 31.1873 4.514C31.1873 4.51375 31.1873 4.5135 31.1873 4.51325C31.1873 4.513 31.1873 4.51275 31.1873 4.5125C31.1873 4.51225 31.1873 4.512 31.1873 4.51175C31.1873 4.5115 31.1873 4.51125 31.1873 4.511C31.1873 4.51075 31.1873 4.5105 31.1873 4.51025C31.1873 4.51 31.1873 4.50975 31.1873 4.5095C31.1873 4.50925 31.1873 4.509 31.1873 4.50875C31.1873 4.5085 31.1873 4.50825 31.1873 4.508C31.1873 4.50775 31.1873 4.5075 31.1873 4.50725C31.1873 4.507 31.1873 4.50675 31.1873 4.5065C31.1873 4.50625 31.1873 4.506 31.1873 4.50575C31.1873 4.5055 31.1873 4.50525 31.1873 4.505C31.1873 4.50475 31.1873 4.5045 31.1873 4.50425C31.1873 4.504 31.1873 4.50375 31.1873 4.5035C31.1873 4.50325 31.1873 4.503 31.1873 4.50275C31.1873 4.5025 31.1873 4.50225 31.1873 4.502C31.1873 4.50175 31.1873 4.5015 31.1873 4.50125C31.1873 4.501 31.1873 4.50075 31.1873 4.5005C31.1873 4.50025 31.1873 4.5 31.1873 4.49975C31.1873 4.4995 31.1873 4.49925 31.1873 4.499C31.1873 4.49875 31.1873 4.4985 31.1873 4.49825C31.1873 4.498 31.1873 4.49775 31.1873 4.4975C31.1873 4.49725 31.1873 4.497 31.1873 4.49675C31.1873 4.4965 31.1873 4.49625 31.1873 4.496C31.1873 4.49575 31.1873 4.4955 31.1873 4.49525C31.1873 4.495 31.1873 4.49475 31.1873 4.4945C31.1873 4.49425 31.1873 4.494 31.1873 4.49375C31.1873 4.4935 31.1873 4.49325 31.1873 4.493C31.1873 4.49275 31.1873 4.4925 31.1873 4.49225C31.1873 4.492 31.1873 4.49175 31.1873 4.4915C31.1873 4.49125 31.1873 4.491 31.1873 4.49075C31.1873 4.4905 31.1873 4.49025 31.1873 4.49C31.1873 4.48975 31.1873 4.4895 31.1873 4.48925C31.1873 4.489 31.1873 4.48875 31.1873 4.4885C31.1873 4.48825 31.1873 4.488 31.1873 4.48775C31.1873 4.4875 31.1873 4.48725 31.1873 4.487C31.1873 4.48675 31.1873 4.4865 31.1873 4.48625C31.1873 4.486 31.1873 4.48575 31.1873 4.4855C31.1873 4.48525 31.1873 4.485 31.1873 4.48475C31.1873 4.4845 31.1873 4.48425 31.1873 4.484C31.1873 4.48375 31.1873 4.4835 31.1873 4.48325C31.1873 4.483 31.1873 4.48275 31.1873 4.4825C31.1873 4.48225 31.1873 4.482 31.1873 4.48175C31.1873 4.4815 31.1873 4.48125 31.1873 4.481C31.1873 4.48075 31.1873 4.4805 31.1873 4.48025C31.1873 4.48 31.1873 4.47975 31.1873 4.4795C31.1873 4.47925 31.1873 4.479 31.1873 4.47875C31.1873 4.4785 31.1873 4.47825 31.1873 4.478C31.1873 4.47775 31.1873 4.4775 31.1873 4.47725C31.1873 4.477 31.1873 4.47675 31.1873 4.4765C31.1873 4.47625 31.1873 4.476 31.1873 4.47575C31.1873 4.4755 31.1873 4.47525 31.1873 4.475C31.1873 4.47475 31.1873 4.4745 31.1873 4.47425C31.1873 4.474 31.1873 4.47375 31.1873 4.4735C31.1873 4.47325 31.1873 4.473 31.1873 4.47275C31.1873 4.4725 31.1873 4.47225 31.1873 4.472C31.1873 4.47175 31.1873 4.4715 31.1873 4.47125C31.1873 4.471 31.1873 4.47075 31.1873 4.4705C31.1873 4.47025 31.1873 4.47 31.1873 4.46975C31.1873 4.4695 31.1873 4.46925 31.1873 4.469C31.1873 4.46875 31.1873 4.4685 31.1873 4.46825C31.1873 4.468 31.1873 4.46775 31.1873 4.4675C31.1873 4.46725 31.1873 4.467 31.1873 4.46675C31.1873 4.4665 31.1873 4.46625 31.1873 4.466C31.1873 4.46575 31.1873 4.4655 31.1873 4.46525C31.1873 4.465 31.1873 4.46475 31.1873 4.4645C31.1873 4.46425 31.1873 4.464 31.1873 4.46375C31.1873 4.4635 31.1873 4.46325 31.1873 4.463C31.1873 4.46275 31.1873 4.4625 31.1873 4.46225C31.1873 4.462 31.1873 4.46175 31.1873 4.4615C31.1873 4.46125 31.1873 4.461 31.1873 4.46075C31.1873 4.4605 31.1873 4.46025 31.1873 4.46C31.1873 4.45975 31.1873 4.4595 31.1873 4.45925C31.1873 4.459 31.1873 4.45875 31.1873 4.4585C31.1873 4.45825 31.1873 4.458 31.1873 4.45775C31.1873 4.4575 31.1873 4.45725 31.1873 4.457C31.1873 4.45675 31.1873 4.4565 31.1873 4.45625C31.1873 4.456 31.1873 4.45575 31.1873 4.4555C31.1873 4.45525 31.1873 4.455 31.1873 4.45475C31.1873 4.4545 31.1873 4.45425 31.1873 4.454C31.1873 4.45375 31.1873 4.4535 31.1873 4.45325C31.1873 4.453 31.1873 4.45275 31.1873 4.4525C31.1873 4.45225 31.1873 4.452 31.1873 4.45175C31.1873 4.4515 31.1873 4.45125 31.1873 4.451C31.1873 4.45075 31.1873 4.4505 31.1873 4.45025C31.1873 4.45 31.1873 4.44975 31.1873 4.4495C31.1873 4.44925 31.1873 4.449 31.1873 4.44875C31.1873 4.4485 31.1873 4.44825 31.1873 4.448C31.1873 4.44775 31.1873 4.4475 31.1873 4.44725C31.1873 4.447 31.1873 4.44675 31.1873 4.4465C31.1873 4.44625 31.1873 4.446 31.1873 4.44575C31.1873 4.4455 31.1873 4.44525 31.1873 4.445C31.1873 4.44475 31.1873 4.4445 31.1873 4.44425C31.1873 4.444 31.1873 4.44375 31.1873 4.4435C31.1873 4.44325 31.1873 4.443 31.1873 4.44275C31.1873 4.4425 31.1873 4.44225 31.1873 4.442C31.1873 4.44175 31.1873 4.4415 31.1873 4.44125C31.1873 4.441 31.1873 4.44075 31.1873 4.4405C31.1873 4.44025 31.1873 4.44 31.1873 4.43975C31.1873 4.4395 31.1873 4.43925 31.1873 4.439C31.1873 4.43875 31.1873 4.4385 31.1873 4.43825C31.1873 4.438 31.1873 4.43775 31.1873 4.4375C31.1873 4.43725 31.1873 4.437 31.1873 4.43675C31.1873 4.4365 31.1873 4.43625 31.1873 4.436C31.1873 4.43575 31.1873 4.4355 31.1873 4.43525C31.1873 4.435 31.1873 4.43475 31.1873 4.4345C31.1873 4.43425 31.1873 4.434 31.1873 4.43375C31.1873 4.4335 31.1873 4.43325 31.1873 4.433C31.1873 4.43275 31.1873 4.4325 31.1873 4.43225C31.1873 4.432 31.1873 4.43175 31.1873 4.4315C31.1873 4.43125 31.1873 4.431 31.1873 4.43075C31.1873 4.4305 31.1873 4.43025 31.1873 4.43C31.1873 4.42975 31.1873 4.4295 31.1873 4.42925C31.1873 4.429 31.1873 4.42875 31.1873 4.4285C31.1873 4.42825 31.1873 4.428 31.1873 4.42775C31.1873 4.4275 31.1873 4.42725 31.1873 4.427C31.1873 4.42675 31.1873 4.4265 31.1873 4.42625C31.1873 4.426 31.1873 4.42575 31.1873 4.4255C31.1873 4.42525 31.1873 4.425 31.1873 4.42475C31.1873 4.4245 31.1873 4.42425 31.1873 4.424C31.1873 4.42375 31.1873 4.4235 31.1873 4.42325C31.1873 4.423 31.1873 4.42275 31.1873 4.4225C31.1873 4.42225 31.1873 4.422 31.1873 4.42175C31.1873 4.4215 31.1873 4.42125 31.1873 4.421C31.1873 4.42075 31.1873 4.4205 31.1873 4.42025C31.1873 4.42 31.1873 4.41975 31.1873 4.4195C31.1873 4.41925 31.1873 4.419 31.1873 4.41875C31.1873 4.4185 31.1873 4.41825 31.1873 4.418C31.1873 4.41775 31.1873 4.4175 31.1873 4.41725C31.1873 4.417 31.1873 4.41675 31.1873 4.4165C31.1873 4.41625 31.1873 4.416 31.1873 4.41575C31.1873 4.4155 31.1873 4.41525 31.1873 4.415C31.1873 4.41475 31.1873 4.4145 31.1873 4.41425C31.1873 4.414 31.1873 4.41375 31.1873 4.4135C31.1873 4.41325 31.1873 4.413 31.1873 4.41275C31.1873 4.4125 31.1873 4.41225 31.1873 4.412C31.1873 4.41175 31.1873 4.4115 31.1873 4.41125C31.1873 4.411 31.1873 4.41075 31.1873 4.4105C31.1873 4.41025 31.1873 4.41 31.1873 4.40975C31.1873 4.4095 31.1873 4.40925 31.1873 4.409C31.1873 4.40875 31.1873 4.4085 31.1873 4.40825C31.1873 4.408 31.1873 4.40775 31.1873 4.4075C31.1873 4.40725 31.1873 4.407 31.1873 4.40675C31.1873 4.4065 31.1873 4.40625 31.1873 4.406C31.1873 4.40575 31.1873 4.4055 31.1873 4.40525C31.1873 4.405 31.1873 4.40475 31.1873 4.4045C31.1873 4.40425 31.1873 4.404 31.1873 4.40375C31.1873 4.4035 31.1873 4.40325 31.1873 4.403C31.1873 4.40275 31.1873 4.4025 31.1873 4.40225C31.1873 4.402 31.1873 4.40175 31.1873 4.4015C31.1873 4.40125 31.1873 4.401 31.1873 4.40075C31.1873 4.4005 31.1873 4.40025 31.1873 4.4C31.1873 4.39975 31.1873 4.3995 31.1873 4.39925C31.1873 4.399 31.1873 4.39875 31.1873 4.3985C31.1873 4.39825 31.1873 4.398 31.1873 4.39775C31.1873 4.3975 31.1873 4.39725 31.1873 4.397C31.1873 4.39675 31.1873 4.3965 31.1873 4.39625C31.1873 4.396 31.1873 4.39575 31.1873 4.3955C31.1873 4.39525 31.1873 4.395 31.1873 4.39475C31.1873 4.3945 31.1873 4.39425 31.1873 4.394C31.1873 4.39375 31.1873 4.3935 31.1873 4.39325C31.1873 4.393 31.1873 4.39275 31.1873 4.3925C31.1873 4.39225 31.1873 4.392 31.1873 4.39175C31.1873 4.3915 31.1873 4.39125 31.1873 4.391C31.1873 4.39075 31.1873 4.3905 31.1873 4.39025C31.1873 4.39 31.1873 4.38975 31.1873 4.3895C31.1873 4.38925 31.1873 4.389 31.1873 4.38875C31.1873 4.3885 31.1873 4.38825 31.1873 4.388C31.1873 4.38775 31.1873 4.3875 31.1873 4.38725C31.1873 4.387 31.1873 4.38675 31.1873 4.3865C31.1873 4.38625 31.1873 4.386 31.1873 4.38575C31.1873 4.3855 31.1873 4.38525 31.1873 4.385C31.1873 4.38475 31.1873 4.3845 31.1873 4.38425C31.1873 4.384 31.1873 4.38375 31.1873 4.3835C31.1873 4.38325 31.1873 4.383 31.1873 4.38275C31.1873 4.3825 31.1873 4.38225 31.1873 4.382C31.1873 4.38175 31.1873 4.3815 31.1873 4.38125C31.1873 4.381 31.1873 4.38075 31.1873 4.3805C31.1873 4.38025 31.1873 4.38 31.1873 4.37975C31.1873 4.3795 31.1873 4.37925 31.1873 4.379C31.1873 4.37875 31.1873 4.3785 31.1873 4.37825C31.1873 4.378 31.1873 4.37775 31.1873 4.3775C31.1873 4.37725 31.1873 4.377 31.1873 4.37675C31.1873 4.3765 31.1873 4.37625 31.1873 4.376C31.1873 4.37575 31.1873 4.3755 31.1873 4.37525C31.1873 4.375 31.1873 4.37475 31.1873 4.3745C31.1873 4.37425 31.1873 4.374 31.1873 4.37375C31.1873 4.3735 31.1873 4.37325 31.1873 4.373C31.1873 4.37275 31.1873 4.3725 31.1873 4.37225C31.1873 4.372 31.1873 4.37175 31.1873 4.3715C31.1873 4.37125 31.1873 4.371 31.1873 4.37075C31.1873 4.3705 31.1873 4.37025 31.1873 4.37C31.1873 4.36975 31.1873 4.3695 31.1873 4.36925C31.1873 4.369 31.1873 4.36875 31.1873 4.3685C31.1873 4.36825 31.1873 4.368 31.1873 4.36775C31.1873 4.3675 31.1873 4.36725 31.1873 4.367C31.1873 4.36675 31.1873 4.3665 31.1873 4.36625C31.1873 4.366 31.1873 4.36575 31.1873 4.3655C31.1873 4.36525 31.1873 4.365 31.1873 4.36475C31.1873 4.3645 31.1873 4.36425 31.1873 4.364C31.1873 4.36375 31.1873 4.3635 31.1873 4.36325C31.1873 4.363 31.1873 4.36275 31.1873 4.3625C31.1873 4.36225 31.1873 4.362 31.1873 4.36175C31.1873 4.3615 31.1873 4.36125 31.1873 4.361C31.1873 4.36075 31.1873 4.3605 31.1873 4.36025C31.1873 4.36 31.1873 4.35975 31.1873 4.3595C31.1873 4.35925 31.1873 4.359 31.1873 4.35875C31.1873 4.3585 31.1873 4.35825 31.1873 4.358C31.1873 4.35775 31.1873 4.3575 31.1873 4.35725C31.1873 4.357 31.1873 4.35675 31.1873 4.3565C31.1873 4.35625 31.1873 4.356 31.1873 4.35575C31.1873 4.3555 31.1873 4.35525 31.1873 4.355C31.1873 4.35475 31.1873 4.3545 31.1873 4.35425C31.1873 4.354 31.1873 4.35375 31.1873 4.3535C31.1873 4.35325 31.1873 4.353 31.1873 4.35275C31.1873 4.3525 31.1873 4.35225 31.1873 4.352C31.1873 4.35175 31.1873 4.3515 31.1873 4.35125C31.1873 4.351 31.1873 4.35075 31.1873 4.3505C31.1873 4.35025 31.1873 4.35 31.1873 4.34975C31.1873 4.3495 31.1873 4.34925 31.1873 4.349C31.1873 4.34875 31.1873 4.3485 31.1873 4.34825C31.1873 4.348 31.1873 4.34775 31.1873 4.3475C31.1873 4.34725 31.1873 4.347 31.1873 4.34675C31.1873 4.3465 31.1873 4.34625 31.1873 4.346C31.1873 4.34575 31.1873 4.3455 31.1873 4.34525C31.1873 4.345 31.1873 4.34475 31.1873 4.3445C31.1873 4.34425 31.1873 4.344 31.1873 4.34375C31.1873 4.3435 31.1873 4.34325 31.1873 4.343C31.1873 4.34275 31.1873 4.3425 31.1873 4.34225C31.1873 4.342 31.1873 4.34175 31.1873 4.3415C31.1873 4.34125 31.1873 4.341 31.1873 4.34075C31.1873 4.3405 31.1873 4.34025 31.1873 4.34C31.1873 4.33975 31.1873 4.3395 31.1873 4.33925C31.1873 4.339 31.1873 4.33875 31.1873 4.3385C31.1873 4.33825 31.1873 4.338 31.1873 4.33775C31.1873 4.3375 31.1873 4.33725 31.1873 4.337C31.1873 4.33675 31.1873 4.3365 31.1873 4.33625C31.1873 4.336 31.1873 4.33575 31.1873 4.3355C31.1873 4.33525 31.1873 4.335 31.1873 4.33475C31.1873 4.3345 31.1873 4.33425 31.1873 4.334C31.1873 4.33375 31.1873 4.3335 31.1873 4.33325C31.1873 4.333 31.1873 4.33275 31.1873 4.3325C31.1873 4.33225 31.1873 4.332 31.1873 4.33175C31.1873 4.3315 31.1873 4.33125 31.1873 4.331C31.1873 4.33075 31.1873 4.3305 31.1873 4.33025C31.1873 4.33 31.1873 4.32975 31.1873 4.3295C31.1873 4.32925 31.1873 4.329 31.1873 4.32875C31.1873 4.3285 31.1873 4.32825 31.1873 4.328C31.1873 4.32775 31.1873 4.3275 31.1873 4.32725C31.1873 4.327 31.1873 4.32675 31.1873 4.3265C31.1873 4.32625 31.1873 4.326 31.1873 4.32575C31.1873 4.3255 31.1873 4.32525 31.1873 4.325C31.1873 4.32475 31.1873 4.3245 31.1873 4.32425C31.1873 4.324 31.1873 4.32375 31.1873 4.3235C31.1873 4.32325 31.1873 4.323 31.1873 4.32275C31.1873 4.3225 31.1873 4.32225 31.1873 4.322C31.1873 4.32175 31.1873 4.3215 31.1873 4.32125C31.1873 4.321 31.1873 4.32075 31.1873 4.3205C31.1873 4.32025 31.1873 4.32 31.1873 4.31975C31.1873 4.3195 31.1873 4.31925 31.1873 4.319C31.1873 4.31875 31.1873 4.3185 31.1873 4.31825C31.1873 4.318 31.1873 4.31775 31.1873 4.3175C31.1873 4.31725 31.1873 4.317 31.1873 4.31675C31.1873 4.3165 31.1873 4.31625 31.1873 4.316C31.1873 4.31575 31.1873 4.3155 31.1873 4.31525C31.1873 4.315 31.1873 4.31475 31.1873 4.3145C31.1873 4.31425 31.1873 4.314 31.1873 4.31375C31.1873 4.3135 31.1873 4.31325 31.1873 4.313C31.1873 4.31275 31.1873 4.3125 31.1873 4.31225C31.1873 4.312 31.1873 4.31175 31.1873 4.3115C31.1873 4.31125 31.1873 4.311 31.1873 4.31075C31.1873 4.3105 31.1873 4.31025 31.1873 4.31C31.1873 4.30975 31.1873 4.3095 31.1873 4.30925C31.1873 4.309 31.1873 4.30875 31.1873 4.3085C31.1873 4.30825 31.1873 4.308 31.1873 4.30775C31.1873 4.3075 31.1873 4.30725 31.1873 4.307C31.1873 4.30675 31.1873 4.3065 31.1873 4.30625C31.1873 4.306 31.1873 4.30575 31.1873 4.3055C31.1873 4.30525 31.1873 4.305 31.1873 4.30475C31.1873 4.3045 31.1873 4.30425 31.1873 4.304C31.1873 4.30375 31.1873 4.3035 31.1873 4.30325C31.1873 4.303 31.1873 4.30275 31.1873 4.3025C31.1873 4.30225 31.1873 4.302 31.1873 4.30175C31.1873 4.3015 31.1873 4.30125 31.1873 4.301C31.1873 4.30075 31.1873 4.3005 31.1873 4.30025C31.1873 4.3 31.1873 4.29975 31.1873 4.2995C31.1873 4.29925 31.1873 4.299 31.1873 4.29875C31.1873 4.2985 31.1873 4.29825 31.1873 4.298C31.1873 4.29775 31.1873 4.2975 31.1873 4.29725C31.1873 4.297 31.1873 4.29675 31.1873 4.2965C31.1873 4.29625 31.1873 4.296 31.1873 4.29575C31.1873 4.2955 31.1873 4.29525 31.1873 4.295C31.1873 4.29475 31.1873 4.2945 31.1873 4.29425C31.1873 4.294 31.1873 4.29375 31.1873 4.2935C31.1873 4.29325 31.1873 4.293 31.1873 4.29275C31.1873 4.2925 31.1873 4.29225 31.1873 4.292C31.1873 4.29175 31.1873 4.2915 31.1873 4.29125C31.1873 4.291 31.1873 4.29075 31.1873 4.2905C31.1873 4.29025 31.1873 4.29 31.1873 4.28975C31.1873 4.2895 31.1873 4.28925 31.1873 4.289C31.1873 4.28875 31.1873 4.2885 31.1873 4.28825C31.1873 4.288 31.1873 4.28775 31.1873 4.2875C31.1873 4.28725 31.1873 4.287 31.1873 4.28675C31.1873 4.2865 31.1873 4.28625 31.1873 4.286C31.1873 4.28575 31.1873 4.2855 31.1873 4.28525C31.1873 4.285 31.1873 4.28475 31.1873 4.2845C31.1873 4.28425 31.1873 4.284 31.1873 4.28375C31.1873 4.2835 31.1873 4.28325 31.1873 4.283C31.1873 4.28275 31.1873 4.2825 31.1873 4.28225C31.1873 4.282 31.1873 4.28175 31.1873 4.2815C31.1873 4.28125 31.1873 4.281 31.1873 4.28075C31.1873 4.2805 31.1873 4.28025 31.1873 4.28C31.1873 4.27975 31.1873 4.2795 31.1873 4.27925C31.1873 4.279 31.1873 4.27875 31.1873 4.2785C31.1873 4.27825 31.1873 4.278 31.1873 4.27775C31.1873 4.2775 31.1873 4.27725 31.1873 4.277C31.1873 4.27675 31.1873 4.2765 31.1873 4.27625C31.1873 4.276 31.1873 4.27575 31.1873 4.2755C31.1873 4.27525 31.1873 4.275 31.1873 4.27475C31.1873 4.2745 31.1873 4.27425 31.1873 4.274C31.1873 4.27375 31.1873 4.2735 31.1873 4.27325C31.1873 4.273 31.1873 4.27275 31.1873 4.2725C31.1873 4.27225 31.1873 4.272 31.1873 4.27175C31.1873 4.2715 31.1873 4.27125 31.1873 4.271C31.1873 4.27075 31.1873 4.2705 31.1873 4.27025C31.1873 4.27 31.1873 4.26975 31.1873 4.2695C31.1873 4.26925 31.1873 4.269 31.1873 4.26875C31.1873 4.2685 31.1873 4.26825 31.1873 4.268C31.1873 4.26775 31.1873 4.2675 31.1873 4.26725C31.1873 4.267 31.1873 4.26675 31.1873 4.2665C31.1873 4.26625 31.1873 4.266 31.1873 4.26575C31.1873 4.2655 31.1873 4.26525 31.1873 4.265C31.1873 4.26475 31.1873 4.2645 31.1873 4.26425C31.1873 4.264 31.1873 4.26375 31.1873 4.2635C31.1873 4.26325 31.1873 4.263 31.1873 4.26275C31.1873 4.2625 31.1873 4.26225 31.1873 4.262C31.1873 4.26175 31.1873 4.2615 31.1873 4.26125C31.1873 4.261 31.1873 4.26075 31.1873 4.2605C31.1873 4.26025 31.1873 4.26 31.1873 4.25975C31.1873 4.2595 31.1873 4.25925 31.1873 4.259C31.1873 4.25875 31.1873 4.2585 31.1873 4.25825C31.1873 4.258 31.1873 4.25775 31.1873 4.2575C31.1873 4.25725 31.1873 4.257 31.1873 4.25675C31.1873 4.2565 31.1873 4.25625 31.1873 4.256C31.1873 4.25575 31.1873 4.2555 31.1873 4.25525C31.1873 4.255 31.1873 4.25475 31.1873 4.2545C31.1873 4.25425 31.1873 4.254 31.1873 4.25375C31.1873 4.2535 31.1873 4.25325 31.1873 4.253C31.1873 4.25275 31.1873 4.2525 31.1873 4.25225C31.1873 4.252 31.1873 4.25175 31.1873 4.2515C31.1873 4.25125 31.1873 4.251 31.1873 4.25075C31.1873 4.2505 31.1873 4.25025 31.1873 4.25C31.1873 4.24975 31.1873 4.2495 31.1873 4.24925C31.1873 4.249 31.1873 4.24875 31.1873 4.2485C31.1873 4.24825 31.1873 4.248 31.1873 4.24775C31.1873 4.2475 31.1873 4.24725 31.1873 4.247C31.1873 4.24675 31.1873 4.2465 31.1873 4.24625C31.1873 4.246 31.1873 4.24575 31.1873 4.2455C31.1873 4.24525 31.1873 4.245 31.1873 4.24475C31.1873 4.2445 31.1873 4.24425 31.1873 4.244C31.1873 4.24375 31.1873 4.2435 31.1873 4.24325C31.1873 4.243 31.1873 4.24275 31.1873 4.2425C31.1873 4.24225 31.1873 4.242 31.1873 4.24175C31.1873 4.2415 31.1873 4.24125 31.1873 4.241C31.1873 4.24075 31.1873 4.2405 31.1873 4.24025C31.1873 4.24 31.1873 4.23975 31.1873 4.2395C31.1873 4.23925 31.1873 4.239 31.1873 4.23875C31.1873 4.2385 31.1873 4.23825 31.1873 4.238C31.1873 4.23775 31.1873 4.2375 31.1873 4.23725C31.1873 4.237 31.1873 4.23675 31.1873 4.2365C31.1873 4.23625 31.1873 4.236 31.1873 4.23575C31.1873 4.2355 31.1873 4.23525 31.1873 4.235C31.1873 4.23475 31.1873 4.2345 31.1873 4.23425C31.1873 4.234 31.1873 4.23375 31.1873 4.2335C31.1873 4.23325 31.1873 4.233 31.1873 4.23275C31.1873 4.2325 31.1873 4.23225 31.1873 4.232C31.1873 4.23175 31.1873 4.2315 31.1873 4.23125C31.1873 4.231 31.1873 4.23075 31.1873 4.2305C31.1873 4.23025 31.1873 4.23 31.1873 4.22975C31.1873 4.2295 31.1873 4.22925 31.1873 4.229C31.1873 4.22875 31.1873 4.2285 31.1873 4.22825C31.1873 4.228 31.1873 4.22775 31.1873 4.2275C31.1873 4.22725 31.1873 4.227 31.1873 4.22675C31.1873 4.2265 31.1873 4.22625 31.1873 4.226C31.1873 4.22575 31.1873 4.2255 31.1873 4.22525C31.1873 4.225 31.1873 4.22475 31.1873 4.2245C31.1873 4.22425 31.1873 4.224 31.1873 4.22375C31.1873 4.2235 31.1873 4.22325 31.1873 4.223C31.1873 4.22275 31.1873 4.2225 31.1873 4.22225C31.1873 4.222 31.1873 4.22175 31.1873 4.2215C31.1873 4.22125 31.1873 4.221 31.1873 4.22075C31.1873 4.2205 31.1873 4.22025 31.1873 4.22C31.1873 4.21975 31.1873 4.2195 31.1873 4.21925C31.1873 4.219 31.1873 4.21875 31.1873 4.2185C31.1873 4.21825 31.1873 4.218 31.1873 4.21775C31.1873 4.2175 31.1873 4.21725 31.1873 4.217C31.1873 4.21675 31.1873 4.2165 31.1873 4.21625C31.1873 4.216 31.1873 4.21575 31.1873 4.2155C31.1873 4.21525 31.1873 4.215 31.1873 4.21475C31.1873 4.2145 31.1873 4.21425 31.1873 4.214C31.1873 4.21375 31.1873 4.2135 31.1873 4.21325C31.1873 4.213 31.1873 4.21275 31.1873 4.2125C31.1873 4.21225 31.1873 4.212 31.1873 4.21175C31.1873 4.2115 31.1873 4.21125 31.1873 4.211C31.1873 4.21075 31.1873 4.2105 31.1873 4.21025C31.1873 4.21 31.1873 4.20975 31.1873 4.2095C31.1873 4.20925 31.1873 4.209 31.1873 4.20875C31.1873 4.2085 31.1873 4.20825 31.1873 4.208H27.1873ZM27.1873 4.592C27.1873 5.71037 26.8245 7.33066 25.9271 9.5334L29.6314 11.0426C30.6114 8.63734 31.1873 6.46029 31.1873 4.592H27.1873ZM25.9321 9.52124C25.4719 10.6298 25.0985 11.4463 24.8088 11.9977C24.663 12.2752 24.5568 12.45 24.4892 12.548C24.3882 12.6943 24.4515 12.5561 24.6859 12.3999L26.9046 15.7281C27.331 15.4439 27.621 15.0523 27.7813 14.82C27.975 14.5393 28.1648 14.2102 28.3497 13.8583C28.7213 13.151 29.1479 12.2076 29.6264 11.0548L25.9321 9.52124ZM26.7118 12.2864C23.8073 10.7888 21.034 9.952 18.4353 9.952V13.952C20.1885 13.952 22.3218 14.5232 24.8787 15.8416L26.7118 12.2864ZM18.4353 9.952C17.1886 9.952 15.8935 10.1656 14.8666 10.9049C13.7183 11.7317 13.2353 12.9686 13.2353 14.256H17.2353C17.2353 14.1024 17.2616 14.0635 17.2502 14.0882C17.2448 14.0999 17.2351 14.1163 17.2217 14.1324C17.2085 14.1481 17.2 14.1538 17.2039 14.1511C17.2437 14.1224 17.5486 13.952 18.4353 13.952V9.952ZM13.2353 14.256C13.2353 16.4832 15.1004 17.8031 16.7682 18.5694L18.4383 14.9346C17.7731 14.629 17.4313 14.3689 17.2782 14.2075C17.1535 14.0761 17.2353 14.1046 17.2353 14.256H13.2353ZM16.7088 18.5409C17.0745 18.7237 17.5844 18.9673 18.2295 19.2684L19.921 15.6436C19.2861 15.3474 18.8147 15.1217 18.4977 14.9631L16.7088 18.5409ZM18.2295 19.2684C18.8336 19.5503 19.5295 19.8979 20.3198 20.3138L22.1827 16.7742C21.3516 16.3367 20.5969 15.9591 19.921 15.6436L18.2295 19.2684ZM20.4305 20.3678C21.1573 20.6949 21.9509 21.145 22.8126 21.7325L25.0659 18.4275C24.0502 17.735 23.0519 17.1611 22.072 16.7202L20.4305 20.3678ZM22.8994 21.7884C23.7386 22.2993 24.6783 23.0212 25.7187 23.9816L28.4318 21.0424C27.2535 19.9548 26.1025 19.0554 24.9791 18.3716L22.8994 21.7884ZM25.7028 23.9668C27.5114 25.673 28.4673 27.9359 28.4673 30.96H32.4673C32.4673 26.9868 31.1617 23.6176 28.4477 21.0572L25.7028 23.9668ZM28.4673 30.96C28.4673 35.1392 27.325 38.3778 25.1806 40.8493L28.2019 43.4707C31.0922 40.1395 32.4673 35.9115 32.4673 30.96H28.4673ZM25.1806 40.8493C23.1575 43.181 19.9075 44.5606 15.0107 44.6403L15.0758 48.6397C20.675 48.5487 25.1903 46.9417 28.2019 43.4707L25.1806 40.8493ZM15.0433 44.64C12.5919 44.64 10.4032 44.4355 8.46717 44.0404L7.66733 47.9596C9.9126 48.4178 12.3746 48.64 15.0433 48.64V44.64ZM8.47516 44.042C6.71782 43.6759 5.22042 42.9732 3.94591 41.9465L1.43659 45.0615C3.23408 46.5095 5.32068 47.4707 7.65934 47.958L8.47516 44.042ZM3.94591 41.9465C2.81323 41.0341 2.38725 40.0859 2.38725 39.024H-1.61275C-1.61275 41.4607 -0.502732 43.4993 1.43659 45.0615L3.94591 41.9465ZM2.38725 39.024C2.38725 37.5245 2.66053 36.0339 3.21991 34.5422L-0.525408 33.1378C-1.24603 35.0594 -1.61275 37.0248 -1.61275 39.024H2.38725ZM3.2255 34.5272C3.84554 32.8324 4.3688 32.1573 4.61015 31.9727L2.18035 28.7953C0.971034 29.7201 0.12896 31.349 -0.530995 33.1528L3.2255 34.5272ZM39.9553 34.992V36.992H41.9553V34.992H39.9553ZM39.9553 12.208H41.9553V10.208H39.9553V12.208ZM33.8753 9.456L31.8954 9.73884L31.8981 9.75812L31.9012 9.77735L33.8753 9.456ZM33.8753 3.952L31.9012 3.63065L31.8981 3.64987L31.8954 3.66916L33.8753 3.952ZM58.3873 3.952L56.4064 4.22839L56.4133 4.27751L56.4226 4.32623L58.3873 3.952ZM58.3873 9.456L56.4226 9.08177L56.4133 9.13049L56.4064 9.17961L58.3873 9.456ZM52.6273 12.208V10.208H50.6273V12.208H52.6273ZM52.6273 34.992H50.6273V36.992H52.6273V34.992ZM58.6433 37.744L56.6692 38.0654L56.6736 38.0919L56.6786 38.1182L58.6433 37.744ZM58.6433 43.248L56.6786 42.8738L56.6736 42.9001L56.6692 42.9266L58.6433 43.248ZM34.0673 43.248L36.0481 42.9716L36.0412 42.9225L36.0319 42.8738L34.0673 43.248ZM34.0673 37.744L36.0319 38.1182L36.0412 38.0695L36.0481 38.0204L34.0673 37.744ZM41.9553 34.992V12.208H37.9553V34.992H41.9553ZM39.9553 10.208H35.4113V14.208H39.9553V10.208ZM35.4113 10.208C35.6862 10.208 35.9311 10.3054 36.0984 10.4294C36.2385 10.5332 36.2668 10.6119 36.2296 10.5453C36.1949 10.483 36.1312 10.3442 36.0577 10.0949C35.9857 9.85024 35.9142 9.53363 35.8493 9.13465L31.9012 9.77735C32.0638 10.7757 32.3122 11.7339 32.7369 12.4947C33.1704 13.2714 34.0233 14.208 35.4113 14.208V10.208ZM35.8551 9.17315C35.741 8.37424 35.6833 7.55152 35.6833 6.704H31.6833C31.6833 7.73381 31.7535 8.74576 31.8954 9.73884L35.8551 9.17315ZM35.6833 6.704C35.6833 5.85648 35.741 5.03376 35.8551 4.23484L31.8954 3.66916C31.7535 4.66224 31.6833 5.67418 31.6833 6.704H35.6833ZM35.8493 4.27335C35.9142 3.87437 35.9857 3.55776 36.0577 3.31314C36.1312 3.06377 36.1949 2.92502 36.2296 2.86273C36.2668 2.79608 36.2385 2.87476 36.0984 2.97862C35.9311 3.10262 35.6862 3.2 35.4113 3.2V-0.800003C34.0233 -0.800003 33.1704 0.13658 32.7369 0.913266C32.3122 1.67407 32.0638 2.63226 31.9012 3.63065L35.8493 4.27335ZM35.4113 3.2H56.9153V-0.800003H35.4113V3.2ZM56.9153 3.2C56.6392 3.2 56.3872 3.10173 56.2108 2.96863C56.0628 2.857 56.0306 2.76944 56.0637 2.8313C56.0944 2.88878 56.1538 3.02384 56.221 3.2717C56.2869 3.51457 56.3508 3.82995 56.4064 4.22839L60.3681 3.67561C60.2288 2.67768 60.0021 1.71368 59.5908 0.944694C59.1672 0.152746 58.3167 -0.800003 56.9153 -0.800003V3.2ZM56.4226 4.32623C56.5691 5.09533 56.6433 5.88725 56.6433 6.704H60.6433C60.6433 5.64341 60.5468 4.60067 60.3519 3.57777L56.4226 4.32623ZM56.6433 6.704C56.6433 7.52075 56.5691 8.31267 56.4226 9.08177L60.3519 9.83022C60.5468 8.80733 60.6433 7.76459 60.6433 6.704H56.6433ZM56.4064 9.17961C56.3508 9.57805 56.2869 9.89343 56.221 10.1363C56.1538 10.3842 56.0944 10.5192 56.0637 10.5767C56.0306 10.6386 56.0628 10.551 56.2108 10.4394C56.3872 10.3063 56.6392 10.208 56.9153 10.208V14.208C58.3167 14.208 59.1672 13.2553 59.5908 12.4633C60.0021 11.6943 60.2288 10.7303 60.3681 9.73239L56.4064 9.17961ZM56.9153 10.208H52.6273V14.208H56.9153V10.208ZM50.6273 12.208V34.992H54.6273V12.208H50.6273ZM52.6273 36.992H57.1073V32.992H52.6273V36.992ZM57.1073 36.992C56.8323 36.992 56.5874 36.8946 56.4201 36.7706C56.28 36.6668 56.2517 36.5881 56.2889 36.6547C56.3236 36.717 56.3873 36.8558 56.4608 37.1051C56.5328 37.3498 56.6043 37.6664 56.6692 38.0654L60.6173 37.4226C60.4547 36.4243 60.2063 35.4661 59.7816 34.7053C59.3481 33.9286 58.4952 32.992 57.1073 32.992V36.992ZM56.6786 38.1182C56.8251 38.8873 56.8993 39.6793 56.8993 40.496H60.8993C60.8993 39.4354 60.8028 38.3927 60.6079 37.3698L56.6786 38.1182ZM56.8993 40.496C56.8993 41.3127 56.8251 42.1047 56.6786 42.8738L60.6079 43.6222C60.8028 42.5993 60.8993 41.5566 60.8993 40.496H56.8993ZM56.6692 42.9266C56.6043 43.3256 56.5328 43.6422 56.4608 43.8869C56.3873 44.1362 56.3236 44.275 56.2889 44.3373C56.2517 44.4039 56.28 44.3252 56.4201 44.2214C56.5874 44.0974 56.8323 44 57.1073 44V48C58.4952 48 59.3481 47.0634 59.7816 46.2867C60.2063 45.5259 60.4547 44.5677 60.6173 43.5694L56.6692 42.9266ZM57.1073 44H35.5393V48H57.1073V44ZM35.5393 44C35.8153 44 36.0673 44.0983 36.2437 44.2314C36.3917 44.343 36.4239 44.4306 36.3908 44.3687C36.3601 44.3112 36.3007 44.1762 36.2335 43.9283C36.1676 43.6854 36.1037 43.3701 36.0481 42.9716L32.0864 43.5244C32.2257 44.5223 32.4524 45.4863 32.8637 46.2553C33.2873 47.0473 34.1378 48 35.5393 48V44ZM36.0319 42.8738C35.8854 42.1047 35.8113 41.3127 35.8113 40.496H31.8113C31.8113 41.5566 31.9077 42.5993 32.1026 43.6222L36.0319 42.8738ZM35.8113 40.496C35.8113 39.6793 35.8854 38.8873 36.0319 38.1182L32.1026 37.3698C31.9077 38.3927 31.8113 39.4354 31.8113 40.496H35.8113ZM36.0481 38.0204C36.1037 37.6219 36.1676 37.3066 36.2335 37.0637C36.3007 36.8158 36.3601 36.6808 36.3908 36.6233C36.4239 36.5614 36.3917 36.649 36.2437 36.7606C36.0673 36.8937 35.8153 36.992 35.5393 36.992V32.992C34.1378 32.992 33.2873 33.9447 32.8637 34.7367C32.4524 35.5057 32.2257 36.4697 32.0864 37.4676L36.0481 38.0204ZM35.5393 36.992H39.9553V32.992H35.5393V36.992ZM86.8488 32.624L84.849 32.5946L84.8488 32.6093V32.624H86.8488ZM86.9768 23.92L88.9765 23.9494L88.9768 23.9347V23.92H86.9768ZM88.8328 22.768L89.106 24.7492L89.1394 24.7446L89.1726 24.7389L88.8328 22.768ZM91.9048 22.448L92.0581 20.4539L91.9816 20.448H91.9048V22.448ZM94.4008 22.64L94.7127 20.6645L94.6338 20.652L94.5541 20.6459L94.4008 22.64ZM96.8328 23.984L98.8326 24.0096L98.8328 23.9968V23.984H96.8328ZM96.5768 44.016L97.7237 45.6545L98.5635 45.0666L98.5766 44.0416L96.5768 44.016ZM91.3928 45.808L91.8163 47.7626L91.8282 47.7601L91.8401 47.7573L91.3928 45.808ZM67.5848 40.624L69.0371 39.2489L69.0371 39.2489L67.5848 40.624ZM90.9448 1.52L90.4597 3.46028L90.4798 3.46531L90.5 3.46993L90.9448 1.52ZM95.9368 3.824L97.9213 3.57593L97.8424 2.94501L97.4137 2.47546L95.9368 3.824ZM95.0408 9.776L96.9134 10.4782L96.9162 10.4707L96.919 10.4632L95.0408 9.776ZM92.8647 13.616L91.4148 12.2385L91.4147 12.2385L92.8647 13.616ZM89.9208 14.448L88.592 15.9428L88.6788 16.0199L88.7738 16.0865L89.9208 14.448ZM87.5528 13.424L86.9407 15.3281L86.9719 15.3381L87.0033 15.347L87.5528 13.424ZM77.6328 15.408L76.2008 14.0118L76.1917 14.0211L76.1828 14.0305L77.6328 15.408ZM77.6968 31.536L76.2001 32.8626L76.216 32.8806L76.2324 32.8982L77.6968 31.536ZM88.8485 32.6534L88.9765 23.9494L84.977 23.8906L84.849 32.5946L88.8485 32.6534ZM88.9768 23.92C88.9768 24.1363 88.9148 24.372 88.7846 24.5786C88.6644 24.7693 88.5343 24.8592 88.4955 24.8833C88.4597 24.9055 88.4789 24.8865 88.5934 24.8523C88.7041 24.8192 88.8706 24.7817 89.106 24.7492L88.5595 20.7868C87.8341 20.8868 87.0456 21.0753 86.386 21.4847C85.6381 21.949 84.9768 22.7705 84.9768 23.92H88.9768ZM89.1726 24.7389C90.3515 24.5357 91.252 24.448 91.9048 24.448V20.448C90.9362 20.448 89.7887 20.5737 88.4929 20.7971L89.1726 24.7389ZM91.7514 24.4421L94.2474 24.6341L94.5541 20.6459L92.0581 20.4539L91.7514 24.4421ZM94.0888 24.6155C94.4344 24.6701 94.7042 24.73 94.9086 24.7891C95.1178 24.8497 95.2226 24.8993 95.2574 24.9185C95.2966 24.9401 95.196 24.8947 95.077 24.735C94.9375 24.5478 94.8328 24.2813 94.8328 23.984H98.8328C98.8328 22.6345 97.9177 21.8185 97.1921 21.4175C96.4832 21.0258 95.6041 20.8052 94.7127 20.6645L94.0888 24.6155ZM94.8329 23.9584L94.5769 43.9904L98.5766 44.0416L98.8326 24.0096L94.8329 23.9584ZM95.4298 42.3775C94.9357 42.7235 93.5722 43.2558 90.9454 43.8587L91.8401 47.7573C94.4187 47.1655 96.5112 46.5032 97.7237 45.6545L95.4298 42.3775ZM90.9692 43.8534C88.5798 44.3711 85.7826 44.64 82.5608 44.64V48.64C85.9949 48.64 89.0857 48.3543 91.8163 47.7626L90.9692 43.8534ZM82.5608 44.64C76.8507 44.64 72.4094 42.8107 69.0371 39.2489L66.1324 41.9991C70.3548 46.4586 75.8975 48.64 82.5608 48.64V44.64ZM69.0371 39.2489C65.7126 35.7377 63.8888 30.4225 63.8888 22.96H59.8888C59.8888 31.0282 61.8622 37.489 66.1324 41.9991L69.0371 39.2489ZM63.8888 22.96C63.8888 16.7409 65.6231 11.8718 68.9456 8.16738L65.9679 5.49661C61.8664 10.0696 59.8888 15.9524 59.8888 22.96H63.8888ZM68.9456 8.16738C72.2088 4.52915 76.7651 2.624 82.8808 2.624V-1.376C75.855 -1.376 70.1287 0.857508 65.9679 5.49661L68.9456 8.16738ZM82.8808 2.624C85.7372 2.624 88.2583 2.90995 90.4597 3.46028L91.4298 -0.420288C88.8525 -1.06462 85.9976 -1.376 82.8808 -1.376V2.624ZM90.5 3.46993C92.8328 4.00196 93.9903 4.65833 94.4598 5.17254L97.4137 2.47546C96.0912 1.027 93.9207 0.147365 91.3895 -0.429932L90.5 3.46993ZM93.9522 4.07206C93.9772 4.27234 94.0008 4.79331 94.0008 5.744H98.0008C98.0008 4.81736 97.9816 4.05832 97.9213 3.57593L93.9522 4.07206ZM94.0008 5.744C94.0008 6.31627 93.7852 7.3868 93.1625 9.08883L96.919 10.4632C97.5763 8.66652 98.0008 7.04906 98.0008 5.744H94.0008ZM93.1681 9.07375C92.576 10.6526 91.9676 11.6566 91.4148 12.2385L94.3147 14.9935C95.3833 13.8688 96.2255 12.3127 96.9134 10.4782L93.1681 9.07375ZM91.4147 12.2385C91.0514 12.6209 90.7986 12.8397 90.6463 12.9485C90.5721 13.0015 90.5599 13.0007 90.6033 12.9819C90.6399 12.9659 90.809 12.896 91.0728 12.896V16.896C91.9175 16.896 92.5964 16.4712 92.9712 16.2035C93.4162 15.8856 93.8674 15.4644 94.3148 14.9935L91.4147 12.2385ZM91.0728 12.896C91.1956 12.896 91.2611 12.9229 91.2536 12.92C91.2504 12.9187 91.2327 12.9115 91.2001 12.8935C91.1676 12.8756 91.1235 12.8486 91.0677 12.8095L88.7738 16.0865C89.3711 16.5045 90.157 16.896 91.0728 16.896V12.896ZM91.2495 12.9532C90.4885 12.2767 89.2865 11.8393 88.1022 11.501L87.0033 15.347C87.5505 15.5034 87.9581 15.6468 88.2469 15.7717C88.5592 15.9067 88.6304 15.9769 88.592 15.9428L91.2495 12.9532ZM88.1648 11.5199C86.7979 11.0806 85.4391 10.848 84.0968 10.848V14.848C84.9731 14.848 85.9183 14.9994 86.9407 15.3281L88.1648 11.5199ZM84.0968 10.848C80.9773 10.848 78.2843 11.8748 76.2008 14.0118L79.0648 16.8042C80.3092 15.5279 81.9255 14.848 84.0968 14.848V10.848ZM76.1828 14.0305C74.0622 16.2627 73.2008 19.5084 73.2008 23.344H77.2008C77.2008 20.0116 77.9607 17.9666 79.0827 16.7855L76.1828 14.0305ZM73.2008 23.344C73.2008 27.2095 74.0965 30.4894 76.2001 32.8626L79.1934 30.2094C77.969 28.8279 77.2008 26.6465 77.2008 23.344H73.2008ZM76.2324 32.8982C78.2545 35.072 80.7032 36.288 83.5208 36.288V32.288C81.9863 32.288 80.5523 31.6693 79.1611 30.1738L76.2324 32.8982ZM83.5208 36.288C84.7322 36.288 85.9386 36.1471 86.9112 35.6609C87.4258 35.4036 87.9319 35.0209 88.3049 34.4614C88.6862 33.8894 88.8488 33.2513 88.8488 32.624H84.8488C84.8488 32.5514 84.8727 32.3986 84.9767 32.2426C85.0723 32.0991 85.1624 32.0631 85.1223 32.0831C85.0744 32.1071 84.933 32.1637 84.648 32.2112C84.3683 32.2578 83.9975 32.288 83.5208 32.288V36.288ZM115.143 12.528V10.528H113.143V12.528H115.143ZM115.143 19.824H113.143V21.824H115.143V19.824ZM115.143 29.744V27.744H113.143V29.744H115.143ZM112.711 46.32L112.501 44.331L112.472 44.3341L112.443 44.338L112.711 46.32ZM108.743 46.64L108.658 48.6382L108.7 48.64H108.743V46.64ZM105.735 46.512L105.492 48.4972L105.57 48.5068L105.65 48.5102L105.735 46.512ZM102.983 1.52L101.82 -0.107471L101.76 -0.0641551L101.702 -0.0164466L102.983 1.52ZM126.855 3.2C125.996 3.2 125.619 2.59151 125.595 2.55037C125.568 2.50183 125.63 2.60216 125.706 2.99924C125.851 3.75708 125.943 5.0274 125.943 6.896H129.943C129.943 4.96727 129.853 3.38959 129.635 2.24876C129.53 1.6965 129.366 1.08483 129.066 0.561621C128.77 0.0458211 128.076 -0.800003 126.855 -0.800003V3.2ZM125.943 6.896C125.943 8.74289 125.851 9.99551 125.707 10.7407C125.632 11.1312 125.57 11.2257 125.6 11.1732C125.629 11.1234 126.007 10.528 126.855 10.528V14.528C128.065 14.528 128.76 13.6979 129.061 13.1788C129.364 12.657 129.529 12.0475 129.634 11.4993C129.853 10.3672 129.943 8.80378 129.943 6.896H125.943ZM126.855 10.528H115.143V14.528H126.855V10.528ZM113.143 12.528V19.824H117.143V12.528H113.143ZM115.143 21.824H122.951V17.824H115.143V21.824ZM122.951 21.824C122.222 21.824 121.836 21.357 121.753 21.2305C121.693 21.1392 121.742 21.1749 121.813 21.4979C121.947 22.1136 122.039 23.1869 122.039 24.816H126.039C126.039 23.1171 125.949 21.6944 125.721 20.6461C125.61 20.1371 125.432 19.5488 125.101 19.0415C124.746 18.499 124.043 17.824 122.951 17.824V21.824ZM122.039 24.816C122.039 26.4256 121.952 27.4908 121.825 28.1051C121.757 28.4286 121.71 28.4677 121.766 28.378C121.835 28.2658 122.229 27.744 123.015 27.744V31.744C124.142 31.744 124.834 31.0169 125.16 30.494C125.472 29.9937 125.637 29.4167 125.741 28.9189C125.955 27.8905 126.039 26.4917 126.039 24.816H122.039ZM123.015 27.744H115.143V31.744H123.015V27.744ZM113.143 29.744V45.168H117.143V29.744H113.143ZM113.143 45.168C113.143 44.8206 113.275 44.5127 113.449 44.3022C113.594 44.1261 113.718 44.0781 113.679 44.0965C113.647 44.1113 113.543 44.1536 113.33 44.2021C113.123 44.2493 112.85 44.2943 112.501 44.331L112.92 48.309C113.803 48.2161 114.679 48.0489 115.391 47.7115C116.1 47.3757 117.143 46.5972 117.143 45.168H113.143ZM112.443 44.338C110.914 44.5446 109.688 44.64 108.743 44.64V48.64C109.931 48.64 111.35 48.5221 112.979 48.302L112.443 44.338ZM108.828 44.6418L105.82 44.5138L105.65 48.5102L108.658 48.6382L108.828 44.6418ZM105.978 44.5268C104.985 44.4052 104.412 44.2598 104.139 44.1483C104.001 44.092 104.067 44.0948 104.194 44.2193C104.356 44.3772 104.599 44.7272 104.599 45.232H100.599C100.599 46.8952 102.047 47.6148 102.627 47.8517C103.399 48.1669 104.394 48.3628 105.492 48.4972L105.978 44.5268ZM104.599 45.232V2.864H100.599V45.232H104.599ZM104.599 2.864C104.599 2.75419 104.604 2.67463 104.61 2.62098C104.616 2.56633 104.622 2.55105 104.618 2.56544C104.614 2.57904 104.544 2.82238 104.263 3.05644L101.702 -0.0164466C101.166 0.430947 100.904 1.00495 100.772 1.46656C100.639 1.93119 100.599 2.41468 100.599 2.864H104.599ZM104.145 3.14746C104.054 3.21243 103.995 3.22454 104.012 3.22028C104.032 3.21534 104.109 3.2 104.263 3.2V-0.800003C103.492 -0.800003 102.591 -0.658274 101.82 -0.107471L104.145 3.14746ZM104.263 3.2H126.855V-0.800003H104.263V3.2ZM137.458 40.752L136.013 42.1345L136.021 42.1426L137.458 40.752ZM137.522 6.448L136.1 5.0416L136.092 5.04958L137.522 6.448ZM166.962 6.384L165.524 7.77406L165.532 7.78205L166.962 6.384ZM166.834 41.008L168.24 42.4302L168.248 42.4222L166.834 41.008ZM146.994 15.728L145.394 14.528L145.385 14.5398L145.377 14.5517L146.994 15.728ZM146.93 31.472L145.308 32.6416L145.314 32.6507L145.321 32.6597L146.93 31.472ZM157.362 31.408L155.758 30.214L155.749 30.2261L155.74 30.2384L157.362 31.408ZM157.298 15.664L155.694 16.858L155.703 16.8699L155.712 16.8816L157.298 15.664ZM152.114 44.64C146.627 44.64 142.279 42.8586 138.896 39.3614L136.021 42.1426C140.232 46.496 145.655 48.64 152.114 48.64V44.64ZM138.904 39.3696C135.622 35.9392 133.826 30.7938 133.826 23.6H129.826C129.826 31.4249 131.785 37.7141 136.013 42.1344L138.904 39.3696ZM133.826 23.6C133.826 16.3637 135.643 11.2297 138.952 7.84641L136.092 5.04958C131.807 9.43164 129.826 15.7323 129.826 23.6H133.826ZM138.944 7.85438C142.369 4.39205 146.765 2.624 152.306 2.624V-1.376C145.816 -1.376 140.356 0.738612 136.1 5.04162L138.944 7.85438ZM152.306 2.624C157.903 2.624 162.241 4.37773 165.524 7.77404L168.4 4.99395C164.259 0.710268 158.827 -1.376 152.306 -1.376V2.624ZM165.532 7.78205C168.74 11.0633 170.53 16.2449 170.53 23.728H174.53C174.53 15.6804 172.609 9.29936 168.392 4.98595L165.532 7.78205ZM170.53 23.728C170.53 31.1537 168.704 36.3094 165.42 39.5938L168.248 42.4222C172.559 38.1119 174.53 31.7477 174.53 23.728H170.53ZM165.428 39.5858C162.054 42.9222 157.676 44.64 152.114 44.64V48.64C158.584 48.64 164.02 46.6031 168.24 42.4302L165.428 39.5858ZM152.178 10.912C149.403 10.912 147.117 12.2308 145.394 14.528L148.594 16.928C149.687 15.4705 150.858 14.912 152.178 14.912V10.912ZM145.377 14.5517C143.671 16.8977 142.946 20.0178 142.946 23.664H146.946C146.946 20.4836 147.587 18.313 148.612 16.9043L145.377 14.5517ZM142.946 23.664C142.946 27.2592 143.646 30.3363 145.308 32.6416L148.553 30.3024C147.569 28.9383 146.946 26.8101 146.946 23.664H142.946ZM145.321 32.6597C147.001 34.9361 149.314 36.16 152.114 36.16V32.16C150.648 32.16 149.505 31.5919 148.539 30.2843L145.321 32.6597ZM152.114 36.16C154.962 36.16 157.304 34.9094 158.985 32.5776L155.74 30.2384C154.776 31.5759 153.618 32.16 152.114 32.16V36.16ZM158.967 32.602C160.688 30.2896 161.41 27.1779 161.41 23.536H157.41C157.41 26.7207 156.768 28.8571 155.758 30.214L158.967 32.602ZM161.41 23.536C161.41 19.8833 160.662 16.7619 158.885 14.4464L155.712 16.8816C156.751 18.2355 157.41 20.362 157.41 23.536H161.41ZM158.903 14.47C157.211 12.1963 154.939 10.912 152.178 10.912V14.912C153.514 14.912 154.655 15.4624 155.694 16.858L158.903 14.47Z" fill="white" mask="url(#path-1-inside-1_22_2)"/>
</svg>
