<svg width="33" height="33" viewBox="0 0 33 33" fill="none" xmlns="http://www.w3.org/2000/svg">
<rect x="0.0819702" width="32" height="32" rx="10" fill="black"/>
<path d="M20.1294 10.2519L20.298 10.3744L20.6904 10.4059L20.7063 10.2065L21.491 10.2694L21.475 10.4688L22.2596 10.5317L22.2756 10.3323L23.0602 10.3952L23.0443 10.5946L23.8289 10.6575L23.8449 10.4581L24.6295 10.521L24.6135 10.7204L25.3982 10.7833L25.4141 10.584L26.1988 10.6469L26.1828 10.8462L26.9674 10.9091L26.9834 10.7098L27.768 10.7727L27.752 10.972L28.5367 11.0349L28.5527 10.8356L29.3373 10.8985L29.3213 11.0978L30.1059 11.1607L30.1219 10.9614L30.9066 11.0243L30.8976 11.1361L30.8699 11.1599L30.8935 11.1875L30.8906 11.2236L30.927 11.2266L31 11.3118L30.4022 11.8239L30.2721 11.672L29.6742 12.184L29.8044 12.3359L29.2065 12.848L29.0764 12.6961L28.4786 13.2082L28.6087 13.3601L28.0109 13.8722L27.8808 13.7203L27.283 14.2324L27.4131 14.3843L26.8153 14.8964L26.6852 14.7445L26.0874 15.2566L26.2175 15.4085L25.6197 15.9205L25.4896 15.7686L24.8918 16.2807L25.0219 16.4326L24.4241 16.9447L24.294 16.7928L23.6962 17.3049L23.8263 17.4568L23.2285 17.9689L23.0984 17.817L22.7995 18.073L22.735 18.2713L22.8264 18.6542L23.0209 18.6078L23.2035 19.3734L23.009 19.4198L23.1916 20.1855L23.3862 20.1391L23.5688 20.9048L23.3743 20.9512L23.5569 21.7168L23.7515 21.6704L23.9341 22.4361L23.7396 22.4825L23.9222 23.2482L24.1167 23.2018L24.2994 23.9674L24.1048 24.0138L24.2875 24.7795L24.482 24.7331L24.6647 25.4988L24.4701 25.5452L24.6528 26.3108L24.8473 26.2644L25.0299 27.0301L24.8354 27.0765L25.018 27.8422L25.2126 27.7958L25.3952 28.5614L25.2861 28.5875L25.2549 28.5684L25.236 28.5994L25.2007 28.6078L25.2091 28.6434L25.1507 28.7391L24.4789 28.3288L24.5832 28.1581L23.9114 27.7478L23.8071 27.9185L23.1354 27.5082L23.2396 27.3375L22.5679 26.9272L22.4636 27.0979L21.7919 26.6876L21.8961 26.5169L21.2244 26.1066L21.1201 26.2773L20.4484 25.867L20.5526 25.6963L19.8809 25.286L19.7766 25.4567L19.1049 25.0464L19.2091 24.8757L18.5374 24.4654L18.4331 24.6361L17.7614 24.2258L17.8656 24.0551L17.1939 23.6448L17.0896 23.8155L16.4178 23.4052L16.5221 23.2345L16.1862 23.0293H15.9777L15.6418 23.2345L15.7461 23.4052L15.0743 23.8155L14.9701 23.6448L14.2983 24.0551L14.4026 24.2258L13.7308 24.6361L13.6266 24.4654L12.9548 24.8757L13.0591 25.0464L12.3873 25.4567L12.2831 25.286L11.6113 25.6963L11.7156 25.867L11.0438 26.2773L10.9396 26.1066L10.2678 26.5169L10.3721 26.6876L9.7003 27.0979L9.59605 26.9272L8.9243 27.3375L9.02855 27.5082L8.35679 27.9185L8.25254 27.7478L7.58079 28.1581L7.68504 28.3288L7.01328 28.7391L6.9548 28.6434L6.96327 28.6078L6.92796 28.5994L6.90903 28.5684L6.87787 28.5875L6.76873 28.5614L6.95137 27.7958L7.14591 27.8422L7.32855 27.0765L7.13401 27.0301L7.31665 26.2644L7.51119 26.3108L7.69383 25.5452L7.49929 25.4988L7.68193 24.7331L7.87647 24.7795L8.05911 24.0138L7.86457 23.9674L8.0472 23.2018L8.24175 23.2482L8.42439 22.4825L8.22985 22.4361L8.41248 21.6704L8.60703 21.7168L8.78967 20.9512L8.59512 20.9048L8.77776 20.1391L8.97231 20.1855L9.15495 19.4198L8.9604 19.3734L9.14304 18.6078L9.33759 18.6542L9.42891 18.2713L9.36448 18.073L9.06557 17.817L8.93546 17.9689L8.33765 17.4568L8.46776 17.3049L7.86996 16.7928L7.73984 16.9447L7.14204 16.4326L7.27215 16.2807L6.67434 15.7686L6.54423 15.9205L5.94642 15.4085L6.07654 15.2566L5.47873 14.7445L5.34862 14.8964L4.75081 14.3843L4.88092 14.2324L4.28312 13.7203L4.153 13.8722L3.5552 13.3601L3.68531 13.2082L3.0875 12.6961L2.95739 12.848L2.35958 12.3359L2.48969 12.184L1.89189 11.672L1.76178 11.8239L1.16397 11.3118L1.23697 11.2266L1.27337 11.2236L1.27046 11.1874L1.29408 11.1599L1.26635 11.1361L1.25738 11.0243L2.04202 10.9614L2.058 11.1607L2.84263 11.0978L2.82665 10.8985L3.61128 10.8356L3.62726 11.0349L4.41189 10.972L4.39591 10.7727L5.18054 10.7098L5.19653 10.9091L5.98116 10.8462L5.96518 10.6469L6.74981 10.584L6.76579 10.7833L7.55042 10.7204L7.53444 10.521L8.31907 10.4581L8.33505 10.6575L9.11969 10.5946L9.1037 10.3952L9.88834 10.3323L9.90432 10.5317L10.689 10.4688L10.673 10.2694L11.4576 10.2065L11.4736 10.4059L11.8659 10.3744L12.0346 10.2519L12.1857 9.88849L12.0011 9.81168L12.3034 9.08489L12.488 9.1617L12.7903 8.43491L12.6056 8.3581L12.9079 7.63131L13.0926 7.70811L13.3949 6.98132L13.2102 6.90452L13.5125 6.17772L13.6972 6.25453L13.9995 5.52774L13.8148 5.45093L14.1171 4.72414L14.3018 4.80095L14.604 4.07416L14.4194 3.99735L14.7217 3.27056L14.9063 3.34737L15.2086 2.62058L15.024 2.54377L15.3262 1.81698L15.5109 1.89378L15.8132 1.16699L15.6285 1.09019L15.9308 0.363396L16.0344 0.406486L16.0485 0.440203L16.082 0.426261L16.1155 0.440202L16.1295 0.406488L16.2331 0.363397L16.5354 1.09019L16.3507 1.16699L16.653 1.89378L16.8377 1.81698L17.14 2.54377L16.9553 2.62058L17.2576 3.34737L17.4423 3.27056L17.7446 3.99735L17.5599 4.07416L17.8622 4.80095L18.0469 4.72414L18.3491 5.45093L18.1645 5.52774L18.4668 6.25453L18.6514 6.17773L18.9537 6.90452L18.7691 6.98132L19.0713 7.70811L19.256 7.63131L19.5583 8.3581L19.3736 8.43491L19.6759 9.1617L19.8606 9.08489L20.1629 9.81168L19.9782 9.88849L20.1294 10.2519Z" fill="#FF8A00"/>
<path d="M20.1294 10.2519L20.298 10.3744L20.6904 10.4059L20.7063 10.2065L21.491 10.2694L21.475 10.4688L22.2596 10.5317L22.2756 10.3323L23.0602 10.3952L23.0443 10.5946L23.8289 10.6575L23.8449 10.4581L24.6295 10.521L24.6135 10.7204L25.3982 10.7833L25.4141 10.584L26.1988 10.6469L26.1828 10.8462L26.9674 10.9091L26.9834 10.7098L27.768 10.7727L27.752 10.972L28.5367 11.0349L28.5527 10.8356L29.3373 10.8985L29.3213 11.0978L30.1059 11.1607L30.1219 10.9614L30.9066 11.0243L30.8976 11.1361L30.8699 11.1599L30.8935 11.1875L30.8906 11.2236L30.927 11.2266L31 11.3118L30.4022 11.8239L30.2721 11.672L29.6742 12.184L29.8044 12.3359L29.2065 12.848L29.0764 12.6961L28.4786 13.2082L28.6087 13.3601L28.0109 13.8722L27.8808 13.7203L27.283 14.2324L27.4131 14.3843L26.8153 14.8964L26.6852 14.7445L26.0874 15.2566L26.2175 15.4085L25.6197 15.9205L25.4896 15.7686L24.8918 16.2807L25.0219 16.4326L24.4241 16.9447L24.294 16.7928L23.6962 17.3049L23.8263 17.4568L23.2285 17.9689L23.0984 17.817L22.7995 18.073L22.735 18.2713L22.8264 18.6542L23.0209 18.6078L23.2035 19.3734L23.009 19.4198L23.1916 20.1855L23.3862 20.1391L23.5688 20.9048L23.3743 20.9512L23.5569 21.7168L23.7515 21.6704L23.9341 22.4361L23.7396 22.4825L23.9222 23.2482L24.1167 23.2018L24.2994 23.9674L24.1048 24.0138L24.2875 24.7795L24.482 24.7331L24.6647 25.4988L24.4701 25.5452L24.6528 26.3108L24.8473 26.2644L25.0299 27.0301L24.8354 27.0765L25.018 27.8422L25.2126 27.7958L25.3952 28.5614L25.2861 28.5875L25.2549 28.5684L25.236 28.5994L25.2007 28.6078L25.2091 28.6434L25.1507 28.7391L24.4789 28.3288L24.5832 28.1581L23.9114 27.7478L23.8071 27.9185L23.1354 27.5082L23.2396 27.3375L22.5679 26.9272L22.4636 27.0979L21.7919 26.6876L21.8961 26.5169L21.2244 26.1066L21.1201 26.2773L20.4484 25.867L20.5526 25.6963L19.8809 25.286L19.7766 25.4567L19.1049 25.0464L19.2091 24.8757L18.5374 24.4654L18.4331 24.6361L17.7614 24.2258L17.8656 24.0551L17.1939 23.6448L17.0896 23.8155L16.4178 23.4052L16.5221 23.2345L16.1862 23.0293H15.9777L15.6418 23.2345L15.7461 23.4052L15.0743 23.8155L14.9701 23.6448L14.2983 24.0551L14.4026 24.2258L13.7308 24.6361L13.6266 24.4654L12.9548 24.8757L13.0591 25.0464L12.3873 25.4567L12.2831 25.286L11.6113 25.6963L11.7156 25.867L11.0438 26.2773L10.9396 26.1066L10.2678 26.5169L10.3721 26.6876L9.7003 27.0979L9.59605 26.9272L8.9243 27.3375L9.02855 27.5082L8.35679 27.9185L8.25254 27.7478L7.58079 28.1581L7.68504 28.3288L7.01328 28.7391L6.9548 28.6434L6.96327 28.6078L6.92796 28.5994L6.90903 28.5684L6.87787 28.5875L6.76873 28.5614L6.95137 27.7958L7.14591 27.8422L7.32855 27.0765L7.13401 27.0301L7.31665 26.2644L7.51119 26.3108L7.69383 25.5452L7.49929 25.4988L7.68193 24.7331L7.87647 24.7795L8.05911 24.0138L7.86457 23.9674L8.0472 23.2018L8.24175 23.2482L8.42439 22.4825L8.22985 22.4361L8.41248 21.6704L8.60703 21.7168L8.78967 20.9512L8.59512 20.9048L8.77776 20.1391L8.97231 20.1855L9.15495 19.4198L8.9604 19.3734L9.14304 18.6078L9.33759 18.6542L9.42891 18.2713L9.36448 18.073L9.06557 17.817L8.93546 17.9689L8.33765 17.4568L8.46776 17.3049L7.86996 16.7928L7.73984 16.9447L7.14204 16.4326L7.27215 16.2807L6.67434 15.7686L6.54423 15.9205L5.94642 15.4085L6.07654 15.2566L5.47873 14.7445L5.34862 14.8964L4.75081 14.3843L4.88092 14.2324L4.28312 13.7203L4.153 13.8722L3.5552 13.3601L3.68531 13.2082L3.0875 12.6961L2.95739 12.848L2.35958 12.3359L2.48969 12.184L1.89189 11.672L1.76178 11.8239L1.16397 11.3118L1.23697 11.2266L1.27337 11.2236L1.27046 11.1874L1.29408 11.1599L1.26635 11.1361L1.25738 11.0243L2.04202 10.9614L2.058 11.1607L2.84263 11.0978L2.82665 10.8985L3.61128 10.8356L3.62726 11.0349L4.41189 10.972L4.39591 10.7727L5.18054 10.7098L5.19653 10.9091L5.98116 10.8462L5.96518 10.6469L6.74981 10.584L6.76579 10.7833L7.55042 10.7204L7.53444 10.521L8.31907 10.4581L8.33505 10.6575L9.11969 10.5946L9.1037 10.3952L9.88834 10.3323L9.90432 10.5317L10.689 10.4688L10.673 10.2694L11.4576 10.2065L11.4736 10.4059L11.8659 10.3744L12.0346 10.2519L12.1857 9.88849L12.0011 9.81168L12.3034 9.08489L12.488 9.1617L12.7903 8.43491L12.6056 8.3581L12.9079 7.63131L13.0926 7.70811L13.3949 6.98132L13.2102 6.90452L13.5125 6.17772L13.6972 6.25453L13.9995 5.52774L13.8148 5.45093L14.1171 4.72414L14.3018 4.80095L14.604 4.07416L14.4194 3.99735L14.7217 3.27056L14.9063 3.34737L15.2086 2.62058L15.024 2.54377L15.3262 1.81698L15.5109 1.89378L15.8132 1.16699L15.6285 1.09019L15.9308 0.363396L16.0344 0.406486L16.0485 0.440203L16.082 0.426261L16.1155 0.440202L16.1295 0.406488L16.2331 0.363397L16.5354 1.09019L16.3507 1.16699L16.653 1.89378L16.8377 1.81698L17.14 2.54377L16.9553 2.62058L17.2576 3.34737L17.4423 3.27056L17.7446 3.99735L17.5599 4.07416L17.8622 4.80095L18.0469 4.72414L18.3491 5.45093L18.1645 5.52774L18.4668 6.25453L18.6514 6.17773L18.9537 6.90452L18.7691 6.98132L19.0713 7.70811L19.256 7.63131L19.5583 8.3581L19.3736 8.43491L19.6759 9.1617L19.8606 9.08489L20.1629 9.81168L19.9782 9.88849L20.1294 10.2519Z" stroke="#FF0000" stroke-width="0.4" stroke-linejoin="bevel" stroke-dasharray="0.8 0.8"/>
<path d="M20.1294 10.2519L20.298 10.3744L20.6904 10.4059L20.7063 10.2065L21.491 10.2694L21.475 10.4688L22.2596 10.5317L22.2756 10.3323L23.0602 10.3952L23.0443 10.5946L23.8289 10.6575L23.8449 10.4581L24.6295 10.521L24.6135 10.7204L25.3982 10.7833L25.4141 10.584L26.1988 10.6469L26.1828 10.8462L26.9674 10.9091L26.9834 10.7098L27.768 10.7727L27.752 10.972L28.5367 11.0349L28.5527 10.8356L29.3373 10.8985L29.3213 11.0978L30.1059 11.1607L30.1219 10.9614L30.9066 11.0243L30.8976 11.1361L30.8699 11.1599L30.8935 11.1875L30.8906 11.2236L30.927 11.2266L31 11.3118L30.4022 11.8239L30.2721 11.672L29.6742 12.184L29.8044 12.3359L29.2065 12.848L29.0764 12.6961L28.4786 13.2082L28.6087 13.3601L28.0109 13.8722L27.8808 13.7203L27.283 14.2324L27.4131 14.3843L26.8153 14.8964L26.6852 14.7445L26.0874 15.2566L26.2175 15.4085L25.6197 15.9205L25.4896 15.7686L24.8918 16.2807L25.0219 16.4326L24.4241 16.9447L24.294 16.7928L23.6962 17.3049L23.8263 17.4568L23.2285 17.9689L23.0984 17.817L22.7995 18.073L22.735 18.2713L22.8264 18.6542L23.0209 18.6078L23.2035 19.3734L23.009 19.4198L23.1916 20.1855L23.3862 20.1391L23.5688 20.9048L23.3743 20.9512L23.5569 21.7168L23.7515 21.6704L23.9341 22.4361L23.7396 22.4825L23.9222 23.2482L24.1167 23.2018L24.2994 23.9674L24.1048 24.0138L24.2875 24.7795L24.482 24.7331L24.6647 25.4988L24.4701 25.5452L24.6528 26.3108L24.8473 26.2644L25.0299 27.0301L24.8354 27.0765L25.018 27.8422L25.2126 27.7958L25.3952 28.5614L25.2861 28.5875L25.2549 28.5684L25.236 28.5994L25.2007 28.6078L25.2091 28.6434L25.1507 28.7391L24.4789 28.3288L24.5832 28.1581L23.9114 27.7478L23.8071 27.9185L23.1354 27.5082L23.2396 27.3375L22.5679 26.9272L22.4636 27.0979L21.7919 26.6876L21.8961 26.5169L21.2244 26.1066L21.1201 26.2773L20.4484 25.867L20.5526 25.6963L19.8809 25.286L19.7766 25.4567L19.1049 25.0464L19.2091 24.8757L18.5374 24.4654L18.4331 24.6361L17.7614 24.2258L17.8656 24.0551L17.1939 23.6448L17.0896 23.8155L16.4178 23.4052L16.5221 23.2345L16.1862 23.0293H15.9777L15.6418 23.2345L15.7461 23.4052L15.0743 23.8155L14.9701 23.6448L14.2983 24.0551L14.4026 24.2258L13.7308 24.6361L13.6266 24.4654L12.9548 24.8757L13.0591 25.0464L12.3873 25.4567L12.2831 25.286L11.6113 25.6963L11.7156 25.867L11.0438 26.2773L10.9396 26.1066L10.2678 26.5169L10.3721 26.6876L9.7003 27.0979L9.59605 26.9272L8.9243 27.3375L9.02855 27.5082L8.35679 27.9185L8.25254 27.7478L7.58079 28.1581L7.68504 28.3288L7.01328 28.7391L6.9548 28.6434L6.96327 28.6078L6.92796 28.5994L6.90903 28.5684L6.87787 28.5875L6.76873 28.5614L6.95137 27.7958L7.14591 27.8422L7.32855 27.0765L7.13401 27.0301L7.31665 26.2644L7.51119 26.3108L7.69383 25.5452L7.49929 25.4988L7.68193 24.7331L7.87647 24.7795L8.05911 24.0138L7.86457 23.9674L8.0472 23.2018L8.24175 23.2482L8.42439 22.4825L8.22985 22.4361L8.41248 21.6704L8.60703 21.7168L8.78967 20.9512L8.59512 20.9048L8.77776 20.1391L8.97231 20.1855L9.15495 19.4198L8.9604 19.3734L9.14304 18.6078L9.33759 18.6542L9.42891 18.2713L9.36448 18.073L9.06557 17.817L8.93546 17.9689L8.33765 17.4568L8.46776 17.3049L7.86996 16.7928L7.73984 16.9447L7.14204 16.4326L7.27215 16.2807L6.67434 15.7686L6.54423 15.9205L5.94642 15.4085L6.07654 15.2566L5.47873 14.7445L5.34862 14.8964L4.75081 14.3843L4.88092 14.2324L4.28312 13.7203L4.153 13.8722L3.5552 13.3601L3.68531 13.2082L3.0875 12.6961L2.95739 12.848L2.35958 12.3359L2.48969 12.184L1.89189 11.672L1.76178 11.8239L1.16397 11.3118L1.23697 11.2266L1.27337 11.2236L1.27046 11.1874L1.29408 11.1599L1.26635 11.1361L1.25738 11.0243L2.04202 10.9614L2.058 11.1607L2.84263 11.0978L2.82665 10.8985L3.61128 10.8356L3.62726 11.0349L4.41189 10.972L4.39591 10.7727L5.18054 10.7098L5.19653 10.9091L5.98116 10.8462L5.96518 10.6469L6.74981 10.584L6.76579 10.7833L7.55042 10.7204L7.53444 10.521L8.31907 10.4581L8.33505 10.6575L9.11969 10.5946L9.1037 10.3952L9.88834 10.3323L9.90432 10.5317L10.689 10.4688L10.673 10.2694L11.4576 10.2065L11.4736 10.4059L11.8659 10.3744L12.0346 10.2519L12.1857 9.88849L12.0011 9.81168L12.3034 9.08489L12.488 9.1617L12.7903 8.43491L12.6056 8.3581L12.9079 7.63131L13.0926 7.70811L13.3949 6.98132L13.2102 6.90452L13.5125 6.17772L13.6972 6.25453L13.9995 5.52774L13.8148 5.45093L14.1171 4.72414L14.3018 4.80095L14.604 4.07416L14.4194 3.99735L14.7217 3.27056L14.9063 3.34737L15.2086 2.62058L15.024 2.54377L15.3262 1.81698L15.5109 1.89378L15.8132 1.16699L15.6285 1.09019L15.9308 0.363396L16.0344 0.406486L16.0485 0.440203L16.082 0.426261L16.1155 0.440202L16.1295 0.406488L16.2331 0.363397L16.5354 1.09019L16.3507 1.16699L16.653 1.89378L16.8377 1.81698L17.14 2.54377L16.9553 2.62058L17.2576 3.34737L17.4423 3.27056L17.7446 3.99735L17.5599 4.07416L17.8622 4.80095L18.0469 4.72414L18.3491 5.45093L18.1645 5.52774L18.4668 6.25453L18.6514 6.17773L18.9537 6.90452L18.7691 6.98132L19.0713 7.70811L19.256 7.63131L19.5583 8.3581L19.3736 8.43491L19.6759 9.1617L19.8606 9.08489L20.1629 9.81168L19.9782 9.88849L20.1294 10.2519Z" stroke="#FF002E" stroke-opacity="0.8" stroke-width="0.4" stroke-linejoin="bevel" stroke-dasharray="0.8 0.8"/>
<path d="M22.0275 14.4943L22.0978 14.7186L22.4311 14.9662L22.5503 14.8056L23.2169 15.3008L23.0976 15.4613L23.7642 15.9565L23.8834 15.7959L24.55 16.2911L24.4307 16.4516L25.0973 16.9467L25.2165 16.7862L25.8831 17.2813L25.7638 17.4419L26.4304 17.937L26.5497 17.7765L27.2162 18.2716L27.0969 18.4322L27.7635 18.9273L27.8828 18.7667L28.5493 19.2619L28.4301 19.4224L29.0966 19.9176L29.2159 19.757L29.8824 20.2522L29.7632 20.4127L30.4297 20.9078L30.549 20.7473L31.2155 21.2424L31.1831 21.2861L31.1358 21.2856L31.1351 21.3507L31.0963 21.403L31.1342 21.4312L31.1337 21.4856L30.3034 21.4768L30.3055 21.2768L29.4752 21.2681L29.4731 21.468L28.6428 21.4593L28.6449 21.2593L27.8146 21.2505L27.8125 21.4505L26.9822 21.4417L26.9843 21.2417L26.154 21.2329L26.1519 21.4329L25.3216 21.4241L25.3238 21.2241L24.4935 21.2154L24.4914 21.4153L23.6611 21.4066L23.6632 21.2066L22.8329 21.1978L22.8308 21.3978L22.0005 21.389L22.0026 21.189L21.1723 21.1802L21.1702 21.3802L20.3399 21.3714L20.342 21.1714L19.9269 21.167L19.7352 21.3032L19.6028 21.6967L19.7923 21.7605L19.5274 22.5474L19.3378 22.4836L19.0729 23.2706L19.2625 23.3344L18.9975 24.1213L18.808 24.0575L18.5431 24.8444L18.7326 24.9082L18.4677 25.6952L18.2781 25.6314L18.0132 26.4183L18.2027 26.4821L17.9378 27.2691L17.7483 27.2052L17.4833 27.9922L17.6729 28.056L17.408 28.8429L17.2184 28.7791L16.9535 29.566L17.143 29.6299L16.8781 30.4168L16.6886 30.353L16.4236 31.1399L16.6132 31.2037L16.3483 31.9907L16.2967 31.9733L16.2825 31.9282L16.2204 31.9476L16.1587 31.9269L16.1436 31.9717L16.0917 31.988L15.8435 31.1956L16.0343 31.1358L15.7861 30.3434L15.5952 30.4032L15.347 29.6109L15.5379 29.5511L15.2897 28.7587L15.0988 28.8185L14.8506 28.0261L15.0414 27.9663L14.7932 27.174L14.6024 27.2338L14.3542 26.4414L14.545 26.3816L14.2968 25.5892L14.1059 25.649L13.8577 24.8567L14.0486 24.7969L13.8004 24.0045L13.6095 24.0643L13.3613 23.2719L13.5521 23.2122L13.3039 22.4198L13.1131 22.4796L12.8648 21.6872L13.0557 21.6274L12.9316 21.2312L12.7428 21.091L12.3277 21.0866L12.3256 21.2866L11.4953 21.2779L11.4974 21.0779L10.6671 21.0691L10.665 21.2691L9.83472 21.2603L9.83684 21.0603L9.00655 21.0515L9.00443 21.2515L8.17415 21.2427L8.17626 21.0427L7.34597 21.0339L7.34386 21.2339L6.51357 21.2251L6.51569 21.0252L5.6854 21.0164L5.68328 21.2164L4.85299 21.2076L4.85511 21.0076L4.02482 20.9988L4.02271 21.1988L3.19242 21.19L3.19453 20.99L2.36425 20.9812L2.36213 21.1812L1.53184 21.1724L1.53242 21.118L1.57098 21.0906L1.53327 21.0376L1.53396 20.9725L1.48666 20.972L1.45514 20.9276L2.13202 20.4467L2.24786 20.6097L2.92474 20.1288L2.8089 19.9657L3.48578 19.4848L3.60162 19.6479L4.2785 19.1669L4.16266 19.0039L4.83954 18.523L4.95538 18.686L5.63226 18.2051L5.51642 18.042L6.1933 17.5611L6.30914 17.7242L6.98602 17.2432L6.87018 17.0802L7.54706 16.5993L7.6629 16.7623L8.33978 16.2814L8.22394 16.1183L8.90082 15.6374L9.01666 15.8005L9.69354 15.3195L9.5777 15.1565L10.2546 14.6756L10.3704 14.8386L10.7089 14.5981L10.7839 14.3753L10.6598 13.9791L10.4689 14.0389L10.2207 13.2466L10.4115 13.1868L10.1633 12.3944L9.97247 12.4542L9.72425 11.6618L9.91511 11.602L9.66689 10.8097L9.47603 10.8695L9.22782 10.0771L9.41867 10.0173L9.17045 9.22494L8.9796 9.28473L8.73138 8.49237L8.92223 8.43258L8.67401 7.64021L8.48316 7.7L8.23494 6.90764L8.42579 6.84785L8.17757 6.05549L7.98672 6.11527L7.7385 5.32291L7.92936 5.26312L7.68114 4.47075L7.49028 4.53054L7.24206 3.73818L7.294 3.72191L7.33197 3.75011L7.37079 3.69785L7.43292 3.67839L7.41878 3.63325L7.45123 3.58956L8.11778 4.0847L7.99852 4.24525L8.66508 4.74039L8.78434 4.57984L9.45089 5.07498L9.33163 5.23553L9.99818 5.73066L10.1174 5.57011L10.784 6.06525L10.6647 6.2258L11.3313 6.72094L11.4506 6.56039L12.1171 7.05552L11.9978 7.21608L12.6644 7.71121L12.7837 7.55066L13.4502 8.0458L13.331 8.20635L13.9975 8.70149L14.1168 8.54094L14.7833 9.03607L14.6641 9.19662L15.3306 9.69176L15.4499 9.53121L16.1164 10.0263L15.9972 10.1869L16.3304 10.4345L16.5655 10.437L16.904 10.1965L16.7881 10.0335L17.465 9.55253L17.5809 9.71557L18.2577 9.23464L18.1419 9.0716L18.8188 8.59068L18.9346 8.75372L19.6115 8.27279L19.4957 8.10976L20.1725 7.62883L20.2884 7.79187L20.9653 7.31094L20.8494 7.14791L21.5263 6.66698L21.6421 6.83002L22.319 6.3491L22.2032 6.18606L22.8801 5.70513L22.9959 5.86817L23.6728 5.38725L23.5569 5.22421L24.2338 4.74328L24.3497 4.90632L25.0265 4.4254L24.9107 4.26236L25.5876 3.78143L25.6191 3.8258L25.604 3.87063L25.6657 3.8914L25.7034 3.94447L25.742 3.91708L25.7936 3.93444L25.5286 4.72138L25.3391 4.65757L25.0742 5.4445L25.2637 5.50831L24.9988 6.29525L24.8092 6.23144L24.5443 7.01837L24.7339 7.08219L24.4689 7.86912L24.2794 7.80531L24.0145 8.59225L24.204 8.65606L23.9391 9.443L23.7495 9.37918L23.4846 10.1661L23.6741 10.2299L23.4092 11.0169L23.2197 10.9531L22.9547 11.74L23.1443 11.8038L22.8794 12.5907L22.6898 12.5269L22.4249 13.3139L22.6144 13.3777L22.3495 14.1646L22.16 14.1008L22.0275 14.4943Z" fill="#FF8A00"/>
<path d="M22.0275 14.4943L22.0978 14.7186L22.4311 14.9662L22.5503 14.8056L23.2169 15.3008L23.0976 15.4613L23.7642 15.9565L23.8834 15.7959L24.55 16.2911L24.4307 16.4516L25.0973 16.9467L25.2165 16.7862L25.8831 17.2813L25.7638 17.4419L26.4304 17.937L26.5497 17.7765L27.2162 18.2716L27.0969 18.4322L27.7635 18.9273L27.8828 18.7667L28.5493 19.2619L28.4301 19.4224L29.0966 19.9176L29.2159 19.757L29.8824 20.2522L29.7632 20.4127L30.4297 20.9078L30.549 20.7473L31.2155 21.2424L31.1831 21.2861L31.1358 21.2856L31.1351 21.3507L31.0963 21.403L31.1342 21.4312L31.1337 21.4856L30.3034 21.4768L30.3055 21.2768L29.4752 21.2681L29.4731 21.468L28.6428 21.4593L28.6449 21.2593L27.8146 21.2505L27.8125 21.4505L26.9822 21.4417L26.9843 21.2417L26.154 21.2329L26.1519 21.4329L25.3216 21.4241L25.3238 21.2241L24.4935 21.2154L24.4914 21.4153L23.6611 21.4066L23.6632 21.2066L22.8329 21.1978L22.8308 21.3978L22.0005 21.389L22.0026 21.189L21.1723 21.1802L21.1702 21.3802L20.3399 21.3714L20.342 21.1714L19.9269 21.167L19.7352 21.3032L19.6028 21.6967L19.7923 21.7605L19.5274 22.5474L19.3378 22.4836L19.0729 23.2706L19.2625 23.3344L18.9975 24.1213L18.808 24.0575L18.5431 24.8444L18.7326 24.9082L18.4677 25.6952L18.2781 25.6314L18.0132 26.4183L18.2027 26.4821L17.9378 27.2691L17.7483 27.2052L17.4833 27.9922L17.6729 28.056L17.408 28.8429L17.2184 28.7791L16.9535 29.566L17.143 29.6299L16.8781 30.4168L16.6886 30.353L16.4236 31.1399L16.6132 31.2037L16.3483 31.9907L16.2967 31.9733L16.2825 31.9282L16.2204 31.9476L16.1587 31.9269L16.1436 31.9717L16.0917 31.988L15.8435 31.1956L16.0343 31.1358L15.7861 30.3434L15.5952 30.4032L15.347 29.6109L15.5379 29.5511L15.2897 28.7587L15.0988 28.8185L14.8506 28.0261L15.0414 27.9663L14.7932 27.174L14.6024 27.2338L14.3542 26.4414L14.545 26.3816L14.2968 25.5892L14.1059 25.649L13.8577 24.8567L14.0486 24.7969L13.8004 24.0045L13.6095 24.0643L13.3613 23.2719L13.5521 23.2122L13.3039 22.4198L13.1131 22.4796L12.8648 21.6872L13.0557 21.6274L12.9316 21.2312L12.7428 21.091L12.3277 21.0866L12.3256 21.2866L11.4953 21.2779L11.4974 21.0779L10.6671 21.0691L10.665 21.2691L9.83472 21.2603L9.83684 21.0603L9.00655 21.0515L9.00443 21.2515L8.17415 21.2427L8.17626 21.0427L7.34597 21.0339L7.34386 21.2339L6.51357 21.2251L6.51569 21.0252L5.6854 21.0164L5.68328 21.2164L4.85299 21.2076L4.85511 21.0076L4.02482 20.9988L4.02271 21.1988L3.19242 21.19L3.19453 20.99L2.36425 20.9812L2.36213 21.1812L1.53184 21.1724L1.53242 21.118L1.57098 21.0906L1.53327 21.0376L1.53396 20.9725L1.48666 20.972L1.45514 20.9276L2.13202 20.4467L2.24786 20.6097L2.92474 20.1288L2.8089 19.9657L3.48578 19.4848L3.60162 19.6479L4.2785 19.1669L4.16266 19.0039L4.83954 18.523L4.95538 18.686L5.63226 18.2051L5.51642 18.042L6.1933 17.5611L6.30914 17.7242L6.98602 17.2432L6.87018 17.0802L7.54706 16.5993L7.6629 16.7623L8.33978 16.2814L8.22394 16.1183L8.90082 15.6374L9.01666 15.8005L9.69354 15.3195L9.5777 15.1565L10.2546 14.6756L10.3704 14.8386L10.7089 14.5981L10.7839 14.3753L10.6598 13.9791L10.4689 14.0389L10.2207 13.2466L10.4115 13.1868L10.1633 12.3944L9.97247 12.4542L9.72425 11.6618L9.91511 11.602L9.66689 10.8097L9.47603 10.8695L9.22782 10.0771L9.41867 10.0173L9.17045 9.22494L8.9796 9.28473L8.73138 8.49237L8.92223 8.43258L8.67401 7.64021L8.48316 7.7L8.23494 6.90764L8.42579 6.84785L8.17757 6.05549L7.98672 6.11527L7.7385 5.32291L7.92936 5.26312L7.68114 4.47075L7.49028 4.53054L7.24206 3.73818L7.294 3.72191L7.33197 3.75011L7.37079 3.69785L7.43292 3.67839L7.41878 3.63325L7.45123 3.58956L8.11778 4.0847L7.99852 4.24525L8.66508 4.74039L8.78434 4.57984L9.45089 5.07498L9.33163 5.23553L9.99818 5.73066L10.1174 5.57011L10.784 6.06525L10.6647 6.2258L11.3313 6.72094L11.4506 6.56039L12.1171 7.05552L11.9978 7.21608L12.6644 7.71121L12.7837 7.55066L13.4502 8.0458L13.331 8.20635L13.9975 8.70149L14.1168 8.54094L14.7833 9.03607L14.6641 9.19662L15.3306 9.69176L15.4499 9.53121L16.1164 10.0263L15.9972 10.1869L16.3304 10.4345L16.5655 10.437L16.904 10.1965L16.7881 10.0335L17.465 9.55253L17.5809 9.71557L18.2577 9.23464L18.1419 9.0716L18.8188 8.59068L18.9346 8.75372L19.6115 8.27279L19.4957 8.10976L20.1725 7.62883L20.2884 7.79187L20.9653 7.31094L20.8494 7.14791L21.5263 6.66698L21.6421 6.83002L22.319 6.3491L22.2032 6.18606L22.8801 5.70513L22.9959 5.86817L23.6728 5.38725L23.5569 5.22421L24.2338 4.74328L24.3497 4.90632L25.0265 4.4254L24.9107 4.26236L25.5876 3.78143L25.6191 3.8258L25.604 3.87063L25.6657 3.8914L25.7034 3.94447L25.742 3.91708L25.7936 3.93444L25.5286 4.72138L25.3391 4.65757L25.0742 5.4445L25.2637 5.50831L24.9988 6.29525L24.8092 6.23144L24.5443 7.01837L24.7339 7.08219L24.4689 7.86912L24.2794 7.80531L24.0145 8.59225L24.204 8.65606L23.9391 9.443L23.7495 9.37918L23.4846 10.1661L23.6741 10.2299L23.4092 11.0169L23.2197 10.9531L22.9547 11.74L23.1443 11.8038L22.8794 12.5907L22.6898 12.5269L22.4249 13.3139L22.6144 13.3777L22.3495 14.1646L22.16 14.1008L22.0275 14.4943Z" stroke="#FF0000" stroke-width="0.4" stroke-linejoin="bevel" stroke-dasharray="0.8 0.8"/>
<path d="M22.0275 14.4943L22.0978 14.7186L22.4311 14.9662L22.5503 14.8056L23.2169 15.3008L23.0976 15.4613L23.7642 15.9565L23.8834 15.7959L24.55 16.2911L24.4307 16.4516L25.0973 16.9467L25.2165 16.7862L25.8831 17.2813L25.7638 17.4419L26.4304 17.937L26.5497 17.7765L27.2162 18.2716L27.0969 18.4322L27.7635 18.9273L27.8828 18.7667L28.5493 19.2619L28.4301 19.4224L29.0966 19.9176L29.2159 19.757L29.8824 20.2522L29.7632 20.4127L30.4297 20.9078L30.549 20.7473L31.2155 21.2424L31.1831 21.2861L31.1358 21.2856L31.1351 21.3507L31.0963 21.403L31.1342 21.4312L31.1337 21.4856L30.3034 21.4768L30.3055 21.2768L29.4752 21.2681L29.4731 21.468L28.6428 21.4593L28.6449 21.2593L27.8146 21.2505L27.8125 21.4505L26.9822 21.4417L26.9843 21.2417L26.154 21.2329L26.1519 21.4329L25.3216 21.4241L25.3238 21.2241L24.4935 21.2154L24.4914 21.4153L23.6611 21.4066L23.6632 21.2066L22.8329 21.1978L22.8308 21.3978L22.0005 21.389L22.0026 21.189L21.1723 21.1802L21.1702 21.3802L20.3399 21.3714L20.342 21.1714L19.9269 21.167L19.7352 21.3032L19.6028 21.6967L19.7923 21.7605L19.5274 22.5474L19.3378 22.4836L19.0729 23.2706L19.2625 23.3344L18.9975 24.1213L18.808 24.0575L18.5431 24.8444L18.7326 24.9082L18.4677 25.6952L18.2781 25.6314L18.0132 26.4183L18.2027 26.4821L17.9378 27.2691L17.7483 27.2052L17.4833 27.9922L17.6729 28.056L17.408 28.8429L17.2184 28.7791L16.9535 29.566L17.143 29.6299L16.8781 30.4168L16.6886 30.353L16.4236 31.1399L16.6132 31.2037L16.3483 31.9907L16.2967 31.9733L16.2825 31.9282L16.2204 31.9476L16.1587 31.9269L16.1436 31.9717L16.0917 31.988L15.8435 31.1956L16.0343 31.1358L15.7861 30.3434L15.5952 30.4032L15.347 29.6109L15.5379 29.5511L15.2897 28.7587L15.0988 28.8185L14.8506 28.0261L15.0414 27.9663L14.7932 27.174L14.6024 27.2338L14.3542 26.4414L14.545 26.3816L14.2968 25.5892L14.1059 25.649L13.8577 24.8567L14.0486 24.7969L13.8004 24.0045L13.6095 24.0643L13.3613 23.2719L13.5521 23.2122L13.3039 22.4198L13.1131 22.4796L12.8648 21.6872L13.0557 21.6274L12.9316 21.2312L12.7428 21.091L12.3277 21.0866L12.3256 21.2866L11.4953 21.2779L11.4974 21.0779L10.6671 21.0691L10.665 21.2691L9.83472 21.2603L9.83684 21.0603L9.00655 21.0515L9.00443 21.2515L8.17415 21.2427L8.17626 21.0427L7.34597 21.0339L7.34386 21.2339L6.51357 21.2251L6.51569 21.0252L5.6854 21.0164L5.68328 21.2164L4.85299 21.2076L4.85511 21.0076L4.02482 20.9988L4.02271 21.1988L3.19242 21.19L3.19453 20.99L2.36425 20.9812L2.36213 21.1812L1.53184 21.1724L1.53242 21.118L1.57098 21.0906L1.53327 21.0376L1.53396 20.9725L1.48666 20.972L1.45514 20.9276L2.13202 20.4467L2.24786 20.6097L2.92474 20.1288L2.8089 19.9657L3.48578 19.4848L3.60162 19.6479L4.2785 19.1669L4.16266 19.0039L4.83954 18.523L4.95538 18.686L5.63226 18.2051L5.51642 18.042L6.1933 17.5611L6.30914 17.7242L6.98602 17.2432L6.87018 17.0802L7.54706 16.5993L7.6629 16.7623L8.33978 16.2814L8.22394 16.1183L8.90082 15.6374L9.01666 15.8005L9.69354 15.3195L9.5777 15.1565L10.2546 14.6756L10.3704 14.8386L10.7089 14.5981L10.7839 14.3753L10.6598 13.9791L10.4689 14.0389L10.2207 13.2466L10.4115 13.1868L10.1633 12.3944L9.97247 12.4542L9.72425 11.6618L9.91511 11.602L9.66689 10.8097L9.47603 10.8695L9.22782 10.0771L9.41867 10.0173L9.17045 9.22494L8.9796 9.28473L8.73138 8.49237L8.92223 8.43258L8.67401 7.64021L8.48316 7.7L8.23494 6.90764L8.42579 6.84785L8.17757 6.05549L7.98672 6.11527L7.7385 5.32291L7.92936 5.26312L7.68114 4.47075L7.49028 4.53054L7.24206 3.73818L7.294 3.72191L7.33197 3.75011L7.37079 3.69785L7.43292 3.67839L7.41878 3.63325L7.45123 3.58956L8.11778 4.0847L7.99852 4.24525L8.66508 4.74039L8.78434 4.57984L9.45089 5.07498L9.33163 5.23553L9.99818 5.73066L10.1174 5.57011L10.784 6.06525L10.6647 6.2258L11.3313 6.72094L11.4506 6.56039L12.1171 7.05552L11.9978 7.21608L12.6644 7.71121L12.7837 7.55066L13.4502 8.0458L13.331 8.20635L13.9975 8.70149L14.1168 8.54094L14.7833 9.03607L14.6641 9.19662L15.3306 9.69176L15.4499 9.53121L16.1164 10.0263L15.9972 10.1869L16.3304 10.4345L16.5655 10.437L16.904 10.1965L16.7881 10.0335L17.465 9.55253L17.5809 9.71557L18.2577 9.23464L18.1419 9.0716L18.8188 8.59068L18.9346 8.75372L19.6115 8.27279L19.4957 8.10976L20.1725 7.62883L20.2884 7.79187L20.9653 7.31094L20.8494 7.14791L21.5263 6.66698L21.6421 6.83002L22.319 6.3491L22.2032 6.18606L22.8801 5.70513L22.9959 5.86817L23.6728 5.38725L23.5569 5.22421L24.2338 4.74328L24.3497 4.90632L25.0265 4.4254L24.9107 4.26236L25.5876 3.78143L25.6191 3.8258L25.604 3.87063L25.6657 3.8914L25.7034 3.94447L25.742 3.91708L25.7936 3.93444L25.5286 4.72138L25.3391 4.65757L25.0742 5.4445L25.2637 5.50831L24.9988 6.29525L24.8092 6.23144L24.5443 7.01837L24.7339 7.08219L24.4689 7.86912L24.2794 7.80531L24.0145 8.59225L24.204 8.65606L23.9391 9.443L23.7495 9.37918L23.4846 10.1661L23.6741 10.2299L23.4092 11.0169L23.2197 10.9531L22.9547 11.74L23.1443 11.8038L22.8794 12.5907L22.6898 12.5269L22.4249 13.3139L22.6144 13.3777L22.3495 14.1646L22.16 14.1008L22.0275 14.4943Z" stroke="#FF002E" stroke-opacity="0.8" stroke-width="0.4" stroke-linejoin="bevel" stroke-dasharray="0.8 0.8"/>
<mask id="path-4-outside-1_28_7" maskUnits="userSpaceOnUse" x="5.08197" y="7" width="22" height="18" fill="black">
<rect fill="white" x="5.08197" y="7" width="22" height="18"/>
<path d="M7.57267 18.12C7.82601 18.32 8.25934 18.5933 8.87267 18.94C9.49934 19.2867 10.0927 19.46 10.6527 19.46C11.226 19.46 11.5127 19.24 11.5127 18.8C11.5127 18.6 11.4327 18.4267 11.2727 18.28C11.1127 18.12 10.8193 17.94 10.3927 17.74C9.96601 17.54 9.64601 17.3867 9.43267 17.28C9.21934 17.16 8.93267 16.9733 8.57267 16.72C8.22601 16.4533 7.95934 16.18 7.77267 15.9C7.23934 15.14 6.97267 14.1733 6.97267 13C6.97267 11.8267 7.40601 10.84 8.27267 10.04C9.15267 9.22667 10.2993 8.82 11.7127 8.82C12.6727 8.82 13.5593 8.92667 14.3727 9.14C15.186 9.34 15.606 9.60667 15.6327 9.94C15.6327 9.98 15.6327 10.02 15.6327 10.06C15.6327 10.5267 15.486 11.12 15.1927 11.84C14.8993 12.5467 14.6927 12.94 14.5727 13.02C13.7193 12.58 12.9527 12.36 12.2727 12.36C11.606 12.36 11.2727 12.6 11.2727 13.08C11.2727 13.3733 11.5193 13.6333 12.0127 13.86C12.1193 13.9133 12.2727 13.9867 12.4727 14.08C12.6727 14.1733 12.8993 14.2867 13.1527 14.42C13.4193 14.54 13.6993 14.7 13.9927 14.9C14.2993 15.0867 14.626 15.34 14.9727 15.66C15.6793 16.3267 16.0327 17.2067 16.0327 18.3C16.0327 19.7267 15.6393 20.8933 14.8527 21.8C14.066 22.7067 12.8527 23.1733 11.2127 23.2C10.4127 23.2 9.68601 23.1333 9.03267 23C8.39267 22.8667 7.83267 22.6067 7.35267 22.22C6.87267 21.8333 6.63267 21.3667 6.63267 20.82C6.63267 20.2733 6.73267 19.7333 6.93267 19.2C7.13267 18.6533 7.34601 18.2933 7.57267 18.12ZM25.1577 9C25.3843 9 25.4977 9.59333 25.4977 10.78C25.4977 11.9533 25.3843 12.54 25.1577 12.54H21.4977V14.82H23.9377C24.1643 14.82 24.2777 15.34 24.2777 16.38C24.2777 17.4067 24.171 17.92 23.9577 17.92H21.4977V22.74C21.4977 22.9267 21.2443 23.0467 20.7377 23.1C20.2443 23.1667 19.831 23.2 19.4977 23.2L18.5577 23.16C17.9043 23.08 17.5777 22.9467 17.5777 22.76V9.52C17.5777 9.30667 17.6177 9.16667 17.6977 9.1C17.791 9.03333 17.9243 9 18.0977 9H25.1577Z"/>
</mask>
<path d="M7.57267 18.12C7.82601 18.32 8.25934 18.5933 8.87267 18.94C9.49934 19.2867 10.0927 19.46 10.6527 19.46C11.226 19.46 11.5127 19.24 11.5127 18.8C11.5127 18.6 11.4327 18.4267 11.2727 18.28C11.1127 18.12 10.8193 17.94 10.3927 17.74C9.96601 17.54 9.64601 17.3867 9.43267 17.28C9.21934 17.16 8.93267 16.9733 8.57267 16.72C8.22601 16.4533 7.95934 16.18 7.77267 15.9C7.23934 15.14 6.97267 14.1733 6.97267 13C6.97267 11.8267 7.40601 10.84 8.27267 10.04C9.15267 9.22667 10.2993 8.82 11.7127 8.82C12.6727 8.82 13.5593 8.92667 14.3727 9.14C15.186 9.34 15.606 9.60667 15.6327 9.94C15.6327 9.98 15.6327 10.02 15.6327 10.06C15.6327 10.5267 15.486 11.12 15.1927 11.84C14.8993 12.5467 14.6927 12.94 14.5727 13.02C13.7193 12.58 12.9527 12.36 12.2727 12.36C11.606 12.36 11.2727 12.6 11.2727 13.08C11.2727 13.3733 11.5193 13.6333 12.0127 13.86C12.1193 13.9133 12.2727 13.9867 12.4727 14.08C12.6727 14.1733 12.8993 14.2867 13.1527 14.42C13.4193 14.54 13.6993 14.7 13.9927 14.9C14.2993 15.0867 14.626 15.34 14.9727 15.66C15.6793 16.3267 16.0327 17.2067 16.0327 18.3C16.0327 19.7267 15.6393 20.8933 14.8527 21.8C14.066 22.7067 12.8527 23.1733 11.2127 23.2C10.4127 23.2 9.68601 23.1333 9.03267 23C8.39267 22.8667 7.83267 22.6067 7.35267 22.22C6.87267 21.8333 6.63267 21.3667 6.63267 20.82C6.63267 20.2733 6.73267 19.7333 6.93267 19.2C7.13267 18.6533 7.34601 18.2933 7.57267 18.12ZM25.1577 9C25.3843 9 25.4977 9.59333 25.4977 10.78C25.4977 11.9533 25.3843 12.54 25.1577 12.54H21.4977V14.82H23.9377C24.1643 14.82 24.2777 15.34 24.2777 16.38C24.2777 17.4067 24.171 17.92 23.9577 17.92H21.4977V22.74C21.4977 22.9267 21.2443 23.0467 20.7377 23.1C20.2443 23.1667 19.831 23.2 19.4977 23.2L18.5577 23.16C17.9043 23.08 17.5777 22.9467 17.5777 22.76V9.52C17.5777 9.30667 17.6177 9.16667 17.6977 9.1C17.791 9.03333 17.9243 9 18.0977 9H25.1577Z" fill="white"/>
<path d="M7.57267 18.12L8.19232 17.3351L7.58245 16.8536L6.96522 17.3256L7.57267 18.12ZM8.87267 18.94L8.3806 19.8106L8.38861 19.815L8.87267 18.94ZM11.2727 18.28L10.5656 18.9871L10.5809 19.0025L10.5969 19.0172L11.2727 18.28ZM10.3927 17.74L9.96824 18.6455L9.96824 18.6455L10.3927 17.74ZM9.43267 17.28L8.94241 18.1516L8.96366 18.1635L8.98546 18.1744L9.43267 17.28ZM8.57267 16.72L7.96296 17.5126L7.9798 17.5256L7.99718 17.5378L8.57267 16.72ZM7.77267 15.9L8.60472 15.3453L8.59809 15.3354L8.59123 15.3256L7.77267 15.9ZM8.27267 10.04L8.95095 10.7748L8.95142 10.7744L8.27267 10.04ZM14.3727 9.14L14.119 10.1073L14.1264 10.1092L14.1339 10.1111L14.3727 9.14ZM15.6327 9.94H16.6327V9.90006L16.6295 9.86025L15.6327 9.94ZM15.1927 11.84L16.1163 12.2234L16.1188 12.2173L15.1927 11.84ZM14.5727 13.02L14.1144 13.9088L14.6376 14.1786L15.1274 13.8521L14.5727 13.02ZM12.0127 13.86L12.4599 12.9656L12.4451 12.9582L12.4302 12.9513L12.0127 13.86ZM12.4727 14.08L12.0498 14.9862L12.0498 14.9862L12.4727 14.08ZM13.1527 14.42L12.6869 15.3049L12.7142 15.3193L12.7423 15.3319L13.1527 14.42ZM13.9927 14.9L13.4293 15.7262L13.4507 15.7408L13.4727 15.7542L13.9927 14.9ZM14.9727 15.66L15.6589 14.9326L15.651 14.9252L14.9727 15.66ZM14.8527 21.8L15.608 22.4554L15.608 22.4554L14.8527 21.8ZM11.2127 23.2V24.2H11.2208L11.2289 24.1999L11.2127 23.2ZM9.03267 23L8.82872 23.979L8.83271 23.9798L9.03267 23ZM7.35267 22.22L7.98 21.4412L7.98 21.4412L7.35267 22.22ZM6.93267 19.2L7.86903 19.5511L7.8718 19.5436L6.93267 19.2ZM6.95303 18.9049C7.2711 19.156 7.76214 19.461 8.38062 19.8106L9.36473 18.0694C8.75654 17.7257 8.38092 17.484 8.19232 17.3351L6.95303 18.9049ZM8.38861 19.815C9.12308 20.2213 9.88252 20.46 10.6527 20.46V18.46C10.3028 18.46 9.8756 18.352 9.35673 18.065L8.38861 19.815ZM10.6527 20.46C11.0392 20.46 11.5125 20.3907 11.9065 20.0883C12.3506 19.7474 12.5127 19.2555 12.5127 18.8H10.5127C10.5127 18.8027 10.5122 18.7583 10.5417 18.6904C10.5738 18.6165 10.6265 18.5496 10.6889 18.5017C10.7459 18.4579 10.7867 18.4485 10.7811 18.4499C10.7741 18.4517 10.7353 18.46 10.6527 18.46V20.46ZM12.5127 18.8C12.5127 18.294 12.2953 17.8609 11.9484 17.5428L10.5969 19.0172C10.5925 19.0131 10.5674 18.9882 10.5447 18.9391C10.5212 18.8881 10.5127 18.8376 10.5127 18.8H12.5127ZM11.9798 17.5729C11.6893 17.2824 11.2603 17.0423 10.8171 16.8345L9.96824 18.6455C10.1591 18.7349 10.304 18.8125 10.4097 18.8773C10.4619 18.9094 10.5004 18.9358 10.5277 18.9562C10.5555 18.9771 10.5661 18.9877 10.5656 18.9871L11.9798 17.5729ZM10.8171 16.8345C10.3922 16.6354 10.0815 16.4864 9.87989 16.3856L8.98546 18.1744C9.21048 18.2869 9.53976 18.4446 9.96824 18.6455L10.8171 16.8345ZM9.92293 16.4084C9.75326 16.313 9.49863 16.1488 9.14817 15.9022L7.99718 17.5378C8.36671 17.7978 8.68542 18.007 8.94241 18.1516L9.92293 16.4084ZM9.18238 15.9274C8.8978 15.7085 8.71571 15.5118 8.60472 15.3453L6.94062 16.4547C7.20297 16.8482 7.55421 17.1982 7.96296 17.5126L9.18238 15.9274ZM8.59123 15.3256C8.2038 14.7735 7.97267 14.0222 7.97267 13H5.97267C5.97267 14.3245 6.27488 15.5065 6.95412 16.4744L8.59123 15.3256ZM7.97267 13C7.97267 12.1074 8.28815 11.3866 8.95095 10.7748L7.59439 9.3052C6.52386 10.2934 5.97267 11.5459 5.97267 13H7.97267ZM8.95142 10.7744C9.61417 10.1618 10.5029 9.82 11.7127 9.82V7.82C10.0957 7.82 8.69118 8.2915 7.59393 9.30562L8.95142 10.7744ZM11.7127 9.82C12.5989 9.82 13.3992 9.91848 14.119 10.1073L14.6264 8.17272C13.7195 7.93485 12.7464 7.82 11.7127 7.82V9.82ZM14.1339 10.1111C14.4969 10.2003 14.6847 10.2853 14.7617 10.3342C14.7957 10.3558 14.7735 10.349 14.7368 10.2996C14.6941 10.2423 14.6459 10.1454 14.6359 10.0197L16.6295 9.86025C16.5807 9.25014 16.1744 8.86213 15.8337 8.64579C15.4907 8.428 15.0618 8.27967 14.6115 8.16893L14.1339 10.1111ZM14.6327 9.94C14.6327 9.94008 14.6327 9.94016 14.6327 9.94023C14.6327 9.94031 14.6327 9.94039 14.6327 9.94047C14.6327 9.94055 14.6327 9.94062 14.6327 9.9407C14.6327 9.94078 14.6327 9.94086 14.6327 9.94094C14.6327 9.94101 14.6327 9.94109 14.6327 9.94117C14.6327 9.94125 14.6327 9.94133 14.6327 9.94141C14.6327 9.94148 14.6327 9.94156 14.6327 9.94164C14.6327 9.94172 14.6327 9.9418 14.6327 9.94187C14.6327 9.94195 14.6327 9.94203 14.6327 9.94211C14.6327 9.94219 14.6327 9.94226 14.6327 9.94234C14.6327 9.94242 14.6327 9.9425 14.6327 9.94258C14.6327 9.94266 14.6327 9.94273 14.6327 9.94281C14.6327 9.94289 14.6327 9.94297 14.6327 9.94305C14.6327 9.94312 14.6327 9.9432 14.6327 9.94328C14.6327 9.94336 14.6327 9.94344 14.6327 9.94351C14.6327 9.94359 14.6327 9.94367 14.6327 9.94375C14.6327 9.94383 14.6327 9.94391 14.6327 9.94398C14.6327 9.94406 14.6327 9.94414 14.6327 9.94422C14.6327 9.9443 14.6327 9.94437 14.6327 9.94445C14.6327 9.94453 14.6327 9.94461 14.6327 9.94469C14.6327 9.94476 14.6327 9.94484 14.6327 9.94492C14.6327 9.945 14.6327 9.94508 14.6327 9.94516C14.6327 9.94523 14.6327 9.94531 14.6327 9.94539C14.6327 9.94547 14.6327 9.94555 14.6327 9.94562C14.6327 9.9457 14.6327 9.94578 14.6327 9.94586C14.6327 9.94594 14.6327 9.94601 14.6327 9.94609C14.6327 9.94617 14.6327 9.94625 14.6327 9.94633C14.6327 9.94641 14.6327 9.94648 14.6327 9.94656C14.6327 9.94664 14.6327 9.94672 14.6327 9.9468C14.6327 9.94687 14.6327 9.94695 14.6327 9.94703C14.6327 9.94711 14.6327 9.94719 14.6327 9.94726C14.6327 9.94734 14.6327 9.94742 14.6327 9.9475C14.6327 9.94758 14.6327 9.94766 14.6327 9.94773C14.6327 9.94781 14.6327 9.94789 14.6327 9.94797C14.6327 9.94805 14.6327 9.94812 14.6327 9.9482C14.6327 9.94828 14.6327 9.94836 14.6327 9.94844C14.6327 9.94851 14.6327 9.94859 14.6327 9.94867C14.6327 9.94875 14.6327 9.94883 14.6327 9.94891C14.6327 9.94898 14.6327 9.94906 14.6327 9.94914C14.6327 9.94922 14.6327 9.9493 14.6327 9.94937C14.6327 9.94945 14.6327 9.94953 14.6327 9.94961C14.6327 9.94969 14.6327 9.94976 14.6327 9.94984C14.6327 9.94992 14.6327 9.95 14.6327 9.95008C14.6327 9.95016 14.6327 9.95023 14.6327 9.95031C14.6327 9.95039 14.6327 9.95047 14.6327 9.95055C14.6327 9.95062 14.6327 9.9507 14.6327 9.95078C14.6327 9.95086 14.6327 9.95094 14.6327 9.95101C14.6327 9.95109 14.6327 9.95117 14.6327 9.95125C14.6327 9.95133 14.6327 9.95141 14.6327 9.95148C14.6327 9.95156 14.6327 9.95164 14.6327 9.95172C14.6327 9.9518 14.6327 9.95187 14.6327 9.95195C14.6327 9.95203 14.6327 9.95211 14.6327 9.95219C14.6327 9.95226 14.6327 9.95234 14.6327 9.95242C14.6327 9.9525 14.6327 9.95258 14.6327 9.95266C14.6327 9.95273 14.6327 9.95281 14.6327 9.95289C14.6327 9.95297 14.6327 9.95305 14.6327 9.95312C14.6327 9.9532 14.6327 9.95328 14.6327 9.95336C14.6327 9.95344 14.6327 9.95351 14.6327 9.95359C14.6327 9.95367 14.6327 9.95375 14.6327 9.95383C14.6327 9.95391 14.6327 9.95398 14.6327 9.95406C14.6327 9.95414 14.6327 9.95422 14.6327 9.9543C14.6327 9.95437 14.6327 9.95445 14.6327 9.95453C14.6327 9.95461 14.6327 9.95469 14.6327 9.95476C14.6327 9.95484 14.6327 9.95492 14.6327 9.955C14.6327 9.95508 14.6327 9.95516 14.6327 9.95523C14.6327 9.95531 14.6327 9.95539 14.6327 9.95547C14.6327 9.95555 14.6327 9.95562 14.6327 9.9557C14.6327 9.95578 14.6327 9.95586 14.6327 9.95594C14.6327 9.95601 14.6327 9.95609 14.6327 9.95617C14.6327 9.95625 14.6327 9.95633 14.6327 9.95641C14.6327 9.95648 14.6327 9.95656 14.6327 9.95664C14.6327 9.95672 14.6327 9.9568 14.6327 9.95687C14.6327 9.95695 14.6327 9.95703 14.6327 9.95711C14.6327 9.95719 14.6327 9.95726 14.6327 9.95734C14.6327 9.95742 14.6327 9.9575 14.6327 9.95758C14.6327 9.95766 14.6327 9.95773 14.6327 9.95781C14.6327 9.95789 14.6327 9.95797 14.6327 9.95805C14.6327 9.95812 14.6327 9.9582 14.6327 9.95828C14.6327 9.95836 14.6327 9.95844 14.6327 9.95851C14.6327 9.95859 14.6327 9.95867 14.6327 9.95875C14.6327 9.95883 14.6327 9.95891 14.6327 9.95898C14.6327 9.95906 14.6327 9.95914 14.6327 9.95922C14.6327 9.9593 14.6327 9.95937 14.6327 9.95945C14.6327 9.95953 14.6327 9.95961 14.6327 9.95969C14.6327 9.95976 14.6327 9.95984 14.6327 9.95992C14.6327 9.96 14.6327 9.96008 14.6327 9.96016C14.6327 9.96023 14.6327 9.96031 14.6327 9.96039C14.6327 9.96047 14.6327 9.96055 14.6327 9.96062C14.6327 9.9607 14.6327 9.96078 14.6327 9.96086C14.6327 9.96094 14.6327 9.96101 14.6327 9.96109C14.6327 9.96117 14.6327 9.96125 14.6327 9.96133C14.6327 9.96141 14.6327 9.96148 14.6327 9.96156C14.6327 9.96164 14.6327 9.96172 14.6327 9.9618C14.6327 9.96187 14.6327 9.96195 14.6327 9.96203C14.6327 9.96211 14.6327 9.96219 14.6327 9.96226C14.6327 9.96234 14.6327 9.96242 14.6327 9.9625C14.6327 9.96258 14.6327 9.96266 14.6327 9.96273C14.6327 9.96281 14.6327 9.96289 14.6327 9.96297C14.6327 9.96305 14.6327 9.96312 14.6327 9.9632C14.6327 9.96328 14.6327 9.96336 14.6327 9.96344C14.6327 9.96351 14.6327 9.96359 14.6327 9.96367C14.6327 9.96375 14.6327 9.96383 14.6327 9.96391C14.6327 9.96398 14.6327 9.96406 14.6327 9.96414C14.6327 9.96422 14.6327 9.9643 14.6327 9.96437C14.6327 9.96445 14.6327 9.96453 14.6327 9.96461C14.6327 9.96469 14.6327 9.96476 14.6327 9.96484C14.6327 9.96492 14.6327 9.965 14.6327 9.96508C14.6327 9.96516 14.6327 9.96523 14.6327 9.96531C14.6327 9.96539 14.6327 9.96547 14.6327 9.96555C14.6327 9.96562 14.6327 9.9657 14.6327 9.96578C14.6327 9.96586 14.6327 9.96594 14.6327 9.96601C14.6327 9.96609 14.6327 9.96617 14.6327 9.96625C14.6327 9.96633 14.6327 9.96641 14.6327 9.96648C14.6327 9.96656 14.6327 9.96664 14.6327 9.96672C14.6327 9.9668 14.6327 9.96687 14.6327 9.96695C14.6327 9.96703 14.6327 9.96711 14.6327 9.96719C14.6327 9.96726 14.6327 9.96734 14.6327 9.96742C14.6327 9.9675 14.6327 9.96758 14.6327 9.96766C14.6327 9.96773 14.6327 9.96781 14.6327 9.96789C14.6327 9.96797 14.6327 9.96805 14.6327 9.96812C14.6327 9.9682 14.6327 9.96828 14.6327 9.96836C14.6327 9.96844 14.6327 9.96851 14.6327 9.96859C14.6327 9.96867 14.6327 9.96875 14.6327 9.96883C14.6327 9.96891 14.6327 9.96898 14.6327 9.96906C14.6327 9.96914 14.6327 9.96922 14.6327 9.9693C14.6327 9.96937 14.6327 9.96945 14.6327 9.96953C14.6327 9.96961 14.6327 9.96969 14.6327 9.96976C14.6327 9.96984 14.6327 9.96992 14.6327 9.97C14.6327 9.97008 14.6327 9.97016 14.6327 9.97023C14.6327 9.97031 14.6327 9.97039 14.6327 9.97047C14.6327 9.97055 14.6327 9.97062 14.6327 9.9707C14.6327 9.97078 14.6327 9.97086 14.6327 9.97094C14.6327 9.97101 14.6327 9.97109 14.6327 9.97117C14.6327 9.97125 14.6327 9.97133 14.6327 9.97141C14.6327 9.97148 14.6327 9.97156 14.6327 9.97164C14.6327 9.97172 14.6327 9.9718 14.6327 9.97187C14.6327 9.97195 14.6327 9.97203 14.6327 9.97211C14.6327 9.97219 14.6327 9.97226 14.6327 9.97234C14.6327 9.97242 14.6327 9.9725 14.6327 9.97258C14.6327 9.97266 14.6327 9.97273 14.6327 9.97281C14.6327 9.97289 14.6327 9.97297 14.6327 9.97305C14.6327 9.97312 14.6327 9.9732 14.6327 9.97328C14.6327 9.97336 14.6327 9.97344 14.6327 9.97351C14.6327 9.97359 14.6327 9.97367 14.6327 9.97375C14.6327 9.97383 14.6327 9.97391 14.6327 9.97398C14.6327 9.97406 14.6327 9.97414 14.6327 9.97422C14.6327 9.9743 14.6327 9.97437 14.6327 9.97445C14.6327 9.97453 14.6327 9.97461 14.6327 9.97469C14.6327 9.97476 14.6327 9.97484 14.6327 9.97492C14.6327 9.975 14.6327 9.97508 14.6327 9.97516C14.6327 9.97523 14.6327 9.97531 14.6327 9.97539C14.6327 9.97547 14.6327 9.97555 14.6327 9.97562C14.6327 9.9757 14.6327 9.97578 14.6327 9.97586C14.6327 9.97594 14.6327 9.97601 14.6327 9.97609C14.6327 9.97617 14.6327 9.97625 14.6327 9.97633C14.6327 9.97641 14.6327 9.97648 14.6327 9.97656C14.6327 9.97664 14.6327 9.97672 14.6327 9.9768C14.6327 9.97687 14.6327 9.97695 14.6327 9.97703C14.6327 9.97711 14.6327 9.97719 14.6327 9.97726C14.6327 9.97734 14.6327 9.97742 14.6327 9.9775C14.6327 9.97758 14.6327 9.97766 14.6327 9.97773C14.6327 9.97781 14.6327 9.97789 14.6327 9.97797C14.6327 9.97805 14.6327 9.97812 14.6327 9.9782C14.6327 9.97828 14.6327 9.97836 14.6327 9.97844C14.6327 9.97851 14.6327 9.97859 14.6327 9.97867C14.6327 9.97875 14.6327 9.97883 14.6327 9.97891C14.6327 9.97898 14.6327 9.97906 14.6327 9.97914C14.6327 9.97922 14.6327 9.9793 14.6327 9.97937C14.6327 9.97945 14.6327 9.97953 14.6327 9.97961C14.6327 9.97969 14.6327 9.97976 14.6327 9.97984C14.6327 9.97992 14.6327 9.98 14.6327 9.98008C14.6327 9.98016 14.6327 9.98023 14.6327 9.98031C14.6327 9.98039 14.6327 9.98047 14.6327 9.98055C14.6327 9.98062 14.6327 9.9807 14.6327 9.98078C14.6327 9.98086 14.6327 9.98094 14.6327 9.98101C14.6327 9.98109 14.6327 9.98117 14.6327 9.98125C14.6327 9.98133 14.6327 9.98141 14.6327 9.98148C14.6327 9.98156 14.6327 9.98164 14.6327 9.98172C14.6327 9.9818 14.6327 9.98187 14.6327 9.98195C14.6327 9.98203 14.6327 9.98211 14.6327 9.98219C14.6327 9.98226 14.6327 9.98234 14.6327 9.98242C14.6327 9.9825 14.6327 9.98258 14.6327 9.98266C14.6327 9.98273 14.6327 9.98281 14.6327 9.98289C14.6327 9.98297 14.6327 9.98305 14.6327 9.98312C14.6327 9.9832 14.6327 9.98328 14.6327 9.98336C14.6327 9.98344 14.6327 9.98351 14.6327 9.98359C14.6327 9.98367 14.6327 9.98375 14.6327 9.98383C14.6327 9.98391 14.6327 9.98398 14.6327 9.98406C14.6327 9.98414 14.6327 9.98422 14.6327 9.9843C14.6327 9.98437 14.6327 9.98445 14.6327 9.98453C14.6327 9.98461 14.6327 9.98469 14.6327 9.98476C14.6327 9.98484 14.6327 9.98492 14.6327 9.985C14.6327 9.98508 14.6327 9.98516 14.6327 9.98523C14.6327 9.98531 14.6327 9.98539 14.6327 9.98547C14.6327 9.98555 14.6327 9.98562 14.6327 9.9857C14.6327 9.98578 14.6327 9.98586 14.6327 9.98594C14.6327 9.98601 14.6327 9.98609 14.6327 9.98617C14.6327 9.98625 14.6327 9.98633 14.6327 9.98641C14.6327 9.98648 14.6327 9.98656 14.6327 9.98664C14.6327 9.98672 14.6327 9.9868 14.6327 9.98687C14.6327 9.98695 14.6327 9.98703 14.6327 9.98711C14.6327 9.98719 14.6327 9.98726 14.6327 9.98734C14.6327 9.98742 14.6327 9.9875 14.6327 9.98758C14.6327 9.98766 14.6327 9.98773 14.6327 9.98781C14.6327 9.98789 14.6327 9.98797 14.6327 9.98805C14.6327 9.98812 14.6327 9.9882 14.6327 9.98828C14.6327 9.98836 14.6327 9.98844 14.6327 9.98851C14.6327 9.98859 14.6327 9.98867 14.6327 9.98875C14.6327 9.98883 14.6327 9.98891 14.6327 9.98898C14.6327 9.98906 14.6327 9.98914 14.6327 9.98922C14.6327 9.9893 14.6327 9.98937 14.6327 9.98945C14.6327 9.98953 14.6327 9.98961 14.6327 9.98969C14.6327 9.98976 14.6327 9.98984 14.6327 9.98992C14.6327 9.99 14.6327 9.99008 14.6327 9.99016C14.6327 9.99023 14.6327 9.99031 14.6327 9.99039C14.6327 9.99047 14.6327 9.99055 14.6327 9.99062C14.6327 9.9907 14.6327 9.99078 14.6327 9.99086C14.6327 9.99094 14.6327 9.99101 14.6327 9.99109C14.6327 9.99117 14.6327 9.99125 14.6327 9.99133C14.6327 9.99141 14.6327 9.99148 14.6327 9.99156C14.6327 9.99164 14.6327 9.99172 14.6327 9.9918C14.6327 9.99187 14.6327 9.99195 14.6327 9.99203C14.6327 9.99211 14.6327 9.99219 14.6327 9.99226C14.6327 9.99234 14.6327 9.99242 14.6327 9.9925C14.6327 9.99258 14.6327 9.99266 14.6327 9.99273C14.6327 9.99281 14.6327 9.99289 14.6327 9.99297C14.6327 9.99305 14.6327 9.99312 14.6327 9.9932C14.6327 9.99328 14.6327 9.99336 14.6327 9.99344C14.6327 9.99351 14.6327 9.99359 14.6327 9.99367C14.6327 9.99375 14.6327 9.99383 14.6327 9.99391C14.6327 9.99398 14.6327 9.99406 14.6327 9.99414C14.6327 9.99422 14.6327 9.9943 14.6327 9.99437C14.6327 9.99445 14.6327 9.99453 14.6327 9.99461C14.6327 9.99469 14.6327 9.99476 14.6327 9.99484C14.6327 9.99492 14.6327 9.995 14.6327 9.99508C14.6327 9.99516 14.6327 9.99523 14.6327 9.99531C14.6327 9.99539 14.6327 9.99547 14.6327 9.99555C14.6327 9.99562 14.6327 9.9957 14.6327 9.99578C14.6327 9.99586 14.6327 9.99594 14.6327 9.99601C14.6327 9.99609 14.6327 9.99617 14.6327 9.99625C14.6327 9.99633 14.6327 9.99641 14.6327 9.99648C14.6327 9.99656 14.6327 9.99664 14.6327 9.99672C14.6327 9.9968 14.6327 9.99687 14.6327 9.99695C14.6327 9.99703 14.6327 9.99711 14.6327 9.99719C14.6327 9.99726 14.6327 9.99734 14.6327 9.99742C14.6327 9.9975 14.6327 9.99758 14.6327 9.99766C14.6327 9.99773 14.6327 9.99781 14.6327 9.99789C14.6327 9.99797 14.6327 9.99805 14.6327 9.99812C14.6327 9.9982 14.6327 9.99828 14.6327 9.99836C14.6327 9.99844 14.6327 9.99851 14.6327 9.99859C14.6327 9.99867 14.6327 9.99875 14.6327 9.99883C14.6327 9.99891 14.6327 9.99898 14.6327 9.99906C14.6327 9.99914 14.6327 9.99922 14.6327 9.9993C14.6327 9.99937 14.6327 9.99945 14.6327 9.99953C14.6327 9.99961 14.6327 9.99969 14.6327 9.99976C14.6327 9.99984 14.6327 9.99992 14.6327 10C14.6327 10.0001 14.6327 10.0002 14.6327 10.0002C14.6327 10.0003 14.6327 10.0004 14.6327 10.0005C14.6327 10.0005 14.6327 10.0006 14.6327 10.0007C14.6327 10.0008 14.6327 10.0009 14.6327 10.0009C14.6327 10.001 14.6327 10.0011 14.6327 10.0012C14.6327 10.0012 14.6327 10.0013 14.6327 10.0014C14.6327 10.0015 14.6327 10.0016 14.6327 10.0016C14.6327 10.0017 14.6327 10.0018 14.6327 10.0019C14.6327 10.002 14.6327 10.002 14.6327 10.0021C14.6327 10.0022 14.6327 10.0023 14.6327 10.0023C14.6327 10.0024 14.6327 10.0025 14.6327 10.0026C14.6327 10.0027 14.6327 10.0027 14.6327 10.0028C14.6327 10.0029 14.6327 10.003 14.6327 10.003C14.6327 10.0031 14.6327 10.0032 14.6327 10.0033C14.6327 10.0034 14.6327 10.0034 14.6327 10.0035C14.6327 10.0036 14.6327 10.0037 14.6327 10.0037C14.6327 10.0038 14.6327 10.0039 14.6327 10.004C14.6327 10.0041 14.6327 10.0041 14.6327 10.0042C14.6327 10.0043 14.6327 10.0044 14.6327 10.0045C14.6327 10.0045 14.6327 10.0046 14.6327 10.0047C14.6327 10.0048 14.6327 10.0048 14.6327 10.0049C14.6327 10.005 14.6327 10.0051 14.6327 10.0052C14.6327 10.0052 14.6327 10.0053 14.6327 10.0054C14.6327 10.0055 14.6327 10.0055 14.6327 10.0056C14.6327 10.0057 14.6327 10.0058 14.6327 10.0059C14.6327 10.0059 14.6327 10.006 14.6327 10.0061C14.6327 10.0062 14.6327 10.0062 14.6327 10.0063C14.6327 10.0064 14.6327 10.0065 14.6327 10.0066C14.6327 10.0066 14.6327 10.0067 14.6327 10.0068C14.6327 10.0069 14.6327 10.007 14.6327 10.007C14.6327 10.0071 14.6327 10.0072 14.6327 10.0073C14.6327 10.0073 14.6327 10.0074 14.6327 10.0075C14.6327 10.0076 14.6327 10.0077 14.6327 10.0077C14.6327 10.0078 14.6327 10.0079 14.6327 10.008C14.6327 10.008 14.6327 10.0081 14.6327 10.0082C14.6327 10.0083 14.6327 10.0084 14.6327 10.0084C14.6327 10.0085 14.6327 10.0086 14.6327 10.0087C14.6327 10.0087 14.6327 10.0088 14.6327 10.0089C14.6327 10.009 14.6327 10.0091 14.6327 10.0091C14.6327 10.0092 14.6327 10.0093 14.6327 10.0094C14.6327 10.0095 14.6327 10.0095 14.6327 10.0096C14.6327 10.0097 14.6327 10.0098 14.6327 10.0098C14.6327 10.0099 14.6327 10.01 14.6327 10.0101C14.6327 10.0102 14.6327 10.0102 14.6327 10.0103C14.6327 10.0104 14.6327 10.0105 14.6327 10.0105C14.6327 10.0106 14.6327 10.0107 14.6327 10.0108C14.6327 10.0109 14.6327 10.0109 14.6327 10.011C14.6327 10.0111 14.6327 10.0112 14.6327 10.0112C14.6327 10.0113 14.6327 10.0114 14.6327 10.0115C14.6327 10.0116 14.6327 10.0116 14.6327 10.0117C14.6327 10.0118 14.6327 10.0119 14.6327 10.012C14.6327 10.012 14.6327 10.0121 14.6327 10.0122C14.6327 10.0123 14.6327 10.0123 14.6327 10.0124C14.6327 10.0125 14.6327 10.0126 14.6327 10.0127C14.6327 10.0127 14.6327 10.0128 14.6327 10.0129C14.6327 10.013 14.6327 10.013 14.6327 10.0131C14.6327 10.0132 14.6327 10.0133 14.6327 10.0134C14.6327 10.0134 14.6327 10.0135 14.6327 10.0136C14.6327 10.0137 14.6327 10.0137 14.6327 10.0138C14.6327 10.0139 14.6327 10.014 14.6327 10.0141C14.6327 10.0141 14.6327 10.0142 14.6327 10.0143C14.6327 10.0144 14.6327 10.0145 14.6327 10.0145C14.6327 10.0146 14.6327 10.0147 14.6327 10.0148C14.6327 10.0148 14.6327 10.0149 14.6327 10.015C14.6327 10.0151 14.6327 10.0152 14.6327 10.0152C14.6327 10.0153 14.6327 10.0154 14.6327 10.0155C14.6327 10.0155 14.6327 10.0156 14.6327 10.0157C14.6327 10.0158 14.6327 10.0159 14.6327 10.0159C14.6327 10.016 14.6327 10.0161 14.6327 10.0162C14.6327 10.0162 14.6327 10.0163 14.6327 10.0164C14.6327 10.0165 14.6327 10.0166 14.6327 10.0166C14.6327 10.0167 14.6327 10.0168 14.6327 10.0169C14.6327 10.017 14.6327 10.017 14.6327 10.0171C14.6327 10.0172 14.6327 10.0173 14.6327 10.0173C14.6327 10.0174 14.6327 10.0175 14.6327 10.0176C14.6327 10.0177 14.6327 10.0177 14.6327 10.0178C14.6327 10.0179 14.6327 10.018 14.6327 10.018C14.6327 10.0181 14.6327 10.0182 14.6327 10.0183C14.6327 10.0184 14.6327 10.0184 14.6327 10.0185C14.6327 10.0186 14.6327 10.0187 14.6327 10.0187C14.6327 10.0188 14.6327 10.0189 14.6327 10.019C14.6327 10.0191 14.6327 10.0191 14.6327 10.0192C14.6327 10.0193 14.6327 10.0194 14.6327 10.0195C14.6327 10.0195 14.6327 10.0196 14.6327 10.0197C14.6327 10.0198 14.6327 10.0198 14.6327 10.0199C14.6327 10.02 14.6327 10.0201 14.6327 10.0202C14.6327 10.0202 14.6327 10.0203 14.6327 10.0204C14.6327 10.0205 14.6327 10.0205 14.6327 10.0206C14.6327 10.0207 14.6327 10.0208 14.6327 10.0209C14.6327 10.0209 14.6327 10.021 14.6327 10.0211C14.6327 10.0212 14.6327 10.0212 14.6327 10.0213C14.6327 10.0214 14.6327 10.0215 14.6327 10.0216C14.6327 10.0216 14.6327 10.0217 14.6327 10.0218C14.6327 10.0219 14.6327 10.022 14.6327 10.022C14.6327 10.0221 14.6327 10.0222 14.6327 10.0223C14.6327 10.0223 14.6327 10.0224 14.6327 10.0225C14.6327 10.0226 14.6327 10.0227 14.6327 10.0227C14.6327 10.0228 14.6327 10.0229 14.6327 10.023C14.6327 10.023 14.6327 10.0231 14.6327 10.0232C14.6327 10.0233 14.6327 10.0234 14.6327 10.0234C14.6327 10.0235 14.6327 10.0236 14.6327 10.0237C14.6327 10.0237 14.6327 10.0238 14.6327 10.0239C14.6327 10.024 14.6327 10.0241 14.6327 10.0241C14.6327 10.0242 14.6327 10.0243 14.6327 10.0244C14.6327 10.0245 14.6327 10.0245 14.6327 10.0246C14.6327 10.0247 14.6327 10.0248 14.6327 10.0248C14.6327 10.0249 14.6327 10.025 14.6327 10.0251C14.6327 10.0252 14.6327 10.0252 14.6327 10.0253C14.6327 10.0254 14.6327 10.0255 14.6327 10.0255C14.6327 10.0256 14.6327 10.0257 14.6327 10.0258C14.6327 10.0259 14.6327 10.0259 14.6327 10.026C14.6327 10.0261 14.6327 10.0262 14.6327 10.0262C14.6327 10.0263 14.6327 10.0264 14.6327 10.0265C14.6327 10.0266 14.6327 10.0266 14.6327 10.0267C14.6327 10.0268 14.6327 10.0269 14.6327 10.027C14.6327 10.027 14.6327 10.0271 14.6327 10.0272C14.6327 10.0273 14.6327 10.0273 14.6327 10.0274C14.6327 10.0275 14.6327 10.0276 14.6327 10.0277C14.6327 10.0277 14.6327 10.0278 14.6327 10.0279C14.6327 10.028 14.6327 10.028 14.6327 10.0281C14.6327 10.0282 14.6327 10.0283 14.6327 10.0284C14.6327 10.0284 14.6327 10.0285 14.6327 10.0286C14.6327 10.0287 14.6327 10.0287 14.6327 10.0288C14.6327 10.0289 14.6327 10.029 14.6327 10.0291C14.6327 10.0291 14.6327 10.0292 14.6327 10.0293C14.6327 10.0294 14.6327 10.0295 14.6327 10.0295C14.6327 10.0296 14.6327 10.0297 14.6327 10.0298C14.6327 10.0298 14.6327 10.0299 14.6327 10.03C14.6327 10.0301 14.6327 10.0302 14.6327 10.0302C14.6327 10.0303 14.6327 10.0304 14.6327 10.0305C14.6327 10.0305 14.6327 10.0306 14.6327 10.0307C14.6327 10.0308 14.6327 10.0309 14.6327 10.0309C14.6327 10.031 14.6327 10.0311 14.6327 10.0312C14.6327 10.0312 14.6327 10.0313 14.6327 10.0314C14.6327 10.0315 14.6327 10.0316 14.6327 10.0316C14.6327 10.0317 14.6327 10.0318 14.6327 10.0319C14.6327 10.032 14.6327 10.032 14.6327 10.0321C14.6327 10.0322 14.6327 10.0323 14.6327 10.0323C14.6327 10.0324 14.6327 10.0325 14.6327 10.0326C14.6327 10.0327 14.6327 10.0327 14.6327 10.0328C14.6327 10.0329 14.6327 10.033 14.6327 10.033C14.6327 10.0331 14.6327 10.0332 14.6327 10.0333C14.6327 10.0334 14.6327 10.0334 14.6327 10.0335C14.6327 10.0336 14.6327 10.0337 14.6327 10.0337C14.6327 10.0338 14.6327 10.0339 14.6327 10.034C14.6327 10.0341 14.6327 10.0341 14.6327 10.0342C14.6327 10.0343 14.6327 10.0344 14.6327 10.0345C14.6327 10.0345 14.6327 10.0346 14.6327 10.0347C14.6327 10.0348 14.6327 10.0348 14.6327 10.0349C14.6327 10.035 14.6327 10.0351 14.6327 10.0352C14.6327 10.0352 14.6327 10.0353 14.6327 10.0354C14.6327 10.0355 14.6327 10.0355 14.6327 10.0356C14.6327 10.0357 14.6327 10.0358 14.6327 10.0359C14.6327 10.0359 14.6327 10.036 14.6327 10.0361C14.6327 10.0362 14.6327 10.0362 14.6327 10.0363C14.6327 10.0364 14.6327 10.0365 14.6327 10.0366C14.6327 10.0366 14.6327 10.0367 14.6327 10.0368C14.6327 10.0369 14.6327 10.037 14.6327 10.037C14.6327 10.0371 14.6327 10.0372 14.6327 10.0373C14.6327 10.0373 14.6327 10.0374 14.6327 10.0375C14.6327 10.0376 14.6327 10.0377 14.6327 10.0377C14.6327 10.0378 14.6327 10.0379 14.6327 10.038C14.6327 10.038 14.6327 10.0381 14.6327 10.0382C14.6327 10.0383 14.6327 10.0384 14.6327 10.0384C14.6327 10.0385 14.6327 10.0386 14.6327 10.0387C14.6327 10.0387 14.6327 10.0388 14.6327 10.0389C14.6327 10.039 14.6327 10.0391 14.6327 10.0391C14.6327 10.0392 14.6327 10.0393 14.6327 10.0394C14.6327 10.0395 14.6327 10.0395 14.6327 10.0396C14.6327 10.0397 14.6327 10.0398 14.6327 10.0398C14.6327 10.0399 14.6327 10.04 14.6327 10.0401C14.6327 10.0402 14.6327 10.0402 14.6327 10.0403C14.6327 10.0404 14.6327 10.0405 14.6327 10.0405C14.6327 10.0406 14.6327 10.0407 14.6327 10.0408C14.6327 10.0409 14.6327 10.0409 14.6327 10.041C14.6327 10.0411 14.6327 10.0412 14.6327 10.0412C14.6327 10.0413 14.6327 10.0414 14.6327 10.0415C14.6327 10.0416 14.6327 10.0416 14.6327 10.0417C14.6327 10.0418 14.6327 10.0419 14.6327 10.042C14.6327 10.042 14.6327 10.0421 14.6327 10.0422C14.6327 10.0423 14.6327 10.0423 14.6327 10.0424C14.6327 10.0425 14.6327 10.0426 14.6327 10.0427C14.6327 10.0427 14.6327 10.0428 14.6327 10.0429C14.6327 10.043 14.6327 10.043 14.6327 10.0431C14.6327 10.0432 14.6327 10.0433 14.6327 10.0434C14.6327 10.0434 14.6327 10.0435 14.6327 10.0436C14.6327 10.0437 14.6327 10.0437 14.6327 10.0438C14.6327 10.0439 14.6327 10.044 14.6327 10.0441C14.6327 10.0441 14.6327 10.0442 14.6327 10.0443C14.6327 10.0444 14.6327 10.0445 14.6327 10.0445C14.6327 10.0446 14.6327 10.0447 14.6327 10.0448C14.6327 10.0448 14.6327 10.0449 14.6327 10.045C14.6327 10.0451 14.6327 10.0452 14.6327 10.0452C14.6327 10.0453 14.6327 10.0454 14.6327 10.0455C14.6327 10.0455 14.6327 10.0456 14.6327 10.0457C14.6327 10.0458 14.6327 10.0459 14.6327 10.0459C14.6327 10.046 14.6327 10.0461 14.6327 10.0462C14.6327 10.0462 14.6327 10.0463 14.6327 10.0464C14.6327 10.0465 14.6327 10.0466 14.6327 10.0466C14.6327 10.0467 14.6327 10.0468 14.6327 10.0469C14.6327 10.047 14.6327 10.047 14.6327 10.0471C14.6327 10.0472 14.6327 10.0473 14.6327 10.0473C14.6327 10.0474 14.6327 10.0475 14.6327 10.0476C14.6327 10.0477 14.6327 10.0477 14.6327 10.0478C14.6327 10.0479 14.6327 10.048 14.6327 10.048C14.6327 10.0481 14.6327 10.0482 14.6327 10.0483C14.6327 10.0484 14.6327 10.0484 14.6327 10.0485C14.6327 10.0486 14.6327 10.0487 14.6327 10.0487C14.6327 10.0488 14.6327 10.0489 14.6327 10.049C14.6327 10.0491 14.6327 10.0491 14.6327 10.0492C14.6327 10.0493 14.6327 10.0494 14.6327 10.0495C14.6327 10.0495 14.6327 10.0496 14.6327 10.0497C14.6327 10.0498 14.6327 10.0498 14.6327 10.0499C14.6327 10.05 14.6327 10.0501 14.6327 10.0502C14.6327 10.0502 14.6327 10.0503 14.6327 10.0504C14.6327 10.0505 14.6327 10.0505 14.6327 10.0506C14.6327 10.0507 14.6327 10.0508 14.6327 10.0509C14.6327 10.0509 14.6327 10.051 14.6327 10.0511C14.6327 10.0512 14.6327 10.0512 14.6327 10.0513C14.6327 10.0514 14.6327 10.0515 14.6327 10.0516C14.6327 10.0516 14.6327 10.0517 14.6327 10.0518C14.6327 10.0519 14.6327 10.052 14.6327 10.052C14.6327 10.0521 14.6327 10.0522 14.6327 10.0523C14.6327 10.0523 14.6327 10.0524 14.6327 10.0525C14.6327 10.0526 14.6327 10.0527 14.6327 10.0527C14.6327 10.0528 14.6327 10.0529 14.6327 10.053C14.6327 10.053 14.6327 10.0531 14.6327 10.0532C14.6327 10.0533 14.6327 10.0534 14.6327 10.0534C14.6327 10.0535 14.6327 10.0536 14.6327 10.0537C14.6327 10.0537 14.6327 10.0538 14.6327 10.0539C14.6327 10.054 14.6327 10.0541 14.6327 10.0541C14.6327 10.0542 14.6327 10.0543 14.6327 10.0544C14.6327 10.0545 14.6327 10.0545 14.6327 10.0546C14.6327 10.0547 14.6327 10.0548 14.6327 10.0548C14.6327 10.0549 14.6327 10.055 14.6327 10.0551C14.6327 10.0552 14.6327 10.0552 14.6327 10.0553C14.6327 10.0554 14.6327 10.0555 14.6327 10.0555C14.6327 10.0556 14.6327 10.0557 14.6327 10.0558C14.6327 10.0559 14.6327 10.0559 14.6327 10.056C14.6327 10.0561 14.6327 10.0562 14.6327 10.0562C14.6327 10.0563 14.6327 10.0564 14.6327 10.0565C14.6327 10.0566 14.6327 10.0566 14.6327 10.0567C14.6327 10.0568 14.6327 10.0569 14.6327 10.057C14.6327 10.057 14.6327 10.0571 14.6327 10.0572C14.6327 10.0573 14.6327 10.0573 14.6327 10.0574C14.6327 10.0575 14.6327 10.0576 14.6327 10.0577C14.6327 10.0577 14.6327 10.0578 14.6327 10.0579C14.6327 10.058 14.6327 10.058 14.6327 10.0581C14.6327 10.0582 14.6327 10.0583 14.6327 10.0584C14.6327 10.0584 14.6327 10.0585 14.6327 10.0586C14.6327 10.0587 14.6327 10.0587 14.6327 10.0588C14.6327 10.0589 14.6327 10.059 14.6327 10.0591C14.6327 10.0591 14.6327 10.0592 14.6327 10.0593C14.6327 10.0594 14.6327 10.0595 14.6327 10.0595C14.6327 10.0596 14.6327 10.0597 14.6327 10.0598C14.6327 10.0598 14.6327 10.0599 14.6327 10.06H16.6327C16.6327 10.0599 16.6327 10.0598 16.6327 10.0598C16.6327 10.0597 16.6327 10.0596 16.6327 10.0595C16.6327 10.0595 16.6327 10.0594 16.6327 10.0593C16.6327 10.0592 16.6327 10.0591 16.6327 10.0591C16.6327 10.059 16.6327 10.0589 16.6327 10.0588C16.6327 10.0587 16.6327 10.0587 16.6327 10.0586C16.6327 10.0585 16.6327 10.0584 16.6327 10.0584C16.6327 10.0583 16.6327 10.0582 16.6327 10.0581C16.6327 10.058 16.6327 10.058 16.6327 10.0579C16.6327 10.0578 16.6327 10.0577 16.6327 10.0577C16.6327 10.0576 16.6327 10.0575 16.6327 10.0574C16.6327 10.0573 16.6327 10.0573 16.6327 10.0572C16.6327 10.0571 16.6327 10.057 16.6327 10.057C16.6327 10.0569 16.6327 10.0568 16.6327 10.0567C16.6327 10.0566 16.6327 10.0566 16.6327 10.0565C16.6327 10.0564 16.6327 10.0563 16.6327 10.0562C16.6327 10.0562 16.6327 10.0561 16.6327 10.056C16.6327 10.0559 16.6327 10.0559 16.6327 10.0558C16.6327 10.0557 16.6327 10.0556 16.6327 10.0555C16.6327 10.0555 16.6327 10.0554 16.6327 10.0553C16.6327 10.0552 16.6327 10.0552 16.6327 10.0551C16.6327 10.055 16.6327 10.0549 16.6327 10.0548C16.6327 10.0548 16.6327 10.0547 16.6327 10.0546C16.6327 10.0545 16.6327 10.0545 16.6327 10.0544C16.6327 10.0543 16.6327 10.0542 16.6327 10.0541C16.6327 10.0541 16.6327 10.054 16.6327 10.0539C16.6327 10.0538 16.6327 10.0537 16.6327 10.0537C16.6327 10.0536 16.6327 10.0535 16.6327 10.0534C16.6327 10.0534 16.6327 10.0533 16.6327 10.0532C16.6327 10.0531 16.6327 10.053 16.6327 10.053C16.6327 10.0529 16.6327 10.0528 16.6327 10.0527C16.6327 10.0527 16.6327 10.0526 16.6327 10.0525C16.6327 10.0524 16.6327 10.0523 16.6327 10.0523C16.6327 10.0522 16.6327 10.0521 16.6327 10.052C16.6327 10.052 16.6327 10.0519 16.6327 10.0518C16.6327 10.0517 16.6327 10.0516 16.6327 10.0516C16.6327 10.0515 16.6327 10.0514 16.6327 10.0513C16.6327 10.0512 16.6327 10.0512 16.6327 10.0511C16.6327 10.051 16.6327 10.0509 16.6327 10.0509C16.6327 10.0508 16.6327 10.0507 16.6327 10.0506C16.6327 10.0505 16.6327 10.0505 16.6327 10.0504C16.6327 10.0503 16.6327 10.0502 16.6327 10.0502C16.6327 10.0501 16.6327 10.05 16.6327 10.0499C16.6327 10.0498 16.6327 10.0498 16.6327 10.0497C16.6327 10.0496 16.6327 10.0495 16.6327 10.0495C16.6327 10.0494 16.6327 10.0493 16.6327 10.0492C16.6327 10.0491 16.6327 10.0491 16.6327 10.049C16.6327 10.0489 16.6327 10.0488 16.6327 10.0487C16.6327 10.0487 16.6327 10.0486 16.6327 10.0485C16.6327 10.0484 16.6327 10.0484 16.6327 10.0483C16.6327 10.0482 16.6327 10.0481 16.6327 10.048C16.6327 10.048 16.6327 10.0479 16.6327 10.0478C16.6327 10.0477 16.6327 10.0477 16.6327 10.0476C16.6327 10.0475 16.6327 10.0474 16.6327 10.0473C16.6327 10.0473 16.6327 10.0472 16.6327 10.0471C16.6327 10.047 16.6327 10.047 16.6327 10.0469C16.6327 10.0468 16.6327 10.0467 16.6327 10.0466C16.6327 10.0466 16.6327 10.0465 16.6327 10.0464C16.6327 10.0463 16.6327 10.0462 16.6327 10.0462C16.6327 10.0461 16.6327 10.046 16.6327 10.0459C16.6327 10.0459 16.6327 10.0458 16.6327 10.0457C16.6327 10.0456 16.6327 10.0455 16.6327 10.0455C16.6327 10.0454 16.6327 10.0453 16.6327 10.0452C16.6327 10.0452 16.6327 10.0451 16.6327 10.045C16.6327 10.0449 16.6327 10.0448 16.6327 10.0448C16.6327 10.0447 16.6327 10.0446 16.6327 10.0445C16.6327 10.0445 16.6327 10.0444 16.6327 10.0443C16.6327 10.0442 16.6327 10.0441 16.6327 10.0441C16.6327 10.044 16.6327 10.0439 16.6327 10.0438C16.6327 10.0437 16.6327 10.0437 16.6327 10.0436C16.6327 10.0435 16.6327 10.0434 16.6327 10.0434C16.6327 10.0433 16.6327 10.0432 16.6327 10.0431C16.6327 10.043 16.6327 10.043 16.6327 10.0429C16.6327 10.0428 16.6327 10.0427 16.6327 10.0427C16.6327 10.0426 16.6327 10.0425 16.6327 10.0424C16.6327 10.0423 16.6327 10.0423 16.6327 10.0422C16.6327 10.0421 16.6327 10.042 16.6327 10.042C16.6327 10.0419 16.6327 10.0418 16.6327 10.0417C16.6327 10.0416 16.6327 10.0416 16.6327 10.0415C16.6327 10.0414 16.6327 10.0413 16.6327 10.0412C16.6327 10.0412 16.6327 10.0411 16.6327 10.041C16.6327 10.0409 16.6327 10.0409 16.6327 10.0408C16.6327 10.0407 16.6327 10.0406 16.6327 10.0405C16.6327 10.0405 16.6327 10.0404 16.6327 10.0403C16.6327 10.0402 16.6327 10.0402 16.6327 10.0401C16.6327 10.04 16.6327 10.0399 16.6327 10.0398C16.6327 10.0398 16.6327 10.0397 16.6327 10.0396C16.6327 10.0395 16.6327 10.0395 16.6327 10.0394C16.6327 10.0393 16.6327 10.0392 16.6327 10.0391C16.6327 10.0391 16.6327 10.039 16.6327 10.0389C16.6327 10.0388 16.6327 10.0387 16.6327 10.0387C16.6327 10.0386 16.6327 10.0385 16.6327 10.0384C16.6327 10.0384 16.6327 10.0383 16.6327 10.0382C16.6327 10.0381 16.6327 10.038 16.6327 10.038C16.6327 10.0379 16.6327 10.0378 16.6327 10.0377C16.6327 10.0377 16.6327 10.0376 16.6327 10.0375C16.6327 10.0374 16.6327 10.0373 16.6327 10.0373C16.6327 10.0372 16.6327 10.0371 16.6327 10.037C16.6327 10.037 16.6327 10.0369 16.6327 10.0368C16.6327 10.0367 16.6327 10.0366 16.6327 10.0366C16.6327 10.0365 16.6327 10.0364 16.6327 10.0363C16.6327 10.0362 16.6327 10.0362 16.6327 10.0361C16.6327 10.036 16.6327 10.0359 16.6327 10.0359C16.6327 10.0358 16.6327 10.0357 16.6327 10.0356C16.6327 10.0355 16.6327 10.0355 16.6327 10.0354C16.6327 10.0353 16.6327 10.0352 16.6327 10.0352C16.6327 10.0351 16.6327 10.035 16.6327 10.0349C16.6327 10.0348 16.6327 10.0348 16.6327 10.0347C16.6327 10.0346 16.6327 10.0345 16.6327 10.0345C16.6327 10.0344 16.6327 10.0343 16.6327 10.0342C16.6327 10.0341 16.6327 10.0341 16.6327 10.034C16.6327 10.0339 16.6327 10.0338 16.6327 10.0337C16.6327 10.0337 16.6327 10.0336 16.6327 10.0335C16.6327 10.0334 16.6327 10.0334 16.6327 10.0333C16.6327 10.0332 16.6327 10.0331 16.6327 10.033C16.6327 10.033 16.6327 10.0329 16.6327 10.0328C16.6327 10.0327 16.6327 10.0327 16.6327 10.0326C16.6327 10.0325 16.6327 10.0324 16.6327 10.0323C16.6327 10.0323 16.6327 10.0322 16.6327 10.0321C16.6327 10.032 16.6327 10.032 16.6327 10.0319C16.6327 10.0318 16.6327 10.0317 16.6327 10.0316C16.6327 10.0316 16.6327 10.0315 16.6327 10.0314C16.6327 10.0313 16.6327 10.0312 16.6327 10.0312C16.6327 10.0311 16.6327 10.031 16.6327 10.0309C16.6327 10.0309 16.6327 10.0308 16.6327 10.0307C16.6327 10.0306 16.6327 10.0305 16.6327 10.0305C16.6327 10.0304 16.6327 10.0303 16.6327 10.0302C16.6327 10.0302 16.6327 10.0301 16.6327 10.03C16.6327 10.0299 16.6327 10.0298 16.6327 10.0298C16.6327 10.0297 16.6327 10.0296 16.6327 10.0295C16.6327 10.0295 16.6327 10.0294 16.6327 10.0293C16.6327 10.0292 16.6327 10.0291 16.6327 10.0291C16.6327 10.029 16.6327 10.0289 16.6327 10.0288C16.6327 10.0287 16.6327 10.0287 16.6327 10.0286C16.6327 10.0285 16.6327 10.0284 16.6327 10.0284C16.6327 10.0283 16.6327 10.0282 16.6327 10.0281C16.6327 10.028 16.6327 10.028 16.6327 10.0279C16.6327 10.0278 16.6327 10.0277 16.6327 10.0277C16.6327 10.0276 16.6327 10.0275 16.6327 10.0274C16.6327 10.0273 16.6327 10.0273 16.6327 10.0272C16.6327 10.0271 16.6327 10.027 16.6327 10.027C16.6327 10.0269 16.6327 10.0268 16.6327 10.0267C16.6327 10.0266 16.6327 10.0266 16.6327 10.0265C16.6327 10.0264 16.6327 10.0263 16.6327 10.0262C16.6327 10.0262 16.6327 10.0261 16.6327 10.026C16.6327 10.0259 16.6327 10.0259 16.6327 10.0258C16.6327 10.0257 16.6327 10.0256 16.6327 10.0255C16.6327 10.0255 16.6327 10.0254 16.6327 10.0253C16.6327 10.0252 16.6327 10.0252 16.6327 10.0251C16.6327 10.025 16.6327 10.0249 16.6327 10.0248C16.6327 10.0248 16.6327 10.0247 16.6327 10.0246C16.6327 10.0245 16.6327 10.0245 16.6327 10.0244C16.6327 10.0243 16.6327 10.0242 16.6327 10.0241C16.6327 10.0241 16.6327 10.024 16.6327 10.0239C16.6327 10.0238 16.6327 10.0237 16.6327 10.0237C16.6327 10.0236 16.6327 10.0235 16.6327 10.0234C16.6327 10.0234 16.6327 10.0233 16.6327 10.0232C16.6327 10.0231 16.6327 10.023 16.6327 10.023C16.6327 10.0229 16.6327 10.0228 16.6327 10.0227C16.6327 10.0227 16.6327 10.0226 16.6327 10.0225C16.6327 10.0224 16.6327 10.0223 16.6327 10.0223C16.6327 10.0222 16.6327 10.0221 16.6327 10.022C16.6327 10.022 16.6327 10.0219 16.6327 10.0218C16.6327 10.0217 16.6327 10.0216 16.6327 10.0216C16.6327 10.0215 16.6327 10.0214 16.6327 10.0213C16.6327 10.0212 16.6327 10.0212 16.6327 10.0211C16.6327 10.021 16.6327 10.0209 16.6327 10.0209C16.6327 10.0208 16.6327 10.0207 16.6327 10.0206C16.6327 10.0205 16.6327 10.0205 16.6327 10.0204C16.6327 10.0203 16.6327 10.0202 16.6327 10.0202C16.6327 10.0201 16.6327 10.02 16.6327 10.0199C16.6327 10.0198 16.6327 10.0198 16.6327 10.0197C16.6327 10.0196 16.6327 10.0195 16.6327 10.0195C16.6327 10.0194 16.6327 10.0193 16.6327 10.0192C16.6327 10.0191 16.6327 10.0191 16.6327 10.019C16.6327 10.0189 16.6327 10.0188 16.6327 10.0187C16.6327 10.0187 16.6327 10.0186 16.6327 10.0185C16.6327 10.0184 16.6327 10.0184 16.6327 10.0183C16.6327 10.0182 16.6327 10.0181 16.6327 10.018C16.6327 10.018 16.6327 10.0179 16.6327 10.0178C16.6327 10.0177 16.6327 10.0177 16.6327 10.0176C16.6327 10.0175 16.6327 10.0174 16.6327 10.0173C16.6327 10.0173 16.6327 10.0172 16.6327 10.0171C16.6327 10.017 16.6327 10.017 16.6327 10.0169C16.6327 10.0168 16.6327 10.0167 16.6327 10.0166C16.6327 10.0166 16.6327 10.0165 16.6327 10.0164C16.6327 10.0163 16.6327 10.0162 16.6327 10.0162C16.6327 10.0161 16.6327 10.016 16.6327 10.0159C16.6327 10.0159 16.6327 10.0158 16.6327 10.0157C16.6327 10.0156 16.6327 10.0155 16.6327 10.0155C16.6327 10.0154 16.6327 10.0153 16.6327 10.0152C16.6327 10.0152 16.6327 10.0151 16.6327 10.015C16.6327 10.0149 16.6327 10.0148 16.6327 10.0148C16.6327 10.0147 16.6327 10.0146 16.6327 10.0145C16.6327 10.0145 16.6327 10.0144 16.6327 10.0143C16.6327 10.0142 16.6327 10.0141 16.6327 10.0141C16.6327 10.014 16.6327 10.0139 16.6327 10.0138C16.6327 10.0137 16.6327 10.0137 16.6327 10.0136C16.6327 10.0135 16.6327 10.0134 16.6327 10.0134C16.6327 10.0133 16.6327 10.0132 16.6327 10.0131C16.6327 10.013 16.6327 10.013 16.6327 10.0129C16.6327 10.0128 16.6327 10.0127 16.6327 10.0127C16.6327 10.0126 16.6327 10.0125 16.6327 10.0124C16.6327 10.0123 16.6327 10.0123 16.6327 10.0122C16.6327 10.0121 16.6327 10.012 16.6327 10.012C16.6327 10.0119 16.6327 10.0118 16.6327 10.0117C16.6327 10.0116 16.6327 10.0116 16.6327 10.0115C16.6327 10.0114 16.6327 10.0113 16.6327 10.0112C16.6327 10.0112 16.6327 10.0111 16.6327 10.011C16.6327 10.0109 16.6327 10.0109 16.6327 10.0108C16.6327 10.0107 16.6327 10.0106 16.6327 10.0105C16.6327 10.0105 16.6327 10.0104 16.6327 10.0103C16.6327 10.0102 16.6327 10.0102 16.6327 10.0101C16.6327 10.01 16.6327 10.0099 16.6327 10.0098C16.6327 10.0098 16.6327 10.0097 16.6327 10.0096C16.6327 10.0095 16.6327 10.0095 16.6327 10.0094C16.6327 10.0093 16.6327 10.0092 16.6327 10.0091C16.6327 10.0091 16.6327 10.009 16.6327 10.0089C16.6327 10.0088 16.6327 10.0087 16.6327 10.0087C16.6327 10.0086 16.6327 10.0085 16.6327 10.0084C16.6327 10.0084 16.6327 10.0083 16.6327 10.0082C16.6327 10.0081 16.6327 10.008 16.6327 10.008C16.6327 10.0079 16.6327 10.0078 16.6327 10.0077C16.6327 10.0077 16.6327 10.0076 16.6327 10.0075C16.6327 10.0074 16.6327 10.0073 16.6327 10.0073C16.6327 10.0072 16.6327 10.0071 16.6327 10.007C16.6327 10.007 16.6327 10.0069 16.6327 10.0068C16.6327 10.0067 16.6327 10.0066 16.6327 10.0066C16.6327 10.0065 16.6327 10.0064 16.6327 10.0063C16.6327 10.0062 16.6327 10.0062 16.6327 10.0061C16.6327 10.006 16.6327 10.0059 16.6327 10.0059C16.6327 10.0058 16.6327 10.0057 16.6327 10.0056C16.6327 10.0055 16.6327 10.0055 16.6327 10.0054C16.6327 10.0053 16.6327 10.0052 16.6327 10.0052C16.6327 10.0051 16.6327 10.005 16.6327 10.0049C16.6327 10.0048 16.6327 10.0048 16.6327 10.0047C16.6327 10.0046 16.6327 10.0045 16.6327 10.0045C16.6327 10.0044 16.6327 10.0043 16.6327 10.0042C16.6327 10.0041 16.6327 10.0041 16.6327 10.004C16.6327 10.0039 16.6327 10.0038 16.6327 10.0037C16.6327 10.0037 16.6327 10.0036 16.6327 10.0035C16.6327 10.0034 16.6327 10.0034 16.6327 10.0033C16.6327 10.0032 16.6327 10.0031 16.6327 10.003C16.6327 10.003 16.6327 10.0029 16.6327 10.0028C16.6327 10.0027 16.6327 10.0027 16.6327 10.0026C16.6327 10.0025 16.6327 10.0024 16.6327 10.0023C16.6327 10.0023 16.6327 10.0022 16.6327 10.0021C16.6327 10.002 16.6327 10.002 16.6327 10.0019C16.6327 10.0018 16.6327 10.0017 16.6327 10.0016C16.6327 10.0016 16.6327 10.0015 16.6327 10.0014C16.6327 10.0013 16.6327 10.0012 16.6327 10.0012C16.6327 10.0011 16.6327 10.001 16.6327 10.0009C16.6327 10.0009 16.6327 10.0008 16.6327 10.0007C16.6327 10.0006 16.6327 10.0005 16.6327 10.0005C16.6327 10.0004 16.6327 10.0003 16.6327 10.0002C16.6327 10.0002 16.6327 10.0001 16.6327 10C16.6327 9.99992 16.6327 9.99984 16.6327 9.99976C16.6327 9.99969 16.6327 9.99961 16.6327 9.99953C16.6327 9.99945 16.6327 9.99937 16.6327 9.9993C16.6327 9.99922 16.6327 9.99914 16.6327 9.99906C16.6327 9.99898 16.6327 9.99891 16.6327 9.99883C16.6327 9.99875 16.6327 9.99867 16.6327 9.99859C16.6327 9.99851 16.6327 9.99844 16.6327 9.99836C16.6327 9.99828 16.6327 9.9982 16.6327 9.99812C16.6327 9.99805 16.6327 9.99797 16.6327 9.99789C16.6327 9.99781 16.6327 9.99773 16.6327 9.99766C16.6327 9.99758 16.6327 9.9975 16.6327 9.99742C16.6327 9.99734 16.6327 9.99726 16.6327 9.99719C16.6327 9.99711 16.6327 9.99703 16.6327 9.99695C16.6327 9.99687 16.6327 9.9968 16.6327 9.99672C16.6327 9.99664 16.6327 9.99656 16.6327 9.99648C16.6327 9.99641 16.6327 9.99633 16.6327 9.99625C16.6327 9.99617 16.6327 9.99609 16.6327 9.99601C16.6327 9.99594 16.6327 9.99586 16.6327 9.99578C16.6327 9.9957 16.6327 9.99562 16.6327 9.99555C16.6327 9.99547 16.6327 9.99539 16.6327 9.99531C16.6327 9.99523 16.6327 9.99516 16.6327 9.99508C16.6327 9.995 16.6327 9.99492 16.6327 9.99484C16.6327 9.99476 16.6327 9.99469 16.6327 9.99461C16.6327 9.99453 16.6327 9.99445 16.6327 9.99437C16.6327 9.9943 16.6327 9.99422 16.6327 9.99414C16.6327 9.99406 16.6327 9.99398 16.6327 9.99391C16.6327 9.99383 16.6327 9.99375 16.6327 9.99367C16.6327 9.99359 16.6327 9.99351 16.6327 9.99344C16.6327 9.99336 16.6327 9.99328 16.6327 9.9932C16.6327 9.99312 16.6327 9.99305 16.6327 9.99297C16.6327 9.99289 16.6327 9.99281 16.6327 9.99273C16.6327 9.99266 16.6327 9.99258 16.6327 9.9925C16.6327 9.99242 16.6327 9.99234 16.6327 9.99226C16.6327 9.99219 16.6327 9.99211 16.6327 9.99203C16.6327 9.99195 16.6327 9.99187 16.6327 9.9918C16.6327 9.99172 16.6327 9.99164 16.6327 9.99156C16.6327 9.99148 16.6327 9.99141 16.6327 9.99133C16.6327 9.99125 16.6327 9.99117 16.6327 9.99109C16.6327 9.99101 16.6327 9.99094 16.6327 9.99086C16.6327 9.99078 16.6327 9.9907 16.6327 9.99062C16.6327 9.99055 16.6327 9.99047 16.6327 9.99039C16.6327 9.99031 16.6327 9.99023 16.6327 9.99016C16.6327 9.99008 16.6327 9.99 16.6327 9.98992C16.6327 9.98984 16.6327 9.98976 16.6327 9.98969C16.6327 9.98961 16.6327 9.98953 16.6327 9.98945C16.6327 9.98937 16.6327 9.9893 16.6327 9.98922C16.6327 9.98914 16.6327 9.98906 16.6327 9.98898C16.6327 9.98891 16.6327 9.98883 16.6327 9.98875C16.6327 9.98867 16.6327 9.98859 16.6327 9.98851C16.6327 9.98844 16.6327 9.98836 16.6327 9.98828C16.6327 9.9882 16.6327 9.98812 16.6327 9.98805C16.6327 9.98797 16.6327 9.98789 16.6327 9.98781C16.6327 9.98773 16.6327 9.98766 16.6327 9.98758C16.6327 9.9875 16.6327 9.98742 16.6327 9.98734C16.6327 9.98726 16.6327 9.98719 16.6327 9.98711C16.6327 9.98703 16.6327 9.98695 16.6327 9.98687C16.6327 9.9868 16.6327 9.98672 16.6327 9.98664C16.6327 9.98656 16.6327 9.98648 16.6327 9.98641C16.6327 9.98633 16.6327 9.98625 16.6327 9.98617C16.6327 9.98609 16.6327 9.98601 16.6327 9.98594C16.6327 9.98586 16.6327 9.98578 16.6327 9.9857C16.6327 9.98562 16.6327 9.98555 16.6327 9.98547C16.6327 9.98539 16.6327 9.98531 16.6327 9.98523C16.6327 9.98516 16.6327 9.98508 16.6327 9.985C16.6327 9.98492 16.6327 9.98484 16.6327 9.98476C16.6327 9.98469 16.6327 9.98461 16.6327 9.98453C16.6327 9.98445 16.6327 9.98437 16.6327 9.9843C16.6327 9.98422 16.6327 9.98414 16.6327 9.98406C16.6327 9.98398 16.6327 9.98391 16.6327 9.98383C16.6327 9.98375 16.6327 9.98367 16.6327 9.98359C16.6327 9.98351 16.6327 9.98344 16.6327 9.98336C16.6327 9.98328 16.6327 9.9832 16.6327 9.98312C16.6327 9.98305 16.6327 9.98297 16.6327 9.98289C16.6327 9.98281 16.6327 9.98273 16.6327 9.98266C16.6327 9.98258 16.6327 9.9825 16.6327 9.98242C16.6327 9.98234 16.6327 9.98226 16.6327 9.98219C16.6327 9.98211 16.6327 9.98203 16.6327 9.98195C16.6327 9.98187 16.6327 9.9818 16.6327 9.98172C16.6327 9.98164 16.6327 9.98156 16.6327 9.98148C16.6327 9.98141 16.6327 9.98133 16.6327 9.98125C16.6327 9.98117 16.6327 9.98109 16.6327 9.98101C16.6327 9.98094 16.6327 9.98086 16.6327 9.98078C16.6327 9.9807 16.6327 9.98062 16.6327 9.98055C16.6327 9.98047 16.6327 9.98039 16.6327 9.98031C16.6327 9.98023 16.6327 9.98016 16.6327 9.98008C16.6327 9.98 16.6327 9.97992 16.6327 9.97984C16.6327 9.97976 16.6327 9.97969 16.6327 9.97961C16.6327 9.97953 16.6327 9.97945 16.6327 9.97937C16.6327 9.9793 16.6327 9.97922 16.6327 9.97914C16.6327 9.97906 16.6327 9.97898 16.6327 9.97891C16.6327 9.97883 16.6327 9.97875 16.6327 9.97867C16.6327 9.97859 16.6327 9.97851 16.6327 9.97844C16.6327 9.97836 16.6327 9.97828 16.6327 9.9782C16.6327 9.97812 16.6327 9.97805 16.6327 9.97797C16.6327 9.97789 16.6327 9.97781 16.6327 9.97773C16.6327 9.97766 16.6327 9.97758 16.6327 9.9775C16.6327 9.97742 16.6327 9.97734 16.6327 9.97726C16.6327 9.97719 16.6327 9.97711 16.6327 9.97703C16.6327 9.97695 16.6327 9.97687 16.6327 9.9768C16.6327 9.97672 16.6327 9.97664 16.6327 9.97656C16.6327 9.97648 16.6327 9.97641 16.6327 9.97633C16.6327 9.97625 16.6327 9.97617 16.6327 9.97609C16.6327 9.97601 16.6327 9.97594 16.6327 9.97586C16.6327 9.97578 16.6327 9.9757 16.6327 9.97562C16.6327 9.97555 16.6327 9.97547 16.6327 9.97539C16.6327 9.97531 16.6327 9.97523 16.6327 9.97516C16.6327 9.97508 16.6327 9.975 16.6327 9.97492C16.6327 9.97484 16.6327 9.97476 16.6327 9.97469C16.6327 9.97461 16.6327 9.97453 16.6327 9.97445C16.6327 9.97437 16.6327 9.9743 16.6327 9.97422C16.6327 9.97414 16.6327 9.97406 16.6327 9.97398C16.6327 9.97391 16.6327 9.97383 16.6327 9.97375C16.6327 9.97367 16.6327 9.97359 16.6327 9.97351C16.6327 9.97344 16.6327 9.97336 16.6327 9.97328C16.6327 9.9732 16.6327 9.97312 16.6327 9.97305C16.6327 9.97297 16.6327 9.97289 16.6327 9.97281C16.6327 9.97273 16.6327 9.97266 16.6327 9.97258C16.6327 9.9725 16.6327 9.97242 16.6327 9.97234C16.6327 9.97226 16.6327 9.97219 16.6327 9.97211C16.6327 9.97203 16.6327 9.97195 16.6327 9.97187C16.6327 9.9718 16.6327 9.97172 16.6327 9.97164C16.6327 9.97156 16.6327 9.97148 16.6327 9.97141C16.6327 9.97133 16.6327 9.97125 16.6327 9.97117C16.6327 9.97109 16.6327 9.97101 16.6327 9.97094C16.6327 9.97086 16.6327 9.97078 16.6327 9.9707C16.6327 9.97062 16.6327 9.97055 16.6327 9.97047C16.6327 9.97039 16.6327 9.97031 16.6327 9.97023C16.6327 9.97016 16.6327 9.97008 16.6327 9.97C16.6327 9.96992 16.6327 9.96984 16.6327 9.96976C16.6327 9.96969 16.6327 9.96961 16.6327 9.96953C16.6327 9.96945 16.6327 9.96937 16.6327 9.9693C16.6327 9.96922 16.6327 9.96914 16.6327 9.96906C16.6327 9.96898 16.6327 9.96891 16.6327 9.96883C16.6327 9.96875 16.6327 9.96867 16.6327 9.96859C16.6327 9.96851 16.6327 9.96844 16.6327 9.96836C16.6327 9.96828 16.6327 9.9682 16.6327 9.96812C16.6327 9.96805 16.6327 9.96797 16.6327 9.96789C16.6327 9.96781 16.6327 9.96773 16.6327 9.96766C16.6327 9.96758 16.6327 9.9675 16.6327 9.96742C16.6327 9.96734 16.6327 9.96726 16.6327 9.96719C16.6327 9.96711 16.6327 9.96703 16.6327 9.96695C16.6327 9.96687 16.6327 9.9668 16.6327 9.96672C16.6327 9.96664 16.6327 9.96656 16.6327 9.96648C16.6327 9.96641 16.6327 9.96633 16.6327 9.96625C16.6327 9.96617 16.6327 9.96609 16.6327 9.96601C16.6327 9.96594 16.6327 9.96586 16.6327 9.96578C16.6327 9.9657 16.6327 9.96562 16.6327 9.96555C16.6327 9.96547 16.6327 9.96539 16.6327 9.96531C16.6327 9.96523 16.6327 9.96516 16.6327 9.96508C16.6327 9.965 16.6327 9.96492 16.6327 9.96484C16.6327 9.96476 16.6327 9.96469 16.6327 9.96461C16.6327 9.96453 16.6327 9.96445 16.6327 9.96437C16.6327 9.9643 16.6327 9.96422 16.6327 9.96414C16.6327 9.96406 16.6327 9.96398 16.6327 9.96391C16.6327 9.96383 16.6327 9.96375 16.6327 9.96367C16.6327 9.96359 16.6327 9.96351 16.6327 9.96344C16.6327 9.96336 16.6327 9.96328 16.6327 9.9632C16.6327 9.96312 16.6327 9.96305 16.6327 9.96297C16.6327 9.96289 16.6327 9.96281 16.6327 9.96273C16.6327 9.96266 16.6327 9.96258 16.6327 9.9625C16.6327 9.96242 16.6327 9.96234 16.6327 9.96226C16.6327 9.96219 16.6327 9.96211 16.6327 9.96203C16.6327 9.96195 16.6327 9.96187 16.6327 9.9618C16.6327 9.96172 16.6327 9.96164 16.6327 9.96156C16.6327 9.96148 16.6327 9.96141 16.6327 9.96133C16.6327 9.96125 16.6327 9.96117 16.6327 9.96109C16.6327 9.96101 16.6327 9.96094 16.6327 9.96086C16.6327 9.96078 16.6327 9.9607 16.6327 9.96062C16.6327 9.96055 16.6327 9.96047 16.6327 9.96039C16.6327 9.96031 16.6327 9.96023 16.6327 9.96016C16.6327 9.96008 16.6327 9.96 16.6327 9.95992C16.6327 9.95984 16.6327 9.95976 16.6327 9.95969C16.6327 9.95961 16.6327 9.95953 16.6327 9.95945C16.6327 9.95937 16.6327 9.9593 16.6327 9.95922C16.6327 9.95914 16.6327 9.95906 16.6327 9.95898C16.6327 9.95891 16.6327 9.95883 16.6327 9.95875C16.6327 9.95867 16.6327 9.95859 16.6327 9.95851C16.6327 9.95844 16.6327 9.95836 16.6327 9.95828C16.6327 9.9582 16.6327 9.95812 16.6327 9.95805C16.6327 9.95797 16.6327 9.95789 16.6327 9.95781C16.6327 9.95773 16.6327 9.95766 16.6327 9.95758C16.6327 9.9575 16.6327 9.95742 16.6327 9.95734C16.6327 9.95726 16.6327 9.95719 16.6327 9.95711C16.6327 9.95703 16.6327 9.95695 16.6327 9.95687C16.6327 9.9568 16.6327 9.95672 16.6327 9.95664C16.6327 9.95656 16.6327 9.95648 16.6327 9.95641C16.6327 9.95633 16.6327 9.95625 16.6327 9.95617C16.6327 9.95609 16.6327 9.95601 16.6327 9.95594C16.6327 9.95586 16.6327 9.95578 16.6327 9.9557C16.6327 9.95562 16.6327 9.95555 16.6327 9.95547C16.6327 9.95539 16.6327 9.95531 16.6327 9.95523C16.6327 9.95516 16.6327 9.95508 16.6327 9.955C16.6327 9.95492 16.6327 9.95484 16.6327 9.95476C16.6327 9.95469 16.6327 9.95461 16.6327 9.95453C16.6327 9.95445 16.6327 9.95437 16.6327 9.9543C16.6327 9.95422 16.6327 9.95414 16.6327 9.95406C16.6327 9.95398 16.6327 9.95391 16.6327 9.95383C16.6327 9.95375 16.6327 9.95367 16.6327 9.95359C16.6327 9.95351 16.6327 9.95344 16.6327 9.95336C16.6327 9.95328 16.6327 9.9532 16.6327 9.95312C16.6327 9.95305 16.6327 9.95297 16.6327 9.95289C16.6327 9.95281 16.6327 9.95273 16.6327 9.95266C16.6327 9.95258 16.6327 9.9525 16.6327 9.95242C16.6327 9.95234 16.6327 9.95226 16.6327 9.95219C16.6327 9.95211 16.6327 9.95203 16.6327 9.95195C16.6327 9.95187 16.6327 9.9518 16.6327 9.95172C16.6327 9.95164 16.6327 9.95156 16.6327 9.95148C16.6327 9.95141 16.6327 9.95133 16.6327 9.95125C16.6327 9.95117 16.6327 9.95109 16.6327 9.95101C16.6327 9.95094 16.6327 9.95086 16.6327 9.95078C16.6327 9.9507 16.6327 9.95062 16.6327 9.95055C16.6327 9.95047 16.6327 9.95039 16.6327 9.95031C16.6327 9.95023 16.6327 9.95016 16.6327 9.95008C16.6327 9.95 16.6327 9.94992 16.6327 9.94984C16.6327 9.94976 16.6327 9.94969 16.6327 9.94961C16.6327 9.94953 16.6327 9.94945 16.6327 9.94937C16.6327 9.9493 16.6327 9.94922 16.6327 9.94914C16.6327 9.94906 16.6327 9.94898 16.6327 9.94891C16.6327 9.94883 16.6327 9.94875 16.6327 9.94867C16.6327 9.94859 16.6327 9.94851 16.6327 9.94844C16.6327 9.94836 16.6327 9.94828 16.6327 9.9482C16.6327 9.94812 16.6327 9.94805 16.6327 9.94797C16.6327 9.94789 16.6327 9.94781 16.6327 9.94773C16.6327 9.94766 16.6327 9.94758 16.6327 9.9475C16.6327 9.94742 16.6327 9.94734 16.6327 9.94726C16.6327 9.94719 16.6327 9.94711 16.6327 9.94703C16.6327 9.94695 16.6327 9.94687 16.6327 9.9468C16.6327 9.94672 16.6327 9.94664 16.6327 9.94656C16.6327 9.94648 16.6327 9.94641 16.6327 9.94633C16.6327 9.94625 16.6327 9.94617 16.6327 9.94609C16.6327 9.94601 16.6327 9.94594 16.6327 9.94586C16.6327 9.94578 16.6327 9.9457 16.6327 9.94562C16.6327 9.94555 16.6327 9.94547 16.6327 9.94539C16.6327 9.94531 16.6327 9.94523 16.6327 9.94516C16.6327 9.94508 16.6327 9.945 16.6327 9.94492C16.6327 9.94484 16.6327 9.94476 16.6327 9.94469C16.6327 9.94461 16.6327 9.94453 16.6327 9.94445C16.6327 9.94437 16.6327 9.9443 16.6327 9.94422C16.6327 9.94414 16.6327 9.94406 16.6327 9.94398C16.6327 9.94391 16.6327 9.94383 16.6327 9.94375C16.6327 9.94367 16.6327 9.94359 16.6327 9.94351C16.6327 9.94344 16.6327 9.94336 16.6327 9.94328C16.6327 9.9432 16.6327 9.94312 16.6327 9.94305C16.6327 9.94297 16.6327 9.94289 16.6327 9.94281C16.6327 9.94273 16.6327 9.94266 16.6327 9.94258C16.6327 9.9425 16.6327 9.94242 16.6327 9.94234C16.6327 9.94226 16.6327 9.94219 16.6327 9.94211C16.6327 9.94203 16.6327 9.94195 16.6327 9.94187C16.6327 9.9418 16.6327 9.94172 16.6327 9.94164C16.6327 9.94156 16.6327 9.94148 16.6327 9.94141C16.6327 9.94133 16.6327 9.94125 16.6327 9.94117C16.6327 9.94109 16.6327 9.94101 16.6327 9.94094C16.6327 9.94086 16.6327 9.94078 16.6327 9.9407C16.6327 9.94062 16.6327 9.94055 16.6327 9.94047C16.6327 9.94039 16.6327 9.94031 16.6327 9.94023C16.6327 9.94016 16.6327 9.94008 16.6327 9.94H14.6327ZM14.6327 10.06C14.6327 10.3392 14.5393 10.7933 14.2666 11.4627L16.1188 12.2173C16.4327 11.4467 16.6327 10.7141 16.6327 10.06H14.6327ZM14.2691 11.4566C14.127 11.7989 14.0153 12.0421 13.9324 12.1999C13.8905 12.2796 13.8652 12.3198 13.8559 12.3332C13.8516 12.3395 13.8584 12.3287 13.8765 12.3085C13.8912 12.2921 13.9382 12.2412 14.018 12.1879L15.1274 13.8521C15.3226 13.7219 15.4463 13.5499 15.5019 13.4693C15.5743 13.3644 15.6415 13.2471 15.7029 13.1301C15.8267 12.8945 15.965 12.5878 16.1163 12.2234L14.2691 11.4566ZM15.031 12.1312C14.0907 11.6464 13.1641 11.36 12.2727 11.36V13.36C12.7413 13.36 13.348 13.5136 14.1144 13.9088L15.031 12.1312ZM12.2727 11.36C11.8493 11.36 11.3518 11.4308 10.9384 11.7285C10.4642 12.0699 10.2727 12.5803 10.2727 13.08H12.2727C12.2727 13.0752 12.2734 13.1188 12.2426 13.1851C12.2094 13.2569 12.1581 13.3147 12.107 13.3515C12.062 13.3839 12.0392 13.3844 12.0685 13.3774C12.0985 13.3702 12.1628 13.36 12.2727 13.36V11.36ZM10.2727 13.08C10.2727 14.0176 11.0573 14.5215 11.5952 14.7687L12.4302 12.9513C12.3428 12.9112 12.2807 12.876 12.2384 12.8482C12.1956 12.8201 12.1813 12.8048 12.1831 12.8067C12.1856 12.8094 12.2093 12.835 12.2323 12.8866C12.2567 12.9413 12.2727 13.0084 12.2727 13.08H10.2727ZM11.5655 14.7544C11.6843 14.8138 11.8472 14.8917 12.0498 14.9862L12.8956 13.1738C12.6981 13.0817 12.5544 13.0128 12.4599 12.9656L11.5655 14.7544ZM12.0498 14.9862C12.2318 15.0711 12.4438 15.177 12.6869 15.3049L13.6184 13.5351C13.3549 13.3964 13.1135 13.2755 12.8956 13.1738L12.0498 14.9862ZM12.7423 15.3319C12.9457 15.4234 13.1745 15.5525 13.4293 15.7262L14.556 14.0738C14.2242 13.8475 13.893 13.6566 13.563 13.5081L12.7423 15.3319ZM13.4727 15.7542C13.7084 15.8976 13.9822 16.1066 14.2944 16.3948L15.651 14.9252C15.2698 14.5734 14.8903 14.2757 14.5126 14.0458L13.4727 15.7542ZM14.2865 16.3874C14.7668 16.8405 15.0327 17.444 15.0327 18.3H17.0327C17.0327 16.9694 16.5919 15.8128 15.6589 14.9326L14.2865 16.3874ZM15.0327 18.3C15.0327 19.5336 14.6975 20.4529 14.0974 21.1446L15.608 22.4554C16.5812 21.3337 17.0327 19.9197 17.0327 18.3H15.0327ZM14.0974 21.1446C13.5578 21.7665 12.6608 22.1763 11.1964 22.2001L11.2289 24.1999C13.0446 24.1703 14.5742 23.6468 15.608 22.4554L14.0974 21.1446ZM11.2127 22.2C10.467 22.2 9.80867 22.1378 9.23263 22.0202L8.83271 23.9798C9.56335 24.1289 10.3584 24.2 11.2127 24.2V22.2ZM9.23663 22.021C8.74196 21.918 8.32926 21.7226 7.98 21.4412L6.72534 22.9988C7.33609 23.4907 8.04339 23.8154 8.82872 23.979L9.23663 22.021ZM7.98 21.4412C7.70166 21.217 7.63267 21.023 7.63267 20.82H5.63267C5.63267 21.7104 6.04368 22.4496 6.72534 22.9988L7.98 21.4412ZM7.63267 20.82C7.63267 20.3982 7.70932 19.977 7.869 19.5511L5.99634 18.8489C5.75603 19.4897 5.63267 20.1484 5.63267 20.82H7.63267ZM7.8718 19.5436C7.9582 19.3074 8.0371 19.141 8.10296 19.0298C8.17212 18.9131 8.20431 18.8959 8.18012 18.9144L6.96522 17.3256C6.49657 17.684 6.20353 18.2825 5.99355 18.8564L7.8718 19.5436ZM21.4977 12.54V11.54H20.4977V12.54H21.4977ZM21.4977 14.82H20.4977V15.82H21.4977V14.82ZM21.4977 17.92V16.92H20.4977V17.92H21.4977ZM20.7377 23.1L20.633 22.1055L20.6183 22.107L20.6038 22.109L20.7377 23.1ZM19.4977 23.2L19.4552 24.1991L19.4764 24.2H19.4977V23.2ZM18.5577 23.16L18.4361 24.1526L18.4755 24.1574L18.5152 24.1591L18.5577 23.16ZM17.6977 9.1L17.1164 8.28627L17.0861 8.30792L17.0575 8.33178L17.6977 9.1ZM25.1577 10C24.6943 10 24.4761 9.6735 24.4388 9.60844C24.3994 9.53967 24.4095 9.52308 24.4304 9.63262C24.4688 9.83354 24.4977 10.2017 24.4977 10.78H26.4977C26.4977 10.1716 26.4699 9.64979 26.3949 9.25738C26.3592 9.07025 26.2985 8.83117 26.1741 8.61406C26.0518 8.40066 25.7344 8 25.1577 8V10ZM24.4977 10.78C24.4977 11.3514 24.4688 11.7138 24.4308 11.9103C24.4101 12.0176 24.4005 11.9988 24.4412 11.9286C24.4811 11.8597 24.7 11.54 25.1577 11.54V13.54C25.7287 13.54 26.0467 13.147 26.1716 12.9314C26.2973 12.7145 26.3586 12.4757 26.3945 12.2897C26.4699 11.8996 26.4977 11.3819 26.4977 10.78H24.4977ZM25.1577 11.54H21.4977V13.54H25.1577V11.54ZM20.4977 12.54V14.82H22.4977V12.54H20.4977ZM21.4977 15.82H23.9377V13.82H21.4977V15.82ZM23.9377 15.82C23.762 15.82 23.5993 15.766 23.4692 15.6807C23.3491 15.602 23.2813 15.5134 23.2495 15.4647C23.1941 15.3801 23.1974 15.3395 23.2156 15.4229C23.2487 15.5748 23.2777 15.8774 23.2777 16.38H25.2777C25.2777 15.8426 25.25 15.3652 25.1697 14.997C25.1313 14.8205 25.0637 14.5849 24.9234 14.3702C24.7715 14.138 24.4496 13.82 23.9377 13.82V15.82ZM23.2777 16.38C23.2777 16.8768 23.2504 17.1784 23.2186 17.3316C23.201 17.4163 23.1971 17.3781 23.2491 17.2947C23.2787 17.2472 23.345 17.1552 23.4661 17.0719C23.5986 16.9808 23.7692 16.92 23.9577 16.92V18.92C24.4892 18.92 24.8073 18.5757 24.9463 18.3528C25.0782 18.1411 25.141 17.9103 25.1768 17.7384C25.2516 17.3783 25.2777 16.9099 25.2777 16.38H23.2777ZM23.9577 16.92H21.4977V18.92H23.9577V16.92ZM20.4977 17.92V22.74H22.4977V17.92H20.4977ZM20.4977 22.74C20.4977 22.5383 20.5733 22.3589 20.6792 22.2306C20.771 22.1195 20.8611 22.075 20.8796 22.0663C20.9019 22.0557 20.8971 22.0613 20.8478 22.0725C20.8013 22.0831 20.7313 22.0951 20.633 22.1055L20.8424 24.0945C21.1318 24.064 21.4556 24.0065 21.7358 23.8737C22.0142 23.7418 22.4977 23.3986 22.4977 22.74H20.4977ZM20.6038 22.109C20.1354 22.1723 19.7702 22.2 19.4977 22.2V24.2C19.8918 24.2 20.3532 24.161 20.8716 24.091L20.6038 22.109ZM19.5402 22.2009L18.6002 22.1609L18.5152 24.1591L19.4552 24.1991L19.5402 22.2009ZM18.6792 22.1674C18.5376 22.1501 18.4264 22.1313 18.3416 22.1129C18.2541 22.0938 18.2117 22.0787 18.2006 22.0742C18.1806 22.066 18.2507 22.0894 18.3387 22.1756C18.3871 22.2231 18.4485 22.297 18.4976 22.4013C18.5485 22.5093 18.5777 22.632 18.5777 22.76H16.5777C16.5777 23.5356 17.2526 23.8474 17.4448 23.9258C17.7329 24.0434 18.0834 24.1094 18.4361 24.1526L18.6792 22.1674ZM18.5777 22.76V9.52H16.5777V22.76H18.5777ZM18.5777 9.52C18.5777 9.46732 18.5836 9.4794 18.5692 9.52972C18.5553 9.57852 18.5023 9.73119 18.3379 9.86822L17.0575 8.33178C16.8131 8.53547 16.7001 8.79148 16.6461 8.98028C16.5918 9.17059 16.5777 9.35934 16.5777 9.52H18.5777ZM18.2789 9.91373C18.2054 9.96622 18.1417 9.98727 18.1102 9.99514C18.0801 10.0027 18.0726 10 18.0977 10V8C17.8163 8 17.446 8.05086 17.1164 8.28627L18.2789 9.91373ZM18.0977 10H25.1577V8H18.0977V10Z" fill="black" mask="url(#path-4-outside-1_28_7)"/>
</svg>
